<?xml version="1.0" encoding="UTF-8"?>
<svg id="Camada_1" data-name="Camada 1" xmlns="http://www.w3.org/2000/svg" viewBox="0 0 1817 1707">
  <defs>
    <style>
      .cls-1 {
        fill: #1e1e1e;
      }
    </style>
  </defs>
  <g>
    <path class="cls-1" d="M1036,696.98c-11.51,12.7-49.58,19.13-51.1,21.48-3.06,4.75-1.65,27.36,3.87,31.17,2.96,2.05,56.03,6.6,68.29,9.19,70.41,14.85,143.22,40.06,198.56,87.15,8.5,7.23,12.16,20.07,21.47,26.95,11.84,8.75,29.38,8.84,41.39,21.56,18.46,19.56,19.72,51,4.74,72.72-5.75,8.33-37.98,26.61-29.02,36.31,3.25,3.52,66.87-34.51,89.2-33.53,52.67,2.3,81.62,75.61,39.16,111.09-20.37,17.02-123.5,54.16-127.61,66.09-6.85,82.84,6.56,173.99-.85,255.8-7.31,80.59-69.45,131.47-147.69,138.02-153.69,12.87-324.04-9.61-479.52.26-68.66-1.84-140.68-48.15-151.09-120.09-12.15-83.99,7.08-187.82-2.04-273.98-4.84-14.11-115.79-45.45-137.42-75.65-29.81-41.64-.36-99.54,49.04-101.62,20.63-.87,85.89,37.11,89.13,33.62,10.47-11.28-25.84-23.96-33.22-36.94-15.03-26.43-9.86-62.16,16.24-79.31,10.45-6.87,23.11-6.61,31.22-12.36,7.08-5.02,20.73-26.25,31.93-35.86,58.25-49.98,153.12-75.92,228.06-86.69,7.39-1.06,29.8.5,30.89-.59,1.18-1.17.78-30.98-.68-33.27-4.2-6.58-75.59-14.15-55-58.66,23.83-51.52,168.85-47.74,215.69-36.66,31,7.34,91.3,35.27,56.35,73.82ZM1003.61,669.46c-64.12-22.07-140.43-24.69-203.35,2.34,37.57,17.67,91.81,19.83,133.34,17.17,19.89-1.27,57.5-3.73,70.01-19.51ZM950.36,722.67h-92.01v24.21h92.01v-24.21ZM1231.22,877.63c-86.29-82.78-249.61-102.79-365.84-97.08-93.51,4.59-221.91,27.43-287.9,97.08h653.74ZM521.79,955.11h765.12c7.54,0,23.24-32.11-7.02-41.4l-743.65-2.18c-27.72-5.52-35.3,37.68-14.45,43.58ZM1255.44,993.85h-707.01v414.04c0,6.63,15.27,40.18,20.18,47.61,18.31,27.69,51.01,44.05,83.73,47.02,162.68,14.79,348.01-11.13,513.09-.63,30.66-.47,90.01-50.89,90.01-79.48v-428.56ZM513.87,1042.94c-2.47-3.83-79.66-34.72-84.21-34.93-28.78-1.3-38.86,31.97-18.7,48.28,24.14,19.54,75.19,27.65,101.17,48.91,2.34-10.64,5.31-56.72,1.73-62.26ZM1399.55,1014.39c-6.08-6.1-20.67-6.76-29.11-5.13-4.62.89-73.27,30.29-75.47,33.79-4.97,7.94,1.91,49.2-.75,62.18,19.58-16.88,147.63-48.44,105.32-90.84Z"/>
    <g>
      <path class="cls-1" d="M673.7,1491.09c-27.06-4.3-54.12-8.6-81.18-12.9-3.9-.62-4.23,5.42-.38,6.04,27.06,4.3,54.12,8.6,81.18,12.9,3.9.62,4.23-5.42.38-6.04h0Z"/>
      <path class="cls-1" d="M667.6,1462.62c-27.06-4.3-54.12-8.6-81.18-12.9-3.9-.62-4.23,5.42-.38,6.04,27.06,4.3,54.12,8.6,81.18,12.9,3.9.62,4.23-5.42.38-6.04h0Z"/>
      <path class="cls-1" d="M661.49,1434.15c-27.06-4.3-54.12-8.6-81.18-12.9-3.9-.62-4.23,5.42-.38,6.04,27.06,4.3,54.12,8.6,81.18,12.9,3.9.62,4.23-5.42.38-6.04h0Z"/>
      <path class="cls-1" d="M655.39,1405.68c-27.06-4.3-54.12-8.6-81.18-12.9-3.9-.62-4.23,5.42-.38,6.04,27.06,4.3,54.12,8.6,81.18,12.9,3.9.62,4.23-5.42.38-6.04h0Z"/>
      <path class="cls-1" d="M649.28,1377.2c-27.06-4.3-54.12-8.6-81.18-12.9-3.9-.62-4.23,5.42-.38,6.04,27.06,4.3,54.12,8.6,81.18,12.9,3.9.62,4.23-5.42.38-6.04h0Z"/>
      <path class="cls-1" d="M643.18,1348.73c-27.06-4.3-54.12-8.6-81.18-12.9-3.9-.62-4.23,5.42-.38,6.04,27.06,4.3,54.12,8.6,81.18,12.9,3.9.62,4.23-5.42.38-6.04h0Z"/>
      <path class="cls-1" d="M643.18,1348.73c-27.06-4.3-54.12-8.6-81.18-12.9-3.9-.62-4.23,5.42-.38,6.04,27.06,4.3,54.12,8.6,81.18,12.9,3.9.62,4.23-5.42.38-6.04h0Z"/>
      <path class="cls-1" d="M580.22,1339.05c-20.48-3.25-40.95-6.51-61.43-9.76.3,2.08.59,4.15.87,6.23,20.06,3.19,40.13,6.38,60.19,9.56,3.9.62,4.23-5.42.38-6.04Z"/>
      <path class="cls-1" d="M589.91,1368.1c-22.68-3.6-45.37-7.21-68.05-10.81.14,2.05.27,4.1.37,6.16,22.43,3.56,44.87,7.13,67.3,10.69,3.9.62,4.23-5.42.38-6.04Z"/>
      <path class="cls-1" d="M599.59,1397.16c-25.61-4.07-51.22-8.14-76.84-12.21.08,2.06.2,4.11.36,6.15,25.37,4.03,50.73,8.06,76.1,12.09,3.9.62,4.23-5.42.38-6.04Z"/>
      <path class="cls-1" d="M609.28,1426.21c-27.06-4.3-54.12-8.6-81.18-12.9-1.3-.21-2.16.35-2.64,1.18.12,1.25.25,2.5.34,3.75.45.54,1.07.97,1.92,1.11,27.06,4.3,54.12,8.6,81.18,12.9,3.9.62,4.23-5.42.38-6.04Z"/>
      <path class="cls-1" d="M623.81,1455.27c-27.06-4.3-54.12-8.6-81.18-12.9-3.9-.62-4.23,5.42-.38,6.04,27.06,4.3,54.12,8.6,81.18,12.9,3.9.62,4.23-5.42.38-6.04h0Z"/>
      <path class="cls-1" d="M633.49,1484.32c-27.06-4.3-54.12-8.6-81.18-12.9-3.9-.62-4.23,5.42-.38,6.04,27.06,4.3,54.12,8.6,81.18,12.9,3.9.62,4.23-5.42.38-6.04h0Z"/>
      <path class="cls-1" d="M637.07,1320.26c-27.06-4.3-54.12-8.6-81.18-12.9-3.9-.62-4.23,5.42-.38,6.04,27.06,4.3,54.12,8.6,81.18,12.9,3.9.62,4.23-5.42.38-6.04h0Z"/>
      <path class="cls-1" d="M637.07,1320.26c-27.06-4.3-54.12-8.6-81.18-12.9-3.9-.62-4.23,5.42-.38,6.04,27.06,4.3,54.12,8.6,81.18,12.9,3.9.62,4.23-5.42.38-6.04h0Z"/>
      <path class="cls-1" d="M574.12,1310.58c-18.52-2.94-37.03-5.88-55.55-8.83-.03,2.03-.15,4.04-.25,6.06,18.47,2.94,36.95,5.87,55.43,8.81,3.9.62,4.23-5.42.38-6.04Z"/>
      <path class="cls-1" d="M630.97,1291.79c-27.06-4.3-54.12-8.6-81.18-12.9-3.9-.62-4.23,5.42-.38,6.04,27.06,4.3,54.12,8.6,81.18,12.9,3.9.62,4.23-5.42.38-6.04h0Z"/>
      <path class="cls-1" d="M624.86,1263.32c-27.06-4.3-54.12-8.6-81.18-12.9-3.9-.62-4.23,5.42-.38,6.04,27.06,4.3,54.12,8.6,81.18,12.9,3.9.62,4.23-5.42.38-6.04h0Z"/>
      <path class="cls-1" d="M618.76,1234.85c-27.06-4.3-54.12-8.6-81.18-12.9-3.9-.62-4.23,5.42-.38,6.04,27.06,4.3,54.12,8.6,81.18,12.9,3.9.62,4.23-5.42.38-6.04h0Z"/>
      <path class="cls-1" d="M612.65,1206.37c-27.06-4.3-54.12-8.6-81.18-12.9-3.9-.62-4.23,5.42-.38,6.04,27.06,4.3,54.12,8.6,81.18,12.9,3.9.62,4.23-5.42.38-6.04h0Z"/>
      <path class="cls-1" d="M606.55,1177.9c-27.06-4.3-54.12-8.6-81.18-12.9-.06,0-.1.01-.16,0-.87.83-1.84,1.56-2.86,2.22-.26,1.59.57,3.48,2.64,3.81,27.06,4.3,54.12,8.6,81.18,12.9,3.9.62,4.23-5.42.38-6.04Z"/>
      <path class="cls-1" d="M600.44,1149.43c-23.62-3.75-47.24-7.51-70.86-11.26.21,2.07.39,4.13.63,6.2,23.29,3.7,46.57,7.4,69.86,11.1,3.9.62,4.23-5.42.38-6.04Z"/>
      <path class="cls-1" d="M594.34,1120.96c-22.32-3.55-44.64-7.09-66.97-10.64.12,2.06.28,4.11.42,6.16,22.06,3.5,44.12,7.01,66.17,10.51,3.9.62,4.23-5.42.38-6.04Z"/>
      <path class="cls-1" d="M588.23,1092.49c-20.72-3.29-41.44-6.58-62.16-9.88.09,2.05.17,4.09.26,6.14,20.51,3.26,41.02,6.52,61.53,9.78,3.9.62,4.23-5.42.37-6.04Z"/>
      <path class="cls-1" d="M582.21,1064c-19.16-3.31-38.32-6.63-57.47-9.94.11,2.04.21,4.09.32,6.13,18.95,3.28,37.9,6.55,56.84,9.83,3.75.65,4.03-5.38.31-6.02Z"/>
      <path class="cls-1" d="M576.03,1035.54c-17.78-2.83-35.57-5.65-53.35-8.48.2,2.06.42,4.13.59,6.19,17.46,2.77,34.92,5.55,52.38,8.32,3.9.62,4.23-5.42.38-6.04Z"/>
      <path class="cls-1" d="M570.13,1007.03c-17.22-3.44-34.44-6.87-51.66-10.31.34,1.1.63,2.25.84,3.5.15.93.24,1.86.39,2.79,16.74,3.34,33.49,6.68,50.23,10.02,3.51.7,3.68-5.31.21-6Z"/>
    </g>
  </g>
  <path class="cls-1" d="M762.77,387.41c-16.93,11.63-22.22,30.62-18.63,50.26,3.52,19.25,16.21,34.05,32.19,44.47,8.08,5.27,16.77,9.52,24.94,14.65,3.74,2.35,7.12,4.66,10.31,7.68.5.48,4.47,4.97,2.88,2.79,1.07,1.46,1.97,3.05,2.8,4.67.73,1.55.79,1.66.18.32.32.87.61,1.74.87,2.63.52,1.76.96,3.58,1.21,5.4-.41-3.09-.04,2.35-.05,2.93-.02.89-.06,1.77-.15,2.66.26-1.69.24-1.69-.06,0-.19.68-1.94,5.49-.49,2.45-.28.59-2.94,4.96-.95,2.04-.52.59-1.07,1.14-1.65,1.65,1.42-1.04,1.44-1.12.06-.22-1.46.74-1.42.75.11,0-.82.26-1.66.47-2.51.62-7.68,1.64-12.14,10.62-10.15,17.87,2.18,7.94,10.17,11.79,17.87,10.15,29.95-6.4,33.05-46.41,18-67.84-9.62-13.7-24.76-21.67-38.96-29.77-6.04-3.45-12.36-6.95-17.41-11.71-3.91-3.69-6.86-7.98-8.75-12.78-.63-1.59-1.94-6.26-2.39-9.13-.27-1.74.02-.11.05.19-.07-.97-.14-1.94-.16-2.92s.16-4.62.06-3.78.62-2.66.85-3.54c.02-.09.72-2.27.19-.85-.48,1.3.54-1.11.69-1.37.41-.72,2.7-3.73,1.25-2.1.46-.52.95-1.03,1.46-1.5,1.86-1.68-2.75,1.73,1-.85,6.46-4.44,9.38-12.75,5.21-19.88-3.74-6.4-13.38-9.68-19.88-5.21h0Z"/>
  <path class="cls-1" d="M968.98,495.15c-3.88-2.62.89.93-1.16-.79-.73-.61-1.42-1.26-2.1-1.92-.83-.82-1.64-1.67-2.39-2.57.4.48,1.34,1.98-.23-.38-1.02-1.53-1.93-3.12-2.75-4.77-1.94-3.85.43,1.44-.41-.99-.45-1.32-.88-2.64-1.22-4-1.6-6.21-1.35-14.6.21-21.23,2.2-9.37,4.91-15.47,10.86-23.62,1.03-1.42.79-1.09,2.5-2.98,1.51-1.68,3.12-3.27,4.79-4.78,4-3.6,8.41-6.64,12.94-9.55,20.01-12.82,42.39-22.22,59.44-39.27,13.53-13.53,20.94-33.06,20.14-52.19-.89-21.12-12.32-42.23-34.48-46.72-7.68-1.56-15.69,2.22-17.87,10.15-1.97,7.17,2.42,16.31,10.15,17.87,1.06.21,2.08.48,3.12.75.44.11,2.87,1.08,1.15.33-1.95-.85,4.61,3.21,1.38.63,1.21.97,2.25,2.11,3.31,3.23-2.14-2.25.95,1.87,1.65,2.89,2.04,2.98-.5-1.64.25.39.28.77.55,1.55.8,2.33.56,1.82.95,3.66,1.31,5.52-.58-2.97.11,1.53.16,2.61.09,2.24-.07,4.45-.12,6.68-.1,4.23.35-1.65-.04.86-.14.9-.3,1.8-.49,2.69-.41,2.01-.92,4.01-1.54,5.97-.26.84-2,5.28-.96,2.92-.91,2.06-1.98,4.07-3.15,5.99-.58.95-1.2,1.88-1.85,2.79-1.32,1.87,1.31-1.51-.18.21-1.68,1.94-3.48,3.76-5.34,5.51-3.73,3.5-7.72,6.51-11.97,9.34-19.47,12.97-41.53,21.97-58.92,37.99-15.19,13.99-24.34,33.93-26.84,54.23-2.85,23.17,5.56,45.68,25.18,58.92,6.51,4.39,16.1,1.25,19.88-5.21,4.18-7.16,1.31-15.47-5.21-19.88h0Z"/>
  <path class="cls-1" d="M881.46,96.64c-51.72,7.16-70.01,69.93-59.71,114.11,6.5,27.88,25.41,50.99,41.03,74.24,7.36,10.95,14.75,22.41,19.32,34.85,1.16,3.16,2.22,6.36,2.96,9.64.32,1.43.62,2.89.82,4.34-.32-2.3-.04.19,0,.56.22,2.99.28,5.99.14,8.99-.07,1.51-.19,3.02-.35,4.52.28-2.51-.37,2.09-.37,2.13-.65,3.46-1.54,6.88-2.65,10.23-1.21,3.64-1.09,3.33-2.49,6.16s-3.03,5.48-4.74,8.13c-.32.49-2.16,2.91-.67,1.03-1.14,1.44-2.38,2.81-3.67,4.11-.95.96-1.94,1.87-2.96,2.75-3.11,2.68,2.15-1.26-1.27.92-1.1.7-2.19,1.39-3.34,2-.76.4-1.53.78-2.31,1.13,1.5-.65,1.46-.68-.11-.09-.83.19-1.64.49-2.46.69-.83.2-1.67.37-2.52.5,1.72-.24,1.72-.29-.02-.14-1.33-.07-2.66,0-3.99-.09,3.03.19-2.34-.55-3.02-.73-18.11-4.72-25.83,23.3-7.72,28.02,26.25,6.84,50.09-8.21,62.54-30.96,12.66-23.13,14.66-50.61,4.88-75.08-11.48-28.72-32.11-51.69-47.42-78.22-6.37-11.03-10.53-20.36-12.72-33.09-.8-4.67.13,2.75-.27-1.98-.13-1.47-.27-2.94-.36-4.42-.15-2.46-.2-4.94-.16-7.4.04-2.97.28-5.91.52-8.86.39-4.73-.52,2.69.26-1.98.24-1.45.5-2.89.81-4.32.7-3.31,1.57-6.59,2.62-9.8.45-1.36.93-2.71,1.43-4.05,1.16-3.12-.54.98.74-1.75,1.38-2.94,2.9-5.81,4.64-8.56.73-1.16,1.5-2.29,2.29-3.41,1.92-2.72-.92.95,1.06-1.33,4.82-5.55,6.58-7.09,11.77-10.03.97-.55,1.95-1.06,2.94-1.55,1.54-.71,1.62-.75.22-.14.84-.33,1.69-.63,2.55-.91,3.11-1.01,6.29-1.67,9.52-2.11,7.78-1.08,12.03-11.02,10.15-17.87-2.3-8.38-10.07-11.23-17.87-10.15h0Z"/>
  <path class="cls-1" d="M949.96,205.66c3.27,4.1.59.71-.1-.49-.84-1.44-1.85-5.08-.33-.23-.72-2.27-1.42-4.43-1.78-6.8.17,1.29.35,2.57.52,3.86-.41-3.16-.39-6.31.02-9.46l-.52,3.86c.45-3.02,1.33-5.78,2.31-8.65-1.74,5.08-.18.56.61-.83.69-1.21,1.51-2.32,2.26-3.49-2.51,3.92-1.47,1.86-.61.87.45-.52.92-1.02,1.4-1.51.55-.56,1.12-1.09,1.72-1.6.95-.82,2.72-1.59-1.11.81,1.17-.73,2.26-1.54,3.48-2.18s3.76-1.15-.78.23c.76-.23,1.5-.54,2.27-.77,7.27-2.2,12.61-10.27,10.15-17.87-2.37-7.34-10.08-12.51-17.87-10.15-15.03,4.55-25.93,16.8-30.53,31.6-2.34,7.53-2.53,15.3-1.33,23.02s4.88,14.32,9.68,20.35c2.17,2.72,6.96,4.26,10.27,4.26,3.56,0,7.82-1.58,10.27-4.26s4.43-6.4,4.26-10.27c-.18-4.09-1.72-7.1-4.26-10.27h0Z"/>
  <g>
    <path class="cls-1" d="M114.73,1550.57h1593.19c18.7,0,18.73-29.06,0-29.06H114.73c-18.7,0-18.73,29.06,0,29.06h0Z"/>
    <g>
      <g>
        <path class="cls-1" d="M102.31,1608.81c11.88-21.99,23.76-43.97,35.64-65.96,1.71-3.17-5.31-4.54-7-1.4-11.88,21.99-23.76,43.97-35.64,65.96-1.71,3.17,5.31,4.54,7,1.4h0Z"/>
        <path class="cls-1" d="M137.34,1608.81c11.88-21.99,23.76-43.97,35.64-65.96,1.71-3.17-5.31-4.54-7-1.4-11.88,21.99-23.76,43.97-35.64,65.96-1.71,3.17,5.31,4.54,7,1.4h0Z"/>
        <path class="cls-1" d="M172.36,1608.81c11.88-21.99,23.76-43.97,35.64-65.96,1.71-3.17-5.31-4.54-7-1.4-11.88,21.99-23.76,43.97-35.64,65.96-1.71,3.17,5.31,4.54,7,1.4h0Z"/>
        <path class="cls-1" d="M207.38,1608.81c11.88-21.99,23.76-43.97,35.64-65.96,1.71-3.17-5.31-4.54-7-1.4-11.88,21.99-23.76,43.97-35.64,65.96-1.71,3.17,5.31,4.54,7,1.4h0Z"/>
        <path class="cls-1" d="M242.4,1608.81c11.88-21.99,23.76-43.97,35.64-65.96,1.71-3.17-5.31-4.54-7-1.4-11.88,21.99-23.76,43.97-35.64,65.96-1.71,3.17,5.31,4.54,7,1.4h0Z"/>
        <path class="cls-1" d="M277.43,1608.81c11.88-21.99,23.76-43.97,35.64-65.96,1.71-3.17-5.31-4.54-7-1.4-11.88,21.99-23.76,43.97-35.64,65.96-1.71,3.17,5.31,4.54,7,1.4h0Z"/>
        <path class="cls-1" d="M312.45,1608.81c11.88-21.99,23.76-43.97,35.64-65.96,1.71-3.17-5.31-4.54-7-1.4-11.88,21.99-23.76,43.97-35.64,65.96-1.71,3.17,5.31,4.54,7,1.4h0Z"/>
        <path class="cls-1" d="M347.47,1608.81c11.88-21.99,23.76-43.97,35.64-65.96,1.71-3.17-5.31-4.54-7-1.4-11.88,21.99-23.76,43.97-35.64,65.96-1.71,3.17,5.31,4.54,7,1.4h0Z"/>
        <path class="cls-1" d="M382.49,1608.81c11.88-21.99,23.76-43.97,35.64-65.96,1.71-3.17-5.31-4.54-7-1.4-11.88,21.99-23.76,43.97-35.64,65.96-1.71,3.17,5.31,4.54,7,1.4h0Z"/>
        <path class="cls-1" d="M417.52,1608.81c11.88-21.99,23.76-43.97,35.64-65.96,1.71-3.17-5.31-4.54-7-1.4-11.88,21.99-23.76,43.97-35.64,65.96-1.71,3.17,5.31,4.54,7,1.4h0Z"/>
        <path class="cls-1" d="M452.54,1608.81c11.88-21.99,23.76-43.97,35.64-65.96,1.71-3.17-5.31-4.54-7-1.4-11.88,21.99-23.76,43.97-35.64,65.96-1.71,3.17,5.31,4.54,7,1.4h0Z"/>
        <path class="cls-1" d="M487.56,1608.81c11.88-21.99,23.76-43.97,35.64-65.96,1.71-3.17-5.31-4.54-7-1.4-11.88,21.99-23.76,43.97-35.64,65.96-1.71,3.17,5.31,4.54,7,1.4h0Z"/>
        <path class="cls-1" d="M522.58,1608.81c11.88-21.99,23.76-43.97,35.64-65.96,1.71-3.17-5.31-4.54-7-1.4-11.88,21.99-23.76,43.97-35.64,65.96-1.71,3.17,5.31,4.54,7,1.4h0Z"/>
        <path class="cls-1" d="M557.61,1608.81c11.88-21.99,23.76-43.97,35.64-65.96,1.71-3.17-5.31-4.54-7-1.4-11.88,21.99-23.76,43.97-35.64,65.96-1.71,3.17,5.31,4.54,7,1.4h0Z"/>
        <path class="cls-1" d="M592.63,1608.81c11.88-21.99,23.76-43.97,35.64-65.96,1.71-3.17-5.31-4.54-7-1.4-11.88,21.99-23.76,43.97-35.64,65.96-1.71,3.17,5.31,4.54,7,1.4h0Z"/>
        <path class="cls-1" d="M627.65,1608.81c11.88-21.99,23.76-43.97,35.64-65.96,1.71-3.17-5.31-4.54-7-1.4-11.88,21.99-23.76,43.97-35.64,65.96-1.71,3.17,5.31,4.54,7,1.4h0Z"/>
        <path class="cls-1" d="M662.68,1608.81c11.88-21.99,23.76-43.97,35.64-65.96,1.71-3.17-5.31-4.54-7-1.4-11.88,21.99-23.76,43.97-35.64,65.96-1.71,3.17,5.31,4.54,7,1.4h0Z"/>
        <path class="cls-1" d="M697.7,1608.81c11.88-21.99,23.76-43.97,35.64-65.96,1.71-3.17-5.31-4.54-7-1.4-11.88,21.99-23.76,43.97-35.64,65.96-1.71,3.17,5.31,4.54,7,1.4h0Z"/>
        <path class="cls-1" d="M732.72,1608.81c11.88-21.99,23.76-43.97,35.64-65.96,1.71-3.17-5.31-4.54-7-1.4-11.88,21.99-23.76,43.97-35.64,65.96-1.71,3.17,5.31,4.54,7,1.4h0Z"/>
        <path class="cls-1" d="M767.74,1608.81c11.88-21.99,23.76-43.97,35.64-65.96,1.71-3.17-5.31-4.54-7-1.4-11.88,21.99-23.76,43.97-35.64,65.96-1.71,3.17,5.31,4.54,7,1.4h0Z"/>
        <path class="cls-1" d="M802.77,1608.81c11.88-21.99,23.76-43.97,35.64-65.96,1.71-3.17-5.31-4.54-7-1.4-11.88,21.99-23.76,43.97-35.64,65.96-1.71,3.17,5.31,4.54,7,1.4h0Z"/>
        <path class="cls-1" d="M837.79,1608.81c11.88-21.99,23.76-43.97,35.64-65.96,1.71-3.17-5.31-4.54-7-1.4-11.88,21.99-23.76,43.97-35.64,65.96-1.71,3.17,5.31,4.54,7,1.4h0Z"/>
        <path class="cls-1" d="M872.81,1608.81c11.88-21.99,23.76-43.97,35.64-65.96,1.71-3.17-5.31-4.54-7-1.4-11.88,21.99-23.76,43.97-35.64,65.96-1.71,3.17,5.31,4.54,7,1.4h0Z"/>
      </g>
      <g>
        <path class="cls-1" d="M905.9,1608.81c11.88-21.99,23.76-43.97,35.64-65.96,1.71-3.17-5.31-4.54-7-1.4-11.88,21.99-23.76,43.97-35.64,65.96-1.71,3.17,5.31,4.54,7,1.4h0Z"/>
        <path class="cls-1" d="M940.93,1608.81c11.88-21.99,23.76-43.97,35.64-65.96,1.71-3.17-5.31-4.54-7-1.4-11.88,21.99-23.76,43.97-35.64,65.96-1.71,3.17,5.31,4.54,7,1.4h0Z"/>
        <path class="cls-1" d="M975.95,1608.81c11.88-21.99,23.76-43.97,35.64-65.96,1.71-3.17-5.31-4.54-7-1.4-11.88,21.99-23.76,43.97-35.64,65.96-1.71,3.17,5.31,4.54,7,1.4h0Z"/>
        <path class="cls-1" d="M1010.97,1608.81c11.88-21.99,23.76-43.97,35.64-65.96,1.71-3.17-5.31-4.54-7-1.4-11.88,21.99-23.76,43.97-35.64,65.96-1.71,3.17,5.31,4.54,7,1.4h0Z"/>
        <path class="cls-1" d="M1045.99,1608.81c11.88-21.99,23.76-43.97,35.64-65.96,1.71-3.17-5.31-4.54-7-1.4-11.88,21.99-23.76,43.97-35.64,65.96-1.71,3.17,5.31,4.54,7,1.4h0Z"/>
        <path class="cls-1" d="M1081.02,1608.81c11.88-21.99,23.76-43.97,35.64-65.96,1.71-3.17-5.31-4.54-7-1.4-11.88,21.99-23.76,43.97-35.64,65.96-1.71,3.17,5.31,4.54,7,1.4h0Z"/>
        <path class="cls-1" d="M1116.04,1608.81c11.88-21.99,23.76-43.97,35.64-65.96,1.71-3.17-5.31-4.54-7-1.4-11.88,21.99-23.76,43.97-35.64,65.96-1.71,3.17,5.31,4.54,7,1.4h0Z"/>
        <path class="cls-1" d="M1151.06,1608.81c11.88-21.99,23.76-43.97,35.64-65.96,1.71-3.17-5.31-4.54-7-1.4-11.88,21.99-23.76,43.97-35.64,65.96-1.71,3.17,5.31,4.54,7,1.4h0Z"/>
        <path class="cls-1" d="M1186.08,1608.81c11.88-21.99,23.76-43.97,35.64-65.96,1.71-3.17-5.31-4.54-7-1.4-11.88,21.99-23.76,43.97-35.64,65.96-1.71,3.17,5.31,4.54,7,1.4h0Z"/>
        <path class="cls-1" d="M1221.11,1608.81c11.88-21.99,23.76-43.97,35.64-65.96,1.71-3.17-5.31-4.54-7-1.4-11.88,21.99-23.76,43.97-35.64,65.96-1.71,3.17,5.31,4.54,7,1.4h0Z"/>
        <path class="cls-1" d="M1256.13,1608.81c11.88-21.99,23.76-43.97,35.64-65.96,1.71-3.17-5.31-4.54-7-1.4-11.88,21.99-23.76,43.97-35.64,65.96-1.71,3.17,5.31,4.54,7,1.4h0Z"/>
        <path class="cls-1" d="M1291.15,1608.81c11.88-21.99,23.76-43.97,35.64-65.96,1.71-3.17-5.31-4.54-7-1.4-11.88,21.99-23.76,43.97-35.64,65.96-1.71,3.17,5.31,4.54,7,1.4h0Z"/>
        <path class="cls-1" d="M1326.17,1608.81c11.88-21.99,23.76-43.97,35.64-65.96,1.71-3.17-5.31-4.54-7-1.4-11.88,21.99-23.76,43.97-35.64,65.96-1.71,3.17,5.31,4.54,7,1.4h0Z"/>
        <path class="cls-1" d="M1361.2,1608.81c11.88-21.99,23.76-43.97,35.64-65.96,1.71-3.17-5.31-4.54-7-1.4-11.88,21.99-23.76,43.97-35.64,65.96-1.71,3.17,5.31,4.54,7,1.4h0Z"/>
        <path class="cls-1" d="M1396.22,1608.81c11.88-21.99,23.76-43.97,35.64-65.96,1.71-3.17-5.31-4.54-7-1.4-11.88,21.99-23.76,43.97-35.64,65.96-1.71,3.17,5.31,4.54,7,1.4h0Z"/>
        <path class="cls-1" d="M1431.24,1608.81c11.88-21.99,23.76-43.97,35.64-65.96,1.71-3.17-5.31-4.54-7-1.4-11.88,21.99-23.76,43.97-35.64,65.96-1.71,3.17,5.31,4.54,7,1.4h0Z"/>
        <path class="cls-1" d="M1466.27,1608.81c11.88-21.99,23.76-43.97,35.64-65.96,1.71-3.17-5.31-4.54-7-1.4-11.88,21.99-23.76,43.97-35.64,65.96-1.71,3.17,5.31,4.54,7,1.4h0Z"/>
        <path class="cls-1" d="M1501.29,1608.81c11.88-21.99,23.76-43.97,35.64-65.96,1.71-3.17-5.31-4.54-7-1.4-11.88,21.99-23.76,43.97-35.64,65.96-1.71,3.17,5.31,4.54,7,1.4h0Z"/>
        <path class="cls-1" d="M1536.31,1608.81c11.88-21.99,23.76-43.97,35.64-65.96,1.71-3.17-5.31-4.54-7-1.4-11.88,21.99-23.76,43.97-35.64,65.96-1.71,3.17,5.31,4.54,7,1.4h0Z"/>
        <path class="cls-1" d="M1571.33,1608.81c11.88-21.99,23.76-43.97,35.64-65.96,1.71-3.17-5.31-4.54-7-1.4-11.88,21.99-23.76,43.97-35.64,65.96-1.71,3.17,5.31,4.54,7,1.4h0Z"/>
        <path class="cls-1" d="M1606.36,1608.81c11.88-21.99,23.76-43.97,35.64-65.96,1.71-3.17-5.31-4.54-7-1.4-11.88,21.99-23.76,43.97-35.64,65.96-1.71,3.17,5.31,4.54,7,1.4h0Z"/>
        <path class="cls-1" d="M1641.38,1608.81c11.88-21.99,23.76-43.97,35.64-65.96,1.71-3.17-5.31-4.54-7-1.4-11.88,21.99-23.76,43.97-35.64,65.96-1.71,3.17,5.31,4.54,7,1.4h0Z"/>
        <path class="cls-1" d="M1676.4,1608.81c11.88-21.99,23.76-43.97,35.64-65.96,1.71-3.17-5.31-4.54-7-1.4-11.88,21.99-23.76,43.97-35.64,65.96-1.71,3.17,5.31,4.54,7,1.4h0Z"/>
      </g>
    </g>
  </g>
</svg>