<?xml version="1.0" encoding="UTF-8"?>
<svg id="Camada_1" data-name="Camada 1" xmlns="http://www.w3.org/2000/svg" viewBox="0 0 1817 1707">
  <defs>
    <style>
      .cls-1 {
        fill: #1e1e1e;
      }
    </style>
  </defs>
  <g>
    <path class="cls-1" d="M1385.21,848.92c-22.33-.98-85.95,37.05-89.2,33.53-8.96-9.7,23.27-27.98,29.02-36.31,14.98-21.72,13.72-53.16-4.74-72.72-10.44-11.06-25-12.63-36.41-18.58h-52.74c.64.57,1.28,1.14,1.9,1.73h-653.74c.56-.59,1.15-1.15,1.72-1.73h-52.17c-8.11,4.69-19.75,4.94-29.52,11.36-26.09,17.15-31.27,52.88-16.24,79.31,7.38,12.98,43.68,25.66,33.22,36.94-3.25,3.5-68.51-34.48-89.13-33.62-49.4,2.08-78.84,59.98-49.04,101.62,21.62,30.2,132.58,61.54,137.42,75.65,9.12,86.16-10.11,189.99,2.04,273.98,10.41,71.95,82.43,118.25,151.09,120.09,155.48-9.87,325.84,12.6,479.52-.26,78.24-6.55,140.38-57.43,147.69-138.02,7.42-81.81-6-172.96.85-255.8,4.11-11.93,107.24-49.07,127.61-66.09,42.46-35.48,13.52-108.79-39.16-111.09ZM513.95,984.13c-25.98-21.25-77.03-29.37-101.17-48.91-20.16-16.32-10.08-49.58,18.7-48.28,4.55.21,81.74,31.1,84.21,34.93,3.57,5.54.61,51.63-1.73,62.26ZM1257.25,1301.35c0,28.59-59.35,79.01-90.01,79.48-165.08-10.5-350.41,15.42-513.09.63-32.72-2.97-65.42-19.34-83.73-47.02-4.92-7.44-20.18-40.99-20.18-47.61v-414.04h707.01v428.56ZM1288.72,834.05h-765.12c-20.85-5.9-13.28-49.1,14.45-43.58l743.65,2.18c30.26,9.29,14.56,41.4,7.02,41.4ZM1296.03,984.16c2.66-12.97-4.23-54.24.75-62.18,2.19-3.5,70.84-32.9,75.47-33.79,8.45-1.63,23.03-.97,29.11,5.13,42.31,42.4-85.75,73.96-105.32,90.84Z"/>
    <path class="cls-1" d="M498.4,467.18l792.57,5.05c8-7.76,19.99-15.7,23.31-20.45,15.12-21.62,14.06-53.07-4.27-72.75-11.93-12.8-29.47-13-41.25-21.82-9.27-6.95-12.85-19.8-21.3-27.09-55.04-47.44-127.68-73.11-198-88.42-12.25-2.67-65.28-7.55-68.23-9.62-5.49-3.85-6.76-26.47-3.67-31.2,1.53-2.34,39.64-8.53,51.23-21.15,35.2-38.32-24.93-66.64-55.88-74.17-46.76-11.38-191.76-16.08-215.92,35.28-20.87,44.38,50.46,52.4,54.62,59.01,1.45,2.3,1.66,32.11.47,33.27-1.1,1.08-23.5-.62-30.9.4-75,10.29-170.04,35.63-228.61,85.23-11.27,9.54-25.04,30.69-32.16,35.66-8.15,5.7-20.8,5.36-31.3,12.16-26.2,16.98-31.61,52.68-16.74,79.21,4.07,7.26,17.1,14.48,26.04,21.39ZM793.22,153.06c63.09-26.63,139.39-23.52,203.36-1.04-12.6,15.7-50.23,17.92-70.13,19.06-41.56,2.39-95.78-.11-133.23-18.02ZM942.99,204.88l-.15,24.21-92.01-.59.15-24.21,92.01.59ZM857.64,262.22c116.27-4.97,279.45,16.08,365.22,99.41l-653.73-4.17c66.44-69.23,194.97-91.25,288.51-95.24ZM527.67,391.1l743.62,6.93c30.2,9.49,14.3,41.49,6.76,41.44l-765.1-4.88c-20.81-6.03-12.96-49.19,14.72-43.49Z"/>
    <g>
      <path class="cls-1" d="M673.7,1368.7c-27.06-4.3-54.12-8.6-81.18-12.9-3.9-.62-4.23,5.42-.38,6.04,27.06,4.3,54.12,8.6,81.18,12.9,3.9.62,4.23-5.42.38-6.04h0Z"/>
      <path class="cls-1" d="M667.6,1340.23c-27.06-4.3-54.12-8.6-81.18-12.9-3.9-.62-4.23,5.42-.38,6.04,27.06,4.3,54.12,8.6,81.18,12.9,3.9.62,4.23-5.42.38-6.04h0Z"/>
      <path class="cls-1" d="M661.49,1311.76c-27.06-4.3-54.12-8.6-81.18-12.9-3.9-.62-4.23,5.42-.38,6.04,27.06,4.3,54.12,8.6,81.18,12.9,3.9.62,4.23-5.42.38-6.04h0Z"/>
      <path class="cls-1" d="M655.39,1283.29c-27.06-4.3-54.12-8.6-81.18-12.9-3.9-.62-4.23,5.42-.38,6.04,27.06,4.3,54.12,8.6,81.18,12.9,3.9.62,4.23-5.42.38-6.04h0Z"/>
      <path class="cls-1" d="M649.28,1254.82c-27.06-4.3-54.12-8.6-81.18-12.9-3.9-.62-4.23,5.42-.38,6.04,27.06,4.3,54.12,8.6,81.18,12.9,3.9.62,4.23-5.42.38-6.04h0Z"/>
      <path class="cls-1" d="M643.18,1226.35c-27.06-4.3-54.12-8.6-81.18-12.9-3.9-.62-4.23,5.42-.38,6.04,27.06,4.3,54.12,8.6,81.18,12.9,3.9.62,4.23-5.42.38-6.04h0Z"/>
      <path class="cls-1" d="M643.18,1226.35c-27.06-4.3-54.12-8.6-81.18-12.9-3.9-.62-4.23,5.42-.38,6.04,27.06,4.3,54.12,8.6,81.18,12.9,3.9.62,4.23-5.42.38-6.04h0Z"/>
      <path class="cls-1" d="M580.22,1216.66c-20.48-3.25-40.95-6.51-61.43-9.76.3,2.08.59,4.15.87,6.23,20.06,3.19,40.13,6.38,60.19,9.56,3.9.62,4.23-5.42.38-6.04Z"/>
      <path class="cls-1" d="M589.91,1245.72c-22.68-3.6-45.37-7.21-68.05-10.81.14,2.05.27,4.1.37,6.16,22.43,3.56,44.87,7.13,67.3,10.69,3.9.62,4.23-5.42.38-6.04Z"/>
      <path class="cls-1" d="M599.59,1274.77c-25.61-4.07-51.22-8.14-76.84-12.21.08,2.06.2,4.11.36,6.15,25.37,4.03,50.73,8.06,76.1,12.09,3.9.62,4.23-5.42.38-6.04Z"/>
      <path class="cls-1" d="M609.28,1303.83c-27.06-4.3-54.12-8.6-81.18-12.9-1.3-.21-2.16.35-2.64,1.18.12,1.25.25,2.5.34,3.75.45.54,1.07.97,1.92,1.11,27.06,4.3,54.12,8.6,81.18,12.9,3.9.62,4.23-5.42.38-6.04Z"/>
      <path class="cls-1" d="M623.81,1332.88c-27.06-4.3-54.12-8.6-81.18-12.9-3.9-.62-4.23,5.42-.38,6.04,27.06,4.3,54.12,8.6,81.18,12.9,3.9.62,4.23-5.42.38-6.04h0Z"/>
      <path class="cls-1" d="M633.49,1361.94c-27.06-4.3-54.12-8.6-81.18-12.9-3.9-.62-4.23,5.42-.38,6.04,27.06,4.3,54.12,8.6,81.18,12.9,3.9.62,4.23-5.42.38-6.04h0Z"/>
      <path class="cls-1" d="M637.07,1197.87c-27.06-4.3-54.12-8.6-81.18-12.9-3.9-.62-4.23,5.42-.38,6.04,27.06,4.3,54.12,8.6,81.18,12.9,3.9.62,4.23-5.42.38-6.04h0Z"/>
      <path class="cls-1" d="M637.07,1197.87c-27.06-4.3-54.12-8.6-81.18-12.9-3.9-.62-4.23,5.42-.38,6.04,27.06,4.3,54.12,8.6,81.18,12.9,3.9.62,4.23-5.42.38-6.04h0Z"/>
      <path class="cls-1" d="M574.12,1188.19c-18.52-2.94-37.03-5.88-55.55-8.83-.03,2.03-.15,4.04-.25,6.06,18.47,2.94,36.95,5.87,55.43,8.81,3.9.62,4.23-5.42.38-6.04Z"/>
      <path class="cls-1" d="M630.97,1169.4c-27.06-4.3-54.12-8.6-81.18-12.9-3.9-.62-4.23,5.42-.38,6.04,27.06,4.3,54.12,8.6,81.18,12.9,3.9.62,4.23-5.42.38-6.04h0Z"/>
      <path class="cls-1" d="M624.86,1140.93c-27.06-4.3-54.12-8.6-81.18-12.9-3.9-.62-4.23,5.42-.38,6.04,27.06,4.3,54.12,8.6,81.18,12.9,3.9.62,4.23-5.42.38-6.04h0Z"/>
      <path class="cls-1" d="M618.76,1112.46c-27.06-4.3-54.12-8.6-81.18-12.9-3.9-.62-4.23,5.42-.38,6.04,27.06,4.3,54.12,8.6,81.18,12.9,3.9.62,4.23-5.42.38-6.04h0Z"/>
      <path class="cls-1" d="M612.65,1083.99c-27.06-4.3-54.12-8.6-81.18-12.9-3.9-.62-4.23,5.42-.38,6.04,27.06,4.3,54.12,8.6,81.18,12.9,3.9.62,4.23-5.42.38-6.04h0Z"/>
      <path class="cls-1" d="M606.55,1055.51c-27.06-4.3-54.12-8.6-81.18-12.9-.06,0-.1.01-.16,0-.87.83-1.84,1.56-2.86,2.22-.26,1.59.57,3.48,2.64,3.81,27.06,4.3,54.12,8.6,81.18,12.9,3.9.62,4.23-5.42.38-6.04Z"/>
      <path class="cls-1" d="M600.44,1027.04c-23.62-3.75-47.24-7.51-70.86-11.26.21,2.07.39,4.13.63,6.2,23.29,3.7,46.57,7.4,69.86,11.1,3.9.62,4.23-5.42.38-6.04Z"/>
      <path class="cls-1" d="M594.34,998.57c-22.32-3.55-44.64-7.09-66.97-10.64.12,2.06.28,4.11.42,6.16,22.06,3.5,44.12,7.01,66.17,10.51,3.9.62,4.23-5.42.38-6.04Z"/>
      <path class="cls-1" d="M588.23,970.1c-20.72-3.29-41.44-6.58-62.16-9.88.09,2.05.17,4.09.26,6.14,20.51,3.26,41.02,6.52,61.53,9.78,3.9.62,4.23-5.42.37-6.04Z"/>
      <path class="cls-1" d="M582.21,941.61c-19.16-3.31-38.32-6.63-57.47-9.94.11,2.04.21,4.09.32,6.13,18.95,3.28,37.9,6.55,56.84,9.83,3.75.65,4.03-5.38.31-6.02Z"/>
      <path class="cls-1" d="M576.03,913.16c-17.78-2.83-35.57-5.65-53.35-8.48.2,2.06.42,4.13.59,6.19,17.46,2.77,34.92,5.55,52.38,8.32,3.9.62,4.23-5.42.38-6.04Z"/>
      <path class="cls-1" d="M570.13,884.64c-17.22-3.44-34.44-6.87-51.66-10.31.34,1.1.63,2.25.84,3.5.15.93.24,1.86.39,2.79,16.74,3.34,33.49,6.68,50.23,10.02,3.51.7,3.68-5.31.21-6Z"/>
    </g>
    <path class="cls-1" d="M511.84,786.19c.47-.05.96-.07,1.46-.07h468.57c-.1-1.03-.2-1.94-.32-2.66-.45-2.72-8.94-31.3-10.12-34.33-2.39-6.14-8.85-9.11-10.14-13.39-2.64-8.74.85-21.58-1.65-32.35-3.4-14.67-13.88-19.69-24.77-27.66,12.24-20.69-13.21-39.94-15.51-49.83-1.07-4.61,3.41-16.28,2.02-25.46-5.55-36.61-54.75-49.84-80.87-25,4.6-10.59-3.67-52.78-19.53-51.33-1.06.1-2.15.39-3.27.89-1.81.82-3.15,1.73-4.11,2.72-7.15,7.44,7.68,19.26,8.55,28.37.88,9.15-6.51,14.67-5.31,23.12,1.23,8.61,25.17,16.19,17.1,32.82-11.95-14.08-27.49-25.06-47.02-23.61-5.54.41-12.71,4.57-15.75,4.3-5.17-.45-22.96-18.41-35.29-12.08.64-18.59,30.1-12.78,35.39-18.19,2.59-2.65,3.36-10.12,6.42-14.5,4.7-6.74,9.25-10.23,16.27-14.47,3.44-.99,13.08,0,15.69-2.62,1.45-1.45,1.56-6.45,0-7.85-1.04-.93-9.13-7.3-10.46-7.85-8.64-2.12-33.25,14.98-38.39,21.16-2.29,2.75-3.28,9.11-4.47,9.87-2.19,1.39-8.57.13-12.66,1.68-10.95,4.15-18.85,9.52-24.83,19.7-9.02-6.23-12.93-14.97-25.54-18.87-10.55-3.26-22.02.44-25.56-.87-5.14-1.89-8.87-12.89-20.6-15.74-33.39-8.1-59.88,22.44-54.47,54.47,1.26,7.43,6.51,12.95,7.22,20.22-12.01-.44-23.42,6.14-29.31,16.47-14.78,25.9-16.46,50.23-24.48,77.51-1.41,4.81-.16,13.22-1.55,15.46-.63,1.02-7.17,2.14-9.91,4.42-5.14,4.27-15.26,6.35-20.49,22.04-3.45,10.34-1.54,23,2.1,31.22-1.93,3.23-3.37,7.49-4.41,12.28ZM649.56,766.33c-2.78-14.11,21.74-23.68,23.17-27.9,4.01-11.84-11.37-34.5,12.47-47.6,5.06-2.78,12.42-6.71,13.98.97,1.35,6.68,1.02,12.79,3.42,20.17,7.62,23.48,37.63,43.44,62,33.43l.03,20.92h-115.06ZM785.54,766.33l-2.59-31.38c10.41,14.82,36.73,13.24,39.2,31.38h-36.61ZM955.51,766.32h-18.29c1.68-19.74,16.45-21.22,18.29,0ZM927.99,695.8c10.51,2.03,15.97,17.12,14.01,26.77-2.38,11.75-15.26,13.75-19.06,20.34-3.13,5.41-2.12,16.78-7.71,21.05-4.46,3.41-23.09,3.58-28.53,1.9-5.27-1.62-5.19-6.94-7.76-9.2-8.39-7.37-29.91,11.08-41.08-4.72,26-9.73,33.93-29.75,39.07-55.13,6.34-4.82,17.15,6.49,22.38,6.65,7.12.22,12.33-10.82,28.69-7.66ZM852.94,620.6c2.8-13.73-5.9-32.5,12.92-36.75,14.29-3.22,27.85.55,34.11,14.57,6.61,14.8-6.85,26.43-4.26,35.32,1.64,5.62,13.78,9.14,17.64,16.56,6.98,13.38,4.04,27.47-12.14,29.27-3,.33-30.1-1.89-31.47-2.68-2.58-1.49-13.75-26.39-26.11-26.13-5.27-12.49,7.28-20.23,9.31-30.16ZM768.49,617.22c17.21-16.1,47.08-7.93,52.52,15.55,2.21,9.54-1.7,22.72-.24,26.28,3.39,8.3,26.73,10.26,31.6,26.08,9.97,32.4-19.08,63.08-47.92,42.7-7.55-5.33-10.2-18.18-17.95-18.38-13.65-.35-21.85,31.14-52.49,12.99-17.87-10.59-12.89-30.32-13.84-41.86.33-.11.56-.3.56-.63,0-13.08,11.17-16.13,15.18-16.72,39.44-5.85,12.93-27.61,32.58-45.99ZM713.2,622.65c2.39-.59,15.8-35.94,38.37-19.76l-14.49,37.83c-2.34,3.82-8.55,3.55-11.03,5.96-1.62,1.58-23.26,1.84-23.81,21.25-11.95-.23-26.01,5.18-34.37,9.46,10.57-16.58-13.01-28.27,2.57-48.39,14.17-18.29,29.59-3.1,42.76-6.35ZM629.44,551.22c22.27-7,22.78,16.39,29.73,18.68,5.71,1.88,13.95-2.31,20.46-2.52,19.62-.63,23.86,14.49,22.25,31.61-21.53-2.69-45.82,7.3-53.64,28.74-5.38,14.76,2.7,31.76-19.6,27.65-15.08-2.78-18.14-20.66-15.12-33.63,1.5-6.45,9.95-12.46,9.38-18.43-.47-4.9-7.96-10.51-9.38-16.64-3.44-14.86.14-30.48,15.93-35.45ZM571.54,668.9c1.51-7.76,9.38-10.7,11.29-15.07,3.17-7.25-.38-17.73,7.91-23.47,3.43,28.13,25.63,53.98,56.19,41.83,5.18,15.83-18.7,22.83-30.23,23.37-13.32.62-28.47-10.24-45.58.14,6.16-9.09-1.42-17.31.43-26.8ZM542.4,738.93c7.16-5.41,17.78-4.46,23.34-8.04,3.43-2.21,6.5-10.37,11.91-14.24,20.72-14.85,29.7,3.96,41.75,2.71,7.29-.76,12.7-14.41,28.43-10.67,16.61,23.18-18.25,31.31-17.81,55.11l-3.01,2.22c-22.22,4.5-70.45-3.97-95.87-.06-4.78-21.61,8.22-24.71,11.26-27.01Z"/>
    <path class="cls-1" d="M901.77,617.51c5.69,3.71,10.65,8.38,14.9,13.67.33-.28.68-.56,1.06-.82.11.9.24,1.79.39,2.68,2.46,3.27,4.66,6.75,6.59,10.38,3.58,6.72,6.46,13.76,8.82,20.99,9.98,9.86,23.97,14.3,40.38,7.78,5.18,15.83-18.7,22.83-30.23,23.37-.88.04-1.77.03-2.67-.02,1.4,7.95,2.54,15.94,3.64,23.84.57.03,1.15.03,1.74-.03,7.29-.76,12.7-14.41,28.43-10.67,16.61,23.18-18.25,31.31-17.81,55.11l-3.01,2.22c-.76.15-1.56.29-2.37.41,1.3,6.69,2.88,13.3,4.92,19.71h352.32c-.1-1.03-.2-1.94-.32-2.66-.45-2.72-8.94-31.3-10.12-34.33-2.39-6.14-8.85-9.11-10.14-13.39-2.64-8.74.85-21.58-1.65-32.35-3.4-14.67-13.88-19.69-24.77-27.66,12.25-20.69-13.21-39.94-15.51-49.83-1.07-4.61,3.41-16.28,2.02-25.46-5.55-36.61-54.75-49.84-80.87-25,4.6-10.59-3.67-52.78-19.53-51.33-1.06.1-2.15.39-3.27.89-1.81.82-3.15,1.73-4.11,2.72-7.15,7.44,7.68,19.26,8.55,28.37.88,9.15-6.51,14.67-5.31,23.12,1.23,8.61,25.17,16.19,17.1,32.82-11.96-14.08-27.49-25.06-47.02-23.61-5.54.41-12.71,4.57-15.75,4.3-5.17-.45-22.96-18.41-35.29-12.08.64-18.59,30.1-12.78,35.39-18.19,2.59-2.65,3.36-10.12,6.42-14.5,4.7-6.74,9.25-10.23,16.27-14.47,3.44-.99,13.08,0,15.69-2.62,1.45-1.45,1.56-6.45,0-7.85-1.04-.93-9.13-7.3-10.46-7.85-8.64-2.12-33.25,14.98-38.39,21.16-2.29,2.75-3.28,9.11-4.47,9.87-2.19,1.39-8.57.13-12.66,1.68-10.95,4.15-18.85,9.52-24.83,19.7-9.02-6.23-12.93-14.97-25.54-18.87-10.55-3.26-22.02.44-25.56-.87-5.14-1.89-8.87-12.89-20.6-15.74-33.39-8.1-59.88,22.44-54.47,54.47,1.26,7.43,6.51,12.95,7.22,20.22-9.58-.35-18.78,3.78-25.1,10.71ZM976.56,766.33c-2.78-14.11,21.74-23.68,23.17-27.9,4.01-11.84-11.37-34.5,12.47-47.6,5.06-2.78,12.42-6.71,13.98.97,1.35,6.68,1.03,12.8,3.42,20.17,7.62,23.48,37.63,43.44,62,33.43l.03,20.92h-115.06ZM1112.54,766.33l-2.59-31.38c10.41,14.82,36.73,13.24,39.2,31.38h-36.61ZM1282.51,766.32h-18.29c1.68-19.74,16.45-21.22,18.29,0ZM1254.99,695.8c10.5,2.03,15.97,17.12,14.01,26.77-2.38,11.75-15.26,13.75-19.06,20.34-3.13,5.41-2.12,16.78-7.71,21.05-4.46,3.41-23.09,3.58-28.53,1.9-5.27-1.62-5.19-6.94-7.76-9.2-8.39-7.37-29.91,11.08-41.08-4.72,26-9.73,33.93-29.75,39.06-55.13,6.34-4.82,17.15,6.49,22.38,6.65,7.12.22,12.33-10.82,28.69-7.66ZM1179.94,620.6c2.8-13.73-5.9-32.5,12.92-36.75,14.29-3.22,27.85.55,34.11,14.57,6.61,14.8-6.85,26.43-4.26,35.32,1.64,5.62,13.78,9.14,17.64,16.56,6.98,13.38,4.04,27.47-12.14,29.27-3,.33-30.1-1.89-31.47-2.68-2.58-1.49-13.75-26.39-26.11-26.13-5.27-12.49,7.28-20.23,9.31-30.16ZM1095.49,617.22c17.21-16.1,47.08-7.93,52.52,15.55,2.21,9.54-1.7,22.72-.24,26.28,3.39,8.3,26.73,10.26,31.6,26.08,9.97,32.4-19.08,63.08-47.92,42.7-7.55-5.33-10.2-18.18-17.95-18.38-13.65-.35-21.85,31.14-52.49,12.99-17.87-10.59-12.89-30.32-13.84-41.86.33-.11.56-.3.56-.63,0-13.08,11.17-16.13,15.18-16.72,39.44-5.85,12.93-27.61,32.58-45.99ZM1040.2,622.65c2.4-.59,15.8-35.94,38.37-19.76l-14.49,37.83c-2.34,3.82-8.55,3.55-11.03,5.96-1.62,1.58-23.26,1.84-23.81,21.25-11.95-.23-26.01,5.18-34.37,9.46,10.57-16.58-13.01-28.27,2.57-48.39,14.17-18.29,29.59-3.1,42.76-6.35ZM956.44,551.22c22.27-7,22.78,16.39,29.73,18.68,5.71,1.88,13.95-2.31,20.46-2.52,19.62-.63,23.86,14.49,22.25,31.61-21.53-2.69-45.82,7.3-53.64,28.74-5.38,14.76,2.7,31.76-19.6,27.65-15.08-2.78-18.14-20.66-15.12-33.63,1.5-6.46,9.95-12.46,9.38-18.43-.47-4.9-7.96-10.51-9.38-16.64-3.44-14.86.14-30.48,15.93-35.45Z"/>
    <g>
      <path class="cls-1" d="M1078.28,517.38c10.54-17.81-11.38-34.39-13.36-42.9-.75-3.21,1.63-10.38,1.94-17.19h-17.06c.47,9.72-7.06,17.63-5.23,23.94,1.41,4.84,11.86,7.87,15.19,14.26,6.01,11.52,3.47,23.65-10.45,25.2-2.58.29-25.92-1.63-27.09-2.31-2.22-1.28-11.84-22.72-22.48-22.49-4.54-10.75,6.27-17.42,8.01-25.96.8-3.94.51-8.35.36-12.63h-15.31c-.07,1.63-.5,3.37-1.41,5.25-1.55-1.82-3.16-3.58-4.85-5.25h-67.07l-11.47,29.95c-2.01,3.29-7.36,3.05-9.49,5.13-1.39,1.36-20.03,1.58-20.5,18.3-10.29-.2-22.4,4.46-29.59,8.14,9.1-14.28-11.2-24.34,2.22-41.66,12.2-15.75,25.48-2.67,36.81-5.47,1.06-.26,4.62-8.41,10.46-14.4h-50.31c-7.21,4.22-13.07,10.5-16.08,18.76-4.63,12.71,2.32,27.34-16.87,23.8-12.98-2.39-15.61-17.78-13.02-28.96,1.1-4.74,6.55-9.2,7.82-13.61h-19.66c.04.25.08.5.1.75-10.34-.38-20.16,5.29-25.23,14.18-12.72,22.3-14.18,43.24-21.08,66.73-1.22,4.14-.14,11.38-1.33,13.31-.36.57-2.87,1.18-5.23,2.08,5.48,4.24,10.79,8.69,16.28,12.92,2.77-.57,5.32-1.18,7.2-2.39,2.95-1.9,5.59-8.92,10.25-12.26,2.46-1.77,4.73-2.96,6.84-3.74-.68-1.5-1.35-3.02-1.95-4.56-1.66-4.31-2.38-8.65-2.22-13.04-2.71.57-5.47,1.6-8.3,3.32,5.3-7.82-1.22-14.91.37-23.08,1.3-6.68,8.08-9.22,9.72-12.97,2.73-6.25-.32-15.27,6.81-20.21,2.95,24.22,22.06,46.48,48.37,36.01,3.44,10.52-8.04,16.51-18.02,18.91,4.58,4.27,9.99,7.81,14.68,11.95,1.28.03,2.64.19,4.11.54,2.35,3.29,3.5,6.22,3.79,8.92.53.97,1.03,1.97,1.44,3.04,2.92,7.56,3.22,15.62,3.51,23.6,5.46-4.61,12.04-7.96,12.71-9.94,3.45-10.19-9.79-29.7,10.74-40.98,4.35-2.39,10.69-5.78,12.03.84,1.16,5.75.88,11.02,2.94,17.37,6.09,18.76,28.78,34.9,48.78,30.23.27-6.02,1.18-12.09,1.36-18.14-5.78,2.59-13.03,2.86-23.1-3.11-15.39-9.12-11.1-26.1-11.91-36.04.29-.1.48-.26.48-.54,0-11.26,9.61-13.88,13.07-14.4,33.96-5.03,11.13-23.77,28.05-39.59,14.82-13.86,40.54-6.83,45.22,13.39,1.9,8.21-1.46,19.56-.21,22.62,2.92,7.15,23.01,8.83,27.2,22.45,2.72,8.83,2.06,17.51-.88,24.69,5.26,2.25,10.52,4.51,15.78,6.76,2.78-6.42,4.66-13.61,6.24-21.39,5.46-4.15,14.77,5.59,19.27,5.73,6.13.19,10.62-9.32,24.7-6.6,6.98,1.35,11.36,9.38,12.24,16.8,4.95-4.29,9.6-8.86,13.96-13.71-3.67-10.03-11.82-14.17-20.28-20.37Z"/>
      <path class="cls-1" d="M752.23,537.25c.16-.62.33-1.24.49-1.86-.38.08-.77.15-1.17.21-2.57.38-25.96-.68-27.16-1.32-2.27-1.2-12.66-22.27-23.28-21.66-4.93-10.58,5.63-17.63,7.06-26.24.9-5.38-.26-11.58-.32-17.15-5.76-.56-11.51-1.12-17.27-1.68,2.2,3.29,3.12,7.18.97,12.05-4.89-5.34-10.39-10.11-16.52-13.54-2.34-.22-4.68-.45-7.02-.67-8.35-.79-16.71-1.55-25.06-2.31-2.47,1.02-4.68,1.96-6.01,1.89-1.29-.07-3.55-1.37-6.35-3.03-5.69-.53-11.38-1.07-17.07-1.64-4.45-.44-8.91-.89-13.37-1.29,1.29,4.61,2.53,9.23,3.78,13.86,4.51-2.47,9.99-2.84,16.47,1.46l-11.28,33.01c-1.89,3.36-7.25,3.32-9.3,5.48-1.34,1.41-19.96,2.31-19.82,19.03-.79.01-1.59.06-2.39.13-.42,6.05-.62,12.09-.57,18.1.46.57.83,1.36,1.08,2.4,1.37,5.7,1.28,10.98,3.58,17.25,6.77,18.53,30.03,33.82,49.85,28.43.06-6.02.74-12.12.69-18.17-5.68,2.8-12.91,3.33-23.2-2.27-15.71-8.55-12.05-25.68-13.22-35.58.28-.11.47-.28.46-.56-.41-11.25,9.1-14.23,12.54-14.86,33.75-6.27,10.26-24.16,26.59-40.59,14.3-14.39,40.26-8.3,45.68,11.73,2.2,8.14-.75,19.6.62,22.61,3.18,7.03,23.32,7.99,28.01,21.44,3.04,8.72,2.7,17.42.02,24.71,5.34,2.06,10.67,4.12,16.01,6.18,2.54-6.52,4.16-13.77,5.45-21.61,4.44-3.64,11.94,2.36,16.9,4.39,1.1-6.5,2.7-12.8,4.13-18.33Z"/>
      <path class="cls-1" d="M1042.52,527.25c-.16-.62-.33-1.24-.49-1.86.38.08.77.15,1.17.21,2.57.38,25.96-.68,27.16-1.32,2.27-1.2,12.66-22.27,23.28-21.66,4.93-10.58-5.63-17.63-7.06-26.24-.9-5.38.26-11.58.32-17.15,5.76-.56,11.51-1.12,17.27-1.68-2.2,3.29-3.12,7.18-.97,12.05,4.89-5.34,10.39-10.11,16.52-13.54,2.34-.22,4.68-.45,7.02-.67,8.35-.79,16.71-1.55,25.06-2.31,2.47,1.02,4.68,1.96,6.01,1.89,1.29-.07,3.55-1.37,6.35-3.03,5.69-.53,11.38-1.07,17.07-1.64,4.45-.44,8.91-.89,13.37-1.29-1.29,4.61-2.53,9.23-3.78,13.86-4.51-2.47-9.99-2.84-16.47,1.46l11.28,33.01c1.89,3.36,7.25,3.32,9.3,5.48,1.34,1.41,19.96,2.31,19.82,19.03.79.01,1.59.06,2.39.13.42,6.05.62,12.09.57,18.1-.46.57-.83,1.36-1.08,2.4-1.37,5.7-1.28,10.98-3.58,17.25-6.77,18.53-30.03,33.82-49.85,28.43-.06-6.02-.74-12.12-.69-18.17,5.68,2.8,12.91,3.33,23.2-2.27,15.71-8.55,12.05-25.68,13.22-35.58-.28-.11-.47-.28-.46-.56.41-11.25-9.1-14.23-12.54-14.86-33.75-6.27-10.26-24.16-26.59-40.59-14.3-14.39-40.26-8.3-45.68,11.73-2.2,8.14.75,19.6-.62,22.61-3.18,7.03-23.32,7.99-28.01,21.44-3.04,8.72-2.7,17.42-.02,24.71-5.34,2.06-10.67,4.12-16.01,6.18-2.54-6.52-4.16-13.77-5.45-21.61-4.44-3.64-11.94,2.36-16.9,4.39-1.1-6.5-2.7-12.8-4.13-18.33Z"/>
    </g>
  </g>
  <path class="cls-1" d="M319.08,549.15c3.76-1.75-1.11.25,1.13-.52.8-.28,1.6-.51,2.42-.72,1-.26,2.02-.48,3.04-.64-.55.08-2.12.11.39,0,1.63-.08,3.25-.04,4.88.09,3.81.29-1.29-.33.93.14,1.21.26,2.41.54,3.59.89,5.45,1.62,11.7,5.64,16.02,9.85,6.11,5.95,9.5,10.79,12.97,19.03.6,1.43.46,1.1,1.12,3.26.58,1.91,1.06,3.86,1.44,5.82.91,4.68,1.21,9.42,1.34,14.18.6,21.05-2.48,42.33,2.68,63.05,4.09,16.45,15.54,30.99,30.43,39.11,16.44,8.97,37.68,9.92,51.2-4.85,4.69-5.12,5.48-12.92.45-18.2-4.54-4.77-13.48-5.61-18.2-.45-.64.7-1.31,1.36-1.99,2.03-.29.28-2.13,1.68-.78.72,1.54-1.1-4.54,2.03-1.11.76-1.29.48-2.63.74-3.96,1.04,2.68-.6-1.86-.13-2.95-.07-3.19.19,1.47.37-.41.01-.72-.14-1.43-.28-2.14-.46-1.64-.4-3.21-.95-4.79-1.52,2.52.91-1.22-.61-2.06-1.07-1.74-.95-3.35-2.09-5.02-3.14-3.17-2,1.09,1.02-.63-.42-.62-.52-1.22-1.05-1.82-1.6-1.34-1.23-2.62-2.53-3.83-3.89-.52-.58-3.09-3.93-1.78-2.06-1.15-1.63-2.19-3.36-3.11-5.13-.46-.88-.88-1.77-1.28-2.68-.81-1.86.55,1.69-.08-.23-.71-2.16-1.27-4.36-1.74-6.57-.95-4.43-1.42-8.83-1.63-13.35-.96-20.7,2.28-41.56-1.94-62.07-3.69-17.92-14.65-33.96-28.92-45.13-16.29-12.74-37.22-16.63-56.23-7.78-6.3,2.93-8.3,11.65-5.12,17.47,3.52,6.44,11.15,8.06,17.47,5.12h0Z"/>
  <path class="cls-1" d="M1458.62,276.8c-4.11.57,1.07-.39-1.23.17-.82.2-1.62.45-2.42.71-.98.33-1.95.69-2.9,1.12.51-.23,1.84-1.06-.33.21-1.41.82-2.75,1.74-4.05,2.72-3.04,2.31.9-.98-.71.63-.88.87-1.72,1.76-2.53,2.7-3.69,4.32-6.75,11.1-8.1,16.98-1.9,8.32-2.11,14.22-.55,23.02.27,1.53.21,1.17.83,3.35.55,1.92,1.21,3.81,1.95,5.67,1.78,4.42,4.1,8.56,6.58,12.63,10.93,17.99,25.09,34.18,32.02,54.38,5.5,16.03,3.8,34.46-4.29,49.37-8.93,16.46-26.23,28.81-45.62,23.76-6.72-1.75-11.62-7.87-10.27-15.03,1.22-6.47,8.27-12.03,15.03-10.27.92.24,1.84.43,2.78.62.39.08,2.71.25,1.05.18-1.89-.08,4.91-.76,1.34.04,1.34-.3,2.61-.8,3.89-1.28-2.58.96,1.49-1.12,2.44-1.66,2.78-1.58-1.03,1.11.35-.22.53-.5,1.04-1.01,1.54-1.55,1.16-1.23,2.18-2.54,3.19-3.88-1.62,2.14.69-1.18,1.14-2.02.95-1.74,1.67-3.57,2.5-5.37,1.57-3.4-.36,1.45.3-.7.24-.77.46-1.55.66-2.33.46-1.76.83-3.55,1.1-5.35.12-.77.46-4.98.38-2.7.08-2,.01-4.01-.18-6-.09-.99-.23-1.97-.38-2.94-.33-2,.46,1.71-.06-.23-.58-2.19-1.3-4.34-2.11-6.47-1.61-4.24-3.61-8.19-5.89-12.09-10.45-17.9-24.5-33.65-32.11-53.16-6.64-17.05-6.16-36.47-.25-53.6,6.75-19.54,22.21-34.19,42.97-37.09,6.89-.96,13.3,5.27,13.79,11.88.55,7.32-4.98,12.82-11.88,13.79h0Z"/>
  <path class="cls-1" d="M396.81,400.13c4.68-2.36.83-.39-.3.4-1.36.96-3.8,3.84-.4.08-1.6,1.77-3.14,3.43-4.45,5.44.69-1.1,1.39-2.2,2.08-3.29-1.69,2.7-2.98,5.57-3.92,8.61.38-1.24.76-2.48,1.14-3.73-.85,2.93-1.2,5.81-1.51,8.83.54-5.35.07-.58.2,1.01.12,1.39.4,2.74.6,4.11-.65-4.61-.56-2.3-.19-1.04.19.66.41,1.31.64,1.96.27.74.57,1.46.89,2.17.52,1.14,1.81,2.58-.67-1.2.76,1.15,1.41,2.34,2.26,3.43s2.93,2.61-.61-.54c.6.53,1.14,1.12,1.74,1.65,5.69,5.03,7.17,14.59,1.77,20.47-5.22,5.68-14.38,7.16-20.47,1.77-11.76-10.4-16.56-26.08-14.57-41.45,1.01-7.82,4.08-14.96,8.39-21.48,4.31-6.52,10.41-10.98,17.29-14.46,3.1-1.57,8.1-.96,11.11.42,3.24,1.49,6.45,4.7,7.56,8.15,1.16,3.58,1.35,7.67-.42,11.11-1.87,3.64-4.52,5.73-8.15,7.56h0Z"/>
  <path class="cls-1" d="M1537.48,318.94c1.66,4.97.31.87.07-.5-.29-1.64.01-5.41-.23-.33.11-2.38.19-4.65.67-7-.28,1.27-.56,2.54-.84,3.8.7-3.11,1.81-6.05,3.28-8.87-.61,1.15-1.21,2.3-1.82,3.45,1.46-2.68,3.24-4.97,5.15-7.33-3.38,4.17-.36.46.86-.57,1.06-.9,2.21-1.66,3.32-2.5-3.71,2.82-2.02,1.24-.87.6.6-.33,1.21-.65,1.84-.94.71-.33,1.43-.64,2.16-.91,1.18-.44,3.1-.55-1.32.38,1.35-.28,2.65-.66,4.02-.85,1.43-.19,3.92.21-.81-.05.8.04,1.6.01,2.4.06,7.58.44,15.37-5.3,15.68-13.28.3-7.7-5.16-15.21-13.28-15.68-15.68-.9-30.13,6.84-39.55,19.15-4.79,6.26-7.64,13.49-9.18,21.15-1.54,7.66-.36,15.13,2.08,22.44,1.1,3.3,5.07,6.39,8.18,7.53,3.35,1.23,7.89,1.21,11.11-.46,3.34-1.72,6.36-4.49,7.53-8.18,1.24-3.9.83-7.25-.46-11.11h0Z"/>
  <g>
    <path class="cls-1" d="M114.73,1428.18h1593.19c18.7,0,18.73-29.06,0-29.06H114.73c-18.7,0-18.73,29.06,0,29.06h0Z"/>
    <g>
      <g>
        <path class="cls-1" d="M102.31,1486.42c11.88-21.99,23.76-43.97,35.64-65.96,1.71-3.17-5.31-4.54-7-1.4-11.88,21.99-23.76,43.97-35.64,65.96-1.71,3.17,5.31,4.54,7,1.4h0Z"/>
        <path class="cls-1" d="M137.34,1486.42c11.88-21.99,23.76-43.97,35.64-65.96,1.71-3.17-5.31-4.54-7-1.4-11.88,21.99-23.76,43.97-35.64,65.96-1.71,3.17,5.31,4.54,7,1.4h0Z"/>
        <path class="cls-1" d="M172.36,1486.42c11.88-21.99,23.76-43.97,35.64-65.96,1.71-3.17-5.31-4.54-7-1.4-11.88,21.99-23.76,43.97-35.64,65.96-1.71,3.17,5.31,4.54,7,1.4h0Z"/>
        <path class="cls-1" d="M207.38,1486.42c11.88-21.99,23.76-43.97,35.64-65.96,1.71-3.17-5.31-4.54-7-1.4-11.88,21.99-23.76,43.97-35.64,65.96-1.71,3.17,5.31,4.54,7,1.4h0Z"/>
        <path class="cls-1" d="M242.4,1486.42c11.88-21.99,23.76-43.97,35.64-65.96,1.71-3.17-5.31-4.54-7-1.4-11.88,21.99-23.76,43.97-35.64,65.96-1.71,3.17,5.31,4.54,7,1.4h0Z"/>
        <path class="cls-1" d="M277.43,1486.42c11.88-21.99,23.76-43.97,35.64-65.96,1.71-3.17-5.31-4.54-7-1.4-11.88,21.99-23.76,43.97-35.64,65.96-1.71,3.17,5.31,4.54,7,1.4h0Z"/>
        <path class="cls-1" d="M312.45,1486.42c11.88-21.99,23.76-43.97,35.64-65.96,1.71-3.17-5.31-4.54-7-1.4-11.88,21.99-23.76,43.97-35.64,65.96-1.71,3.17,5.31,4.54,7,1.4h0Z"/>
        <path class="cls-1" d="M347.47,1486.42c11.88-21.99,23.76-43.97,35.64-65.96,1.71-3.17-5.31-4.54-7-1.4-11.88,21.99-23.76,43.97-35.64,65.96-1.71,3.17,5.31,4.54,7,1.4h0Z"/>
        <path class="cls-1" d="M382.49,1486.42c11.88-21.99,23.76-43.97,35.64-65.96,1.71-3.17-5.31-4.54-7-1.4-11.88,21.99-23.76,43.97-35.64,65.96-1.71,3.17,5.31,4.54,7,1.4h0Z"/>
        <path class="cls-1" d="M417.52,1486.42c11.88-21.99,23.76-43.97,35.64-65.96,1.71-3.17-5.31-4.54-7-1.4-11.88,21.99-23.76,43.97-35.64,65.96-1.71,3.17,5.31,4.54,7,1.4h0Z"/>
        <path class="cls-1" d="M452.54,1486.42c11.88-21.99,23.76-43.97,35.64-65.96,1.71-3.17-5.31-4.54-7-1.4-11.88,21.99-23.76,43.97-35.64,65.96-1.71,3.17,5.31,4.54,7,1.4h0Z"/>
        <path class="cls-1" d="M487.56,1486.42c11.88-21.99,23.76-43.97,35.64-65.96,1.71-3.17-5.31-4.54-7-1.4-11.88,21.99-23.76,43.97-35.64,65.96-1.71,3.17,5.31,4.54,7,1.4h0Z"/>
        <path class="cls-1" d="M522.58,1486.42c11.88-21.99,23.76-43.97,35.64-65.96,1.71-3.17-5.31-4.54-7-1.4-11.88,21.99-23.76,43.97-35.64,65.96-1.71,3.17,5.31,4.54,7,1.4h0Z"/>
        <path class="cls-1" d="M557.61,1486.42c11.88-21.99,23.76-43.97,35.64-65.96,1.71-3.17-5.31-4.54-7-1.4-11.88,21.99-23.76,43.97-35.64,65.96-1.71,3.17,5.31,4.54,7,1.4h0Z"/>
        <path class="cls-1" d="M592.63,1486.42c11.88-21.99,23.76-43.97,35.64-65.96,1.71-3.17-5.31-4.54-7-1.4-11.88,21.99-23.76,43.97-35.64,65.96-1.71,3.17,5.31,4.54,7,1.4h0Z"/>
        <path class="cls-1" d="M627.65,1486.42c11.88-21.99,23.76-43.97,35.64-65.96,1.71-3.17-5.31-4.54-7-1.4-11.88,21.99-23.76,43.97-35.64,65.96-1.71,3.17,5.31,4.54,7,1.4h0Z"/>
        <path class="cls-1" d="M662.68,1486.42c11.88-21.99,23.76-43.97,35.64-65.96,1.71-3.17-5.31-4.54-7-1.4-11.88,21.99-23.76,43.97-35.64,65.96-1.71,3.17,5.31,4.54,7,1.4h0Z"/>
        <path class="cls-1" d="M697.7,1486.42c11.88-21.99,23.76-43.97,35.64-65.96,1.71-3.17-5.31-4.54-7-1.4-11.88,21.99-23.76,43.97-35.64,65.96-1.71,3.17,5.31,4.54,7,1.4h0Z"/>
        <path class="cls-1" d="M732.72,1486.42c11.88-21.99,23.76-43.97,35.64-65.96,1.71-3.17-5.31-4.54-7-1.4-11.88,21.99-23.76,43.97-35.64,65.96-1.71,3.17,5.31,4.54,7,1.4h0Z"/>
        <path class="cls-1" d="M767.74,1486.42c11.88-21.99,23.76-43.97,35.64-65.96,1.71-3.17-5.31-4.54-7-1.4-11.88,21.99-23.76,43.97-35.64,65.96-1.71,3.17,5.31,4.54,7,1.4h0Z"/>
        <path class="cls-1" d="M802.77,1486.42c11.88-21.99,23.76-43.97,35.64-65.96,1.71-3.17-5.31-4.54-7-1.4-11.88,21.99-23.76,43.97-35.64,65.96-1.71,3.17,5.31,4.54,7,1.4h0Z"/>
        <path class="cls-1" d="M837.79,1486.42c11.88-21.99,23.76-43.97,35.64-65.96,1.71-3.17-5.31-4.54-7-1.4-11.88,21.99-23.76,43.97-35.64,65.96-1.71,3.17,5.31,4.54,7,1.4h0Z"/>
        <path class="cls-1" d="M872.81,1486.42c11.88-21.99,23.76-43.97,35.64-65.96,1.71-3.17-5.31-4.54-7-1.4-11.88,21.99-23.76,43.97-35.64,65.96-1.71,3.17,5.31,4.54,7,1.4h0Z"/>
      </g>
      <g>
        <path class="cls-1" d="M905.9,1486.42c11.88-21.99,23.76-43.97,35.64-65.96,1.71-3.17-5.31-4.54-7-1.4-11.88,21.99-23.76,43.97-35.64,65.96-1.71,3.17,5.31,4.54,7,1.4h0Z"/>
        <path class="cls-1" d="M940.93,1486.42c11.88-21.99,23.76-43.97,35.64-65.96,1.71-3.17-5.31-4.54-7-1.4-11.88,21.99-23.76,43.97-35.64,65.96-1.71,3.17,5.31,4.54,7,1.4h0Z"/>
        <path class="cls-1" d="M975.95,1486.42c11.88-21.99,23.76-43.97,35.64-65.96,1.71-3.17-5.31-4.54-7-1.4-11.88,21.99-23.76,43.97-35.64,65.96-1.71,3.17,5.31,4.54,7,1.4h0Z"/>
        <path class="cls-1" d="M1010.97,1486.42c11.88-21.99,23.76-43.97,35.64-65.96,1.71-3.17-5.31-4.54-7-1.4-11.88,21.99-23.76,43.97-35.64,65.96-1.71,3.17,5.31,4.54,7,1.4h0Z"/>
        <path class="cls-1" d="M1045.99,1486.42c11.88-21.99,23.76-43.97,35.64-65.96,1.71-3.17-5.31-4.54-7-1.4-11.88,21.99-23.76,43.97-35.64,65.96-1.71,3.17,5.31,4.54,7,1.4h0Z"/>
        <path class="cls-1" d="M1081.02,1486.42c11.88-21.99,23.76-43.97,35.64-65.96,1.71-3.17-5.31-4.54-7-1.4-11.88,21.99-23.76,43.97-35.64,65.96-1.71,3.17,5.31,4.54,7,1.4h0Z"/>
        <path class="cls-1" d="M1116.04,1486.42c11.88-21.99,23.76-43.97,35.64-65.96,1.71-3.17-5.31-4.54-7-1.4-11.88,21.99-23.76,43.97-35.64,65.96-1.71,3.17,5.31,4.54,7,1.4h0Z"/>
        <path class="cls-1" d="M1151.06,1486.42c11.88-21.99,23.76-43.97,35.64-65.96,1.71-3.17-5.31-4.54-7-1.4-11.88,21.99-23.76,43.97-35.64,65.96-1.71,3.17,5.31,4.54,7,1.4h0Z"/>
        <path class="cls-1" d="M1186.08,1486.42c11.88-21.99,23.76-43.97,35.64-65.96,1.71-3.17-5.31-4.54-7-1.4-11.88,21.99-23.76,43.97-35.64,65.96-1.71,3.17,5.31,4.54,7,1.4h0Z"/>
        <path class="cls-1" d="M1221.11,1486.42c11.88-21.99,23.76-43.97,35.64-65.96,1.71-3.17-5.31-4.54-7-1.4-11.88,21.99-23.76,43.97-35.64,65.96-1.71,3.17,5.31,4.54,7,1.4h0Z"/>
        <path class="cls-1" d="M1256.13,1486.42c11.88-21.99,23.76-43.97,35.64-65.96,1.71-3.17-5.31-4.54-7-1.4-11.88,21.99-23.76,43.97-35.64,65.96-1.71,3.17,5.31,4.54,7,1.4h0Z"/>
        <path class="cls-1" d="M1291.15,1486.42c11.88-21.99,23.76-43.97,35.64-65.96,1.71-3.17-5.31-4.54-7-1.4-11.88,21.99-23.76,43.97-35.64,65.96-1.71,3.17,5.31,4.54,7,1.4h0Z"/>
        <path class="cls-1" d="M1326.17,1486.42c11.88-21.99,23.76-43.97,35.64-65.96,1.71-3.17-5.31-4.54-7-1.4-11.88,21.99-23.76,43.97-35.64,65.96-1.71,3.17,5.31,4.54,7,1.4h0Z"/>
        <path class="cls-1" d="M1361.2,1486.42c11.88-21.99,23.76-43.97,35.64-65.96,1.71-3.17-5.31-4.54-7-1.4-11.88,21.99-23.76,43.97-35.64,65.96-1.71,3.17,5.31,4.54,7,1.4h0Z"/>
        <path class="cls-1" d="M1396.22,1486.42c11.88-21.99,23.76-43.97,35.64-65.96,1.71-3.17-5.31-4.54-7-1.4-11.88,21.99-23.76,43.97-35.64,65.96-1.71,3.17,5.31,4.54,7,1.4h0Z"/>
        <path class="cls-1" d="M1431.24,1486.42c11.88-21.99,23.76-43.97,35.64-65.96,1.71-3.17-5.31-4.54-7-1.4-11.88,21.99-23.76,43.97-35.64,65.96-1.71,3.17,5.31,4.54,7,1.4h0Z"/>
        <path class="cls-1" d="M1466.27,1486.42c11.88-21.99,23.76-43.97,35.64-65.96,1.71-3.17-5.31-4.54-7-1.4-11.88,21.99-23.76,43.97-35.64,65.96-1.71,3.17,5.31,4.54,7,1.4h0Z"/>
        <path class="cls-1" d="M1501.29,1486.42c11.88-21.99,23.76-43.97,35.64-65.96,1.71-3.17-5.31-4.54-7-1.4-11.88,21.99-23.76,43.97-35.64,65.96-1.71,3.17,5.31,4.54,7,1.4h0Z"/>
        <path class="cls-1" d="M1536.31,1486.42c11.88-21.99,23.76-43.97,35.64-65.96,1.71-3.17-5.31-4.54-7-1.4-11.88,21.99-23.76,43.97-35.64,65.96-1.71,3.17,5.31,4.54,7,1.4h0Z"/>
        <path class="cls-1" d="M1571.33,1486.42c11.88-21.99,23.76-43.97,35.64-65.96,1.71-3.17-5.31-4.54-7-1.4-11.88,21.99-23.76,43.97-35.64,65.96-1.71,3.17,5.31,4.54,7,1.4h0Z"/>
        <path class="cls-1" d="M1606.36,1486.42c11.88-21.99,23.76-43.97,35.64-65.96,1.71-3.17-5.31-4.54-7-1.4-11.88,21.99-23.76,43.97-35.64,65.96-1.71,3.17,5.31,4.54,7,1.4h0Z"/>
        <path class="cls-1" d="M1641.38,1486.42c11.88-21.99,23.76-43.97,35.64-65.96,1.71-3.17-5.31-4.54-7-1.4-11.88,21.99-23.76,43.97-35.64,65.96-1.71,3.17,5.31,4.54,7,1.4h0Z"/>
        <path class="cls-1" d="M1676.4,1486.42c11.88-21.99,23.76-43.97,35.64-65.96,1.71-3.17-5.31-4.54-7-1.4-11.88,21.99-23.76,43.97-35.64,65.96-1.71,3.17,5.31,4.54,7,1.4h0Z"/>
      </g>
    </g>
  </g>
  <path class="cls-1" d="M1539.91,644.15c-2.31-.11-5.55.56-8.42,1.15-.98.2-2.25.46-2.96.57-.75-.52-2.11-1.97-2.95-2.87-1.39-1.48-2.82-3-4.3-3.97-13.27-8.7-29.38-9.28-43.1-1.56-12.78,7.19-20.76,19.91-20.32,32.41.38,10.87,7.01,20.27,18.77,26.78-4.93,12-4.22,23.1,2.08,31.53,7.5,10.03,21.88,14.89,36.64,12.39,8.93-1.51,16.74-5.58,22.69-11.56,4.54-4.57,8.01-10.25,10.07-16.78.68-2.17.71-5.1.73-7.93,0-.86.02-2.04.07-2.81.8-.5,2.16-1.23,3.13-1.76,2.14-1.16,4.17-2.26,5.44-3.3,10.81-8.83,15.18-21.34,11.44-32.63-3.81-11.48-14.93-19-29.03-19.64ZM1493.19,698.18c1.92-2.9,3.57-5.41,3.1-8.23-.53-3.15-3.65-4.34-7.98-6-4.39-1.68-10.41-3.99-12.78-7.98-4.45-7.47-1.62-14.5,3.38-19.53,1.18-1.19,2.48-2.26,3.84-3.21,9.86-6.86,24.73-8.71,32.86,1.37.3.37.68,1.25,1.02,2.03.93,2.16,2.2,5.11,5.3,6.25,3.18,1.16,6.81-.27,10.32-1.66,1.39-.55,2.83-1.12,3.65-1.25,9.02-1.44,15.34,2.62,17.6,7.27,2.51,5.17.65,11.33-4.96,16.55-2,1.84-4.57,2.82-7.3,3.85-2.61.99-5.32,2.01-7.86,3.86l-1.96,1.42.57,2.35c2.46,10.11,2.37,15.8-5.29,23.22-5.48,5.33-17.63,8.65-24.54,6.71-3.73-1.05-10.34-3.69-12.65-9.55-2.94-7.47.73-13.02,3.67-17.47Z"/>
  <path class="cls-1" d="M1594.28,1170.22c.85-2.97.99-7.41,1.12-11.32.04-1.34.1-3.07.18-4.03.92-.82,3.22-2.13,4.66-2.95,2.35-1.35,4.79-2.74,6.51-4.36,15.46-14.58,21.23-35.38,15.44-55.65-5.39-18.88-19.48-33.23-35.89-36.55-14.27-2.89-28.59,2.82-40.72,16.12-14.1-10.15-28.77-12.69-41.71-7.1-15.39,6.65-26.2,23.87-27.53,43.87-.81,12.1,2.06,23.53,8,33.15,4.53,7.34,10.86,13.62,18.72,18.34,2.61,1.57,6.42,2.51,10.1,3.42,1.12.28,2.65.66,3.64.96.4,1.2.94,3.19,1.32,4.63.85,3.15,1.65,6.14,2.61,8.12,8.14,16.83,23.07,26.42,38.94,25.05,16.13-1.39,29.4-13.53,34.61-31.69ZM1538.45,1092.56c3.19,3.4,5.94,6.34,9.75,6.6,4.26.29,6.79-3.4,10.3-8.52,3.56-5.2,8.43-12.31,14.37-14.16,11.11-3.47,19.39,2.4,24.38,10.48,1.18,1.91,2.18,3.94,2.98,6,5.86,14.98,3.65,34.92-12.01,42.37-.57.27-1.84.49-2.96.69-3.1.54-7.34,1.28-9.79,4.96-2.5,3.78-1.77,8.95-1.06,13.96.29,1.99.58,4.04.49,5.14-.93,12.2-8.18,19.17-14.95,20.66-7.52,1.66-14.96-2.68-20.01-11.61-1.78-3.17-2.24-6.83-2.74-10.7-.47-3.71-.96-7.55-2.58-11.43l-1.25-2.99h-3.24c-13.93.07-21.31-1.81-28.6-14.1-5.23-8.79-5.78-25.65-1.1-34.05,2.53-4.54,8.02-12.32,16.38-13.5,10.64-1.5,16.73,5,21.62,10.22Z"/>
  <path class="cls-1" d="M1430.29,1276.66c-2.37,1.31-5.21,3.98-7.72,6.33-.86.8-1.97,1.85-2.62,2.39-1.07-.06-3.32-.67-4.72-1.06-2.3-.63-4.67-1.27-6.75-1.33-18.64-.55-35.13,8.78-44.11,24.95-8.37,15.06-8.53,32.71-.41,44.95,7.06,10.65,19.49,15.99,35.27,15.27,2.45,15.05,9.98,25.73,21.48,30.29,13.68,5.43,31.07,1.45,44.31-10.14,8.01-7.01,13.33-15.88,15.61-25.54,1.74-7.37,1.71-15.19-.24-22.99-.65-2.59-2.43-5.54-4.14-8.39-.52-.86-1.24-2.05-1.66-2.86.5-1,1.4-2.56,2.05-3.69,1.43-2.48,2.79-4.83,3.42-6.66,5.39-15.5,2.07-30.71-8.62-39.71-10.87-9.15-26.64-9.84-41.15-1.81ZM1416.74,1359.49c.13-4.09.25-7.62-1.96-10.15-2.46-2.83-6.33-2.1-11.68-1.11-5.43,1.02-12.87,2.41-17.71-.13-9.05-4.74-10.54-13.52-8.62-21.64.45-1.92,1.09-3.79,1.87-5.57,5.66-12.94,19.41-23.94,33.74-18.84.53.19,1.45.84,2.27,1.41,2.26,1.59,5.35,3.76,9.15,2.99,3.9-.79,6.65-4.46,9.32-8.01,1.06-1.41,2.15-2.87,2.89-3.5,8.15-6.99,16.97-6.82,22.1-3.54,5.7,3.64,7.62,10.95,5.21,19.62-.87,3.07-2.85,5.63-4.94,8.34-2.01,2.6-4.09,5.28-5.49,8.7l-1.08,2.63,2.02,2c8.68,8.61,12.09,14.36,8.99,26.51-2.21,8.7-12.33,19.51-20.45,21.81-4.39,1.25-12.62,2.67-18.54-1.78-7.53-5.67-7.28-13.48-7.07-19.76Z"/>
  <path class="cls-1" d="M361.7,1343.77c-1.23-3.09-4.04-6.95-6.51-10.36-.85-1.17-1.94-2.68-2.5-3.55.24-1.3,1.33-3.93,2.01-5.58,1.11-2.69,2.26-5.48,2.66-8,3.53-22.57-5.27-44.04-23.54-57.45-17.02-12.49-38.44-15.4-54.57-7.4-14.02,6.95-22.43,21.23-23.97,40.51-18.66.66-32.8,8.17-40.11,21.45-8.7,15.79-6.54,37.54,5.51,55.41,7.29,10.82,17.25,18.64,28.64,22.89,8.69,3.25,18.2,4.41,27.98,3.25,3.25-.39,7.11-2.1,10.84-3.75,1.13-.5,2.68-1.19,3.73-1.58,1.13.76,2.9,2.1,4.17,3.06,2.8,2.12,5.44,4.13,7.56,5.18,18,8.94,37.01,7.24,49.58-4.37,12.79-11.81,16.06-30.86,8.53-49.73ZM263.11,1314.58c4.95.79,9.22,1.47,12.63-.82,3.81-2.56,3.53-7.37,3.14-14.02-.4-6.76-.95-16.01,2.88-21.5,7.16-10.27,18.06-10.73,27.62-7.16,2.26.84,4.44,1.91,6.48,3.13,14.85,8.86,26.11,27.26,17.71,43.9-.31.61-1.24,1.63-2.06,2.54-2.28,2.5-5.39,5.92-5.05,10.66.36,4.86,4.4,8.77,8.3,12.55,1.55,1.5,3.15,3.05,3.8,4.04,7.24,10.98,5.68,21.68.91,27.4-5.3,6.36-14.48,7.58-24.65,3.31-3.6-1.53-6.41-4.32-9.38-7.29-2.85-2.84-5.79-5.78-9.72-8.01l-3.03-1.72-2.75,2.15c-11.8,9.22-19.31,12.49-33.6,6.85-10.24-4.02-21.81-17.99-23.37-28.2-.84-5.52-1.3-15.75,5.02-22.26,8.05-8.28,17.5-6.77,25.1-5.56Z"/>
  <path class="cls-1" d="M1695.7,1370.45c-.7-2.14-2.43-4.87-3.95-7.28-.52-.82-1.2-1.89-1.54-2.5.22-.87,1.07-2.6,1.6-3.68.87-1.77,1.77-3.6,2.14-5.29,3.35-15.09-1.67-29.98-13.44-39.82-10.96-9.17-25.3-12.05-36.54-7.34-9.77,4.09-16.06,13.38-17.93,26.34-12.64-.36-22.51,4.11-28.02,12.77-6.55,10.29-6.03,25.08,1.34,37.66,4.46,7.62,10.85,13.33,18.36,16.69,5.73,2.57,12.1,3.76,18.76,3.39,2.21-.12,4.89-1.11,7.48-2.06.79-.29,1.86-.69,2.59-.91.73.56,1.87,1.54,2.69,2.25,1.8,1.55,3.5,3.02,4.89,3.82,11.78,6.81,24.69,6.48,33.68-.82,9.15-7.43,12.17-20.16,7.89-33.22ZM1630.36,1346.49c3.31.75,6.16,1.39,8.57-.01,2.69-1.56,2.7-4.83,2.72-9.34.02-4.58.05-10.86,2.87-14.4,5.27-6.63,12.66-6.47,18.96-3.65,1.49.67,2.92,1.48,4.25,2.39,9.65,6.63,16.46,19.54,10.08,30.42-.23.4-.91,1.05-1.5,1.63-1.65,1.59-3.9,3.77-3.87,6.99.03,3.3,2.59,6.11,5.07,8.84.98,1.08,2,2.2,2.4,2.89,4.42,7.73,2.9,14.89-.56,18.55-3.85,4.07-10.11,4.5-16.79,1.18-2.37-1.18-4.14-3.2-6.02-5.33-1.8-2.04-3.66-4.15-6.22-5.83l-1.97-1.29-1.95,1.33c-8.37,5.72-13.58,7.61-22.99,3.18-6.74-3.15-13.96-13.09-14.57-20.05-.33-3.77-.2-10.7,4.35-14.82,5.79-5.25,12.11-3.82,17.19-2.68Z"/>
  <path class="cls-1" d="M436.11,1363.3c-.7-2.14-2.43-4.87-3.95-7.28-.52-.82-1.2-1.89-1.54-2.5.22-.87,1.07-2.6,1.6-3.68.87-1.77,1.77-3.6,2.14-5.29,3.35-15.09-1.67-29.98-13.44-39.82-10.96-9.17-25.3-12.05-36.54-7.34-9.77,4.09-16.06,13.38-17.93,26.34-12.64-.36-22.51,4.11-28.02,12.77-.12.2-.23.4-.35.6.47.11.96.3,1.45.59,4.41,2.57,7.88,6.03,10.53,10.05.67-2.09,1.76-4.11,3.52-5.71,5.79-5.25,12.11-3.82,17.19-2.68,3.31.75,6.16,1.39,8.57-.01,2.69-1.56,2.7-4.83,2.72-9.34.02-4.58.05-10.86,2.87-14.4,5.27-6.63,12.66-6.47,18.96-3.65,1.49.67,2.92,1.48,4.25,2.39,9.65,6.63,16.46,19.54,10.08,30.42-.23.4-.91,1.05-1.5,1.63-1.65,1.59-3.9,3.77-3.87,6.99.04,3.3,2.59,6.11,5.07,8.84.98,1.08,2,2.2,2.4,2.89,4.42,7.73,2.9,14.89-.56,18.55-3.85,4.07-10.11,4.5-16.79,1.18-2.37-1.18-4.14-3.2-6.02-5.33-1.8-2.04-3.66-4.15-6.22-5.83l-1.97-1.29-1.95,1.33c-8.37,5.72-13.58,7.61-22.99,3.18-2.33-1.09-4.7-2.99-6.85-5.29.14,4.38-.22,8.75-.99,12.87-.35,1.86-1.72,2.96-3.32,3.37,1.75,1.15,3.58,2.16,5.49,3.01,5.73,2.57,12.1,3.76,18.76,3.4,2.21-.12,4.89-1.11,7.48-2.06.79-.29,1.86-.69,2.59-.91.73.56,1.87,1.54,2.69,2.25,1.8,1.55,3.5,3.02,4.89,3.82,11.78,6.81,24.69,6.48,33.68-.82,9.15-7.43,12.17-20.16,7.89-33.22Z"/>
</svg>