<?xml version="1.0" encoding="UTF-8"?>
<svg id="Camada_1" data-name="Camada 1" xmlns="http://www.w3.org/2000/svg" viewBox="0 0 1817 1707">
  <defs>
    <style>
      .cls-1 {
        fill: #1e1e1e;
      }
    </style>
  </defs>
  <g>
    <path class="cls-1" d="M1385.21,848.92c-22.33-.98-85.95,37.05-89.2,33.53-8.96-9.7,23.27-27.98,29.02-36.31,14.98-21.72,13.72-53.16-4.74-72.72-10.44-11.06-25-12.63-36.41-18.58h-52.74c.64.57,1.28,1.14,1.9,1.73h-653.74c.56-.59,1.15-1.15,1.72-1.73h-52.17c-8.11,4.69-19.75,4.94-29.52,11.36-26.09,17.15-31.27,52.88-16.24,79.31,7.38,12.98,43.68,25.66,33.22,36.94-3.25,3.5-68.51-34.48-89.13-33.62-49.4,2.08-78.84,59.98-49.04,101.62,21.62,30.2,132.58,61.54,137.42,75.65,9.12,86.16-10.11,189.99,2.04,273.98,10.41,71.95,82.43,118.25,151.09,120.09,155.48-9.87,325.84,12.6,479.52-.26,78.24-6.55,140.38-57.43,147.69-138.02,7.42-81.81-6-172.96.85-255.8,4.11-11.93,107.24-49.07,127.61-66.09,42.46-35.48,13.52-108.79-39.16-111.09ZM513.95,984.13c-25.98-21.25-77.03-29.37-101.17-48.91-20.16-16.32-10.08-49.58,18.7-48.28,4.55.21,81.74,31.1,84.21,34.93,3.57,5.54.61,51.63-1.73,62.26ZM1257.25,1301.35c0,28.59-59.35,79.01-90.01,79.48-165.08-10.5-350.41,15.42-513.09.63-32.72-2.97-65.42-19.34-83.73-47.02-4.92-7.44-20.18-40.99-20.18-47.61v-414.04h707.01v428.56ZM1288.72,834.05h-765.12c-20.85-5.9-13.28-49.1,14.45-43.58l743.65,2.18c30.26,9.29,14.56,41.4,7.02,41.4ZM1296.03,984.16c2.66-12.97-4.23-54.24.75-62.18,2.19-3.5,70.84-32.9,75.47-33.79,8.45-1.63,23.03-.97,29.11,5.13,42.31,42.4-85.75,73.96-105.32,90.84Z"/>
    <path class="cls-1" d="M509.25,610.05l791.62-39.19c7.56-8.19,19.08-16.79,22.13-21.72,13.89-22.43,11.08-53.77-8.33-72.39-12.63-12.12-30.15-11.33-42.41-19.49-9.64-6.42-13.93-19.05-22.78-25.86-57.6-44.3-131.57-65.87-202.62-77.23-12.38-1.98-65.6-3.9-68.66-5.8-5.7-3.54-8.23-26.05-5.41-30.95,1.4-2.42,39.1-10.73,49.97-23.98,33-40.22-28.61-65.14-59.94-70.94-47.33-8.75-192.36-5.36-213.61,47.28-18.36,45.48,53.31,49.5,57.83,55.87,1.58,2.22,3.44,31.96,2.33,33.19-1.04,1.14-23.5.69-30.83,2.12-74.31,14.46-167.79,45.06-223.49,97.86-10.72,10.16-23.29,32.04-30.12,37.4-7.82,6.15-20.47,6.51-30.57,13.89-25.21,18.42-28.62,54.36-12.3,80.02,4.47,7.02,17.88,13.5,27.19,19.91ZM786.07,279.96c61.5-30.1,137.86-31.26,202.99-12.39-11.71,16.38-49.16,20.69-68.96,22.95-41.36,4.71-95.64,5.24-134.03-10.56ZM938.5,323.35l1.2,24.18-91.9,4.55-1.2-24.18,91.9-4.55ZM856.49,385.36c115.81-11.45,279.92.46,370.19,78.87l-652.94,32.32c62.47-72.83,189.58-101.99,282.75-111.2ZM534.23,532.45l742.85-34.59c30.68,7.79,16.59,40.63,9.06,41l-764.18,37.83c-21.12-4.86-15.69-48.39,12.27-44.24Z"/>
    <g>
      <path class="cls-1" d="M673.7,1368.7c-27.06-4.3-54.12-8.6-81.18-12.9-3.9-.62-4.23,5.42-.38,6.04,27.06,4.3,54.12,8.6,81.18,12.9,3.9.62,4.23-5.42.38-6.04h0Z"/>
      <path class="cls-1" d="M667.6,1340.23c-27.06-4.3-54.12-8.6-81.18-12.9-3.9-.62-4.23,5.42-.38,6.04,27.06,4.3,54.12,8.6,81.18,12.9,3.9.62,4.23-5.42.38-6.04h0Z"/>
      <path class="cls-1" d="M661.49,1311.76c-27.06-4.3-54.12-8.6-81.18-12.9-3.9-.62-4.23,5.42-.38,6.04,27.06,4.3,54.12,8.6,81.18,12.9,3.9.62,4.23-5.42.38-6.04h0Z"/>
      <path class="cls-1" d="M655.39,1283.29c-27.06-4.3-54.12-8.6-81.18-12.9-3.9-.62-4.23,5.42-.38,6.04,27.06,4.3,54.12,8.6,81.18,12.9,3.9.62,4.23-5.42.38-6.04h0Z"/>
      <path class="cls-1" d="M649.28,1254.82c-27.06-4.3-54.12-8.6-81.18-12.9-3.9-.62-4.23,5.42-.38,6.04,27.06,4.3,54.12,8.6,81.18,12.9,3.9.62,4.23-5.42.38-6.04h0Z"/>
      <path class="cls-1" d="M643.18,1226.35c-27.06-4.3-54.12-8.6-81.18-12.9-3.9-.62-4.23,5.42-.38,6.04,27.06,4.3,54.12,8.6,81.18,12.9,3.9.62,4.23-5.42.38-6.04h0Z"/>
      <path class="cls-1" d="M643.18,1226.35c-27.06-4.3-54.12-8.6-81.18-12.9-3.9-.62-4.23,5.42-.38,6.04,27.06,4.3,54.12,8.6,81.18,12.9,3.9.62,4.23-5.42.38-6.04h0Z"/>
      <path class="cls-1" d="M580.22,1216.66c-20.48-3.25-40.95-6.51-61.43-9.76.3,2.08.59,4.15.87,6.23,20.06,3.19,40.13,6.38,60.19,9.56,3.9.62,4.23-5.42.38-6.04Z"/>
      <path class="cls-1" d="M589.91,1245.72c-22.68-3.6-45.37-7.21-68.05-10.81.14,2.05.27,4.1.37,6.16,22.43,3.56,44.87,7.13,67.3,10.69,3.9.62,4.23-5.42.38-6.04Z"/>
      <path class="cls-1" d="M599.59,1274.77c-25.61-4.07-51.22-8.14-76.84-12.21.08,2.06.2,4.11.36,6.15,25.37,4.03,50.73,8.06,76.1,12.09,3.9.62,4.23-5.42.38-6.04Z"/>
      <path class="cls-1" d="M609.28,1303.83c-27.06-4.3-54.12-8.6-81.18-12.9-1.3-.21-2.16.35-2.64,1.18.12,1.25.25,2.5.34,3.75.45.54,1.07.97,1.92,1.11,27.06,4.3,54.12,8.6,81.18,12.9,3.9.62,4.23-5.42.38-6.04Z"/>
      <path class="cls-1" d="M623.81,1332.88c-27.06-4.3-54.12-8.6-81.18-12.9-3.9-.62-4.23,5.42-.38,6.04,27.06,4.3,54.12,8.6,81.18,12.9,3.9.62,4.23-5.42.38-6.04h0Z"/>
      <path class="cls-1" d="M633.49,1361.94c-27.06-4.3-54.12-8.6-81.18-12.9-3.9-.62-4.23,5.42-.38,6.04,27.06,4.3,54.12,8.6,81.18,12.9,3.9.62,4.23-5.42.38-6.04h0Z"/>
      <path class="cls-1" d="M637.07,1197.87c-27.06-4.3-54.12-8.6-81.18-12.9-3.9-.62-4.23,5.42-.38,6.04,27.06,4.3,54.12,8.6,81.18,12.9,3.9.62,4.23-5.42.38-6.04h0Z"/>
      <path class="cls-1" d="M637.07,1197.87c-27.06-4.3-54.12-8.6-81.18-12.9-3.9-.62-4.23,5.42-.38,6.04,27.06,4.3,54.12,8.6,81.18,12.9,3.9.62,4.23-5.42.38-6.04h0Z"/>
      <path class="cls-1" d="M574.12,1188.19c-18.52-2.94-37.03-5.88-55.55-8.83-.03,2.03-.15,4.04-.25,6.06,18.47,2.94,36.95,5.87,55.43,8.81,3.9.62,4.23-5.42.38-6.04Z"/>
      <path class="cls-1" d="M630.97,1169.4c-27.06-4.3-54.12-8.6-81.18-12.9-3.9-.62-4.23,5.42-.38,6.04,27.06,4.3,54.12,8.6,81.18,12.9,3.9.62,4.23-5.42.38-6.04h0Z"/>
      <path class="cls-1" d="M624.86,1140.93c-27.06-4.3-54.12-8.6-81.18-12.9-3.9-.62-4.23,5.42-.38,6.04,27.06,4.3,54.12,8.6,81.18,12.9,3.9.62,4.23-5.42.38-6.04h0Z"/>
      <path class="cls-1" d="M618.76,1112.46c-27.06-4.3-54.12-8.6-81.18-12.9-3.9-.62-4.23,5.42-.38,6.04,27.06,4.3,54.12,8.6,81.18,12.9,3.9.62,4.23-5.42.38-6.04h0Z"/>
      <path class="cls-1" d="M612.65,1083.99c-27.06-4.3-54.12-8.6-81.18-12.9-3.9-.62-4.23,5.42-.38,6.04,27.06,4.3,54.12,8.6,81.18,12.9,3.9.62,4.23-5.42.38-6.04h0Z"/>
      <path class="cls-1" d="M606.55,1055.51c-27.06-4.3-54.12-8.6-81.18-12.9-.06,0-.1.01-.16,0-.87.83-1.84,1.56-2.86,2.22-.26,1.59.57,3.48,2.64,3.81,27.06,4.3,54.12,8.6,81.18,12.9,3.9.62,4.23-5.42.38-6.04Z"/>
      <path class="cls-1" d="M600.44,1027.04c-23.62-3.75-47.24-7.51-70.86-11.26.21,2.07.39,4.13.63,6.2,23.29,3.7,46.57,7.4,69.86,11.1,3.9.62,4.23-5.42.38-6.04Z"/>
      <path class="cls-1" d="M594.34,998.57c-22.32-3.55-44.64-7.09-66.97-10.64.12,2.06.28,4.11.42,6.16,22.06,3.5,44.12,7.01,66.17,10.51,3.9.62,4.23-5.42.38-6.04Z"/>
      <path class="cls-1" d="M588.23,970.1c-20.72-3.29-41.44-6.58-62.16-9.88.09,2.05.17,4.09.26,6.14,20.51,3.26,41.02,6.52,61.53,9.78,3.9.62,4.23-5.42.37-6.04Z"/>
      <path class="cls-1" d="M582.21,941.61c-19.16-3.31-38.32-6.63-57.47-9.94.11,2.04.21,4.09.32,6.13,18.95,3.28,37.9,6.55,56.84,9.83,3.75.65,4.03-5.38.31-6.02Z"/>
      <path class="cls-1" d="M576.03,913.16c-17.78-2.83-35.57-5.65-53.35-8.48.2,2.06.42,4.13.59,6.19,17.46,2.77,34.92,5.55,52.38,8.32,3.9.62,4.23-5.42.38-6.04Z"/>
      <path class="cls-1" d="M570.13,884.64c-17.22-3.44-34.44-6.87-51.66-10.31.34,1.1.63,2.25.84,3.5.15.93.24,1.86.39,2.79,16.74,3.34,33.49,6.68,50.23,10.02,3.51.7,3.68-5.31.21-6Z"/>
    </g>
    <path class="cls-1" d="M920.71,731.16c-3.18-13.7-12.96-18.39-23.13-25.83,11.43-19.32-12.34-37.3-14.49-46.53-1-4.31,3.19-15.2,1.89-23.77-5.18-34.19-51.13-46.54-75.52-23.35,1.87-4.29,1.89-14.81.13-25.23h-19.91c1.36,2.57,2.45,5.02,2.65,7.17.82,8.54-6.08,13.7-4.96,21.59,1.15,8.04,23.51,15.11,15.97,30.64-11.16-13.14-25.67-23.4-43.91-22.04-5.17.38-11.86,4.26-14.71,4.02-4.82-.42-21.44-17.19-32.96-11.28.6-17.36,28.1-11.93,33.04-16.99,2.34-2.4,3.11-8.98,5.74-13.11h-32.71c-9.59,3.81-16.63,8.78-21.98,17.9-8.43-5.82-12.07-13.98-23.85-17.62-.41-.13-.83-.18-1.24-.29h-62.04c-7,0-12.42-2.45-16.27-6.23-11.08,9.87-17.15,25.64-14.41,41.87,1.17,6.94,6.08,12.1,6.74,18.88-11.21-.42-21.87,5.74-27.37,15.38-13.8,24.18-15.37,46.9-22.86,72.38-1.32,4.49-.15,12.35-1.44,14.43-.59.96-6.7,2-9.26,4.12-4.23,3.52-12.08,5.45-17.23,15.92h26.34c6.56-3.73,15.2-3.31,19.94-6.36,3.2-2.06,6.07-9.68,11.12-13.3,19.34-13.86,27.74,3.7,38.99,2.53,6.81-.71,11.86-13.45,26.55-9.97,8.31,11.6,2.82,19.16-4,27.1h27.42c2.99-11.22-10.33-31.76,11.49-43.76,4.72-2.59,11.6-6.27,13.05.91,1.26,6.24.96,11.95,3.19,18.84,2.99,9.2,9.68,17.79,18.1,24.01h57.15l-.21-2.56c.65.92,1.37,1.77,2.14,2.56h69.38c8.98-9.87,13.15-22.99,16.23-38.18,5.92-4.5,16.02,6.06,20.9,6.21,6.65.21,11.52-10.11,26.79-7.16,9.81,1.89,14.91,15.99,13.08,24.99-1.54,7.59-7.73,10.82-12.6,14.13h31.54c-.4-.59-.75-1.19-.94-1.83-2.46-8.16.79-20.15-1.54-30.2ZM600.48,723.85c-12.44.58-26.59-9.56-42.56.13,5.75-8.49-1.32-16.17.4-25.03,1.41-7.24,8.76-10,10.54-14.07,2.96-6.77-.35-16.56,7.39-21.91,3.2,26.27,23.93,50.41,52.46,39.06,4.84,14.78-17.46,21.32-28.23,21.82ZM629.94,660.5c-5.03,13.78,2.52,29.65-18.3,25.82-14.08-2.59-16.94-19.29-14.12-31.41,1.4-6.03,9.29-11.64,8.76-17.21-.44-4.57-7.44-9.81-8.76-15.53-3.21-13.88.13-28.46,14.87-33.1,20.8-6.54,21.27,15.3,27.76,17.45,5.33,1.76,13.03-2.16,19.11-2.36,18.32-.59,22.28,13.53,20.77,29.51-20.1-2.51-42.79,6.81-50.09,26.83ZM680.37,698.06c-11.16-.22-24.29,4.84-32.09,8.83,9.87-15.49-12.15-26.4,2.4-45.19,13.23-17.08,27.63-2.89,39.93-5.93,2.24-.55,14.76-33.56,35.83-18.46l-13.53,35.33c-2.19,3.57-7.98,3.31-10.3,5.57-1.51,1.47-21.72,1.72-22.23,19.85ZM775.81,753.97c-7.05-4.98-9.52-16.98-16.76-17.17-12.75-.33-20.4,29.08-49.01,12.13-16.69-9.89-12.04-28.31-12.92-39.09.31-.11.52-.28.52-.59,0-12.21,10.43-15.06,14.18-15.61,36.83-5.46,12.08-25.78,30.42-42.94,16.07-15.03,43.97-7.41,49.05,14.52,2.06,8.91-1.59,21.21-.23,24.54,3.17,7.75,24.96,9.58,29.51,24.35,9.31,30.25-17.82,58.9-44.75,39.87ZM866.16,708.92c-2.8.31-28.11-1.77-29.39-2.51-2.41-1.39-12.84-24.64-24.38-24.4-4.92-11.66,6.8-18.89,8.69-28.16,2.62-12.82-5.51-30.35,12.06-34.31,13.35-3.01,26.01.51,31.85,13.6,6.17,13.82-6.39,24.68-3.98,32.98,1.53,5.25,12.86,8.54,16.48,15.46,6.51,12.49,3.77,25.65-11.33,27.34Z"/>
    <path class="cls-1" d="M889.46,763.2c2.78-5.62,7.95-7.23,9.69-8.54,6.68-5.05,16.6-4.17,21.79-7.51,3.2-2.06,6.07-9.68,11.12-13.3,19.34-13.86,27.74,3.7,38.99,2.53,6.81-.71,11.86-13.45,26.55-9.97,11.54,16.1-3.52,24.43-11.82,36.79h23.54c5.35-4.08,10.91-7.11,11.54-8.99,3.74-11.06-10.62-32.21,11.65-44.45,4.72-2.59,11.6-6.27,13.05.91,1.26,6.24.96,11.95,3.19,18.84,7.12,21.93,35.13,40.56,57.89,31.22v2.48h18.15l-1.01-12.25c4.28,6.09,11.43,9.22,18.3,12.25h40.85c18.09-9.96,24.37-26.96,28.6-47.87,5.92-4.5,16.02,6.06,20.9,6.21,6.65.21,11.52-10.11,26.79-7.16,9.81,1.89,14.91,15.99,13.08,24.99-2.22,10.97-14.25,12.84-17.8,18.99-.75,1.31-1.25,2.99-1.66,4.83h46.44c-2.5-5.06-7.85-7.76-8.98-11.52-2.46-8.16.79-20.15-1.54-30.2-3.18-13.7-12.96-18.39-23.13-25.83,11.43-19.32-12.34-37.3-14.49-46.53-1-4.31,3.18-15.2,1.89-23.77-5.18-34.19-51.13-46.54-75.52-23.35,3.89-8.94-.14-44.91-11.9-50.72-4.74-3.52-13.16-5.71-28.17-5.71-8.07-1.98-29.55,14.15-34.35,19.93-2.14,2.57-3.06,8.51-4.17,9.21-2.04,1.3-8,.12-11.82,1.57-10.22,3.87-17.6,8.89-23.18,18.39-8.43-5.82-12.07-13.98-23.85-17.62-9.85-3.05-20.56.41-23.86-.81-4.8-1.77-8.28-12.04-19.24-14.7-31.18-7.57-55.92,20.96-50.86,50.86,1.17,6.94,6.08,12.1,6.74,18.88-11.21-.42-21.87,5.74-27.37,15.38-13.8,24.18-15.37,46.9-22.86,72.38-1.32,4.49-.15,12.35-1.44,14.43-.59.96-6.7,2-9.26,4.12-4.8,3.98-14.25,5.93-19.13,20.58-.54,1.62-.89,3.31-1.17,5.02h17.87ZM1189.12,644.17c2.62-12.82-5.51-30.35,12.06-34.31,13.35-3.01,26.01.51,31.85,13.6,6.17,13.82-6.39,24.68-3.98,32.98,1.53,5.25,12.87,8.54,16.48,15.46,6.51,12.49,3.77,25.65-11.33,27.34-2.8.31-28.11-1.77-29.39-2.51-2.41-1.39-12.84-24.64-24.38-24.4-4.92-11.66,6.8-18.89,8.69-28.16ZM1188.59,704.42c9.31,30.25-17.82,58.9-44.75,39.87-7.05-4.98-9.52-16.98-16.76-17.17-12.75-.33-20.4,29.08-49.01,12.13-16.69-9.89-12.04-28.31-12.92-39.09.31-.11.52-.28.52-.59,0-12.21,10.43-15.06,14.18-15.61,36.83-5.46,12.08-25.78,30.42-42.94,16.07-15.03,43.97-7.41,49.05,14.52,2.06,8.91-1.59,21.21-.23,24.54,3.17,7.75,24.96,9.58,29.51,24.35ZM1112.85,589.88c2.42-2.48,3.14-9.45,5.99-13.54,4.39-6.3,8.64-9.55,15.19-13.51,3.21-.93-1.46-2.73,13.07-2.73.39,0,1.62.69,3.32,1.74,1.44,7,9.33,15.83,9.93,22.1.82,8.54-6.08,13.7-4.96,21.59,1.15,8.04,23.51,15.11,15.97,30.64-11.16-13.14-25.66-23.4-43.91-22.04-5.17.38-11.86,4.26-14.71,4.02-4.82-.42-21.44-17.19-32.96-11.28.6-17.36,28.1-11.93,33.04-16.99ZM1058.63,646.09c2.24-.55,14.76-33.56,35.83-18.46l-13.53,35.33c-2.19,3.57-7.98,3.31-10.3,5.57-1.51,1.47-21.72,1.72-22.23,19.85-11.16-.22-24.29,4.84-32.09,8.83,9.87-15.49-12.15-26.4,2.4-45.19,13.23-17.08,27.63-2.89,39.93-5.93ZM980.42,579.38c20.8-6.54,21.27,15.3,27.76,17.45,5.33,1.76,13.03-2.16,19.11-2.36,18.32-.59,22.28,13.53,20.77,29.51-20.1-2.51-42.79,6.81-50.09,26.83-5.03,13.78,2.52,29.65-18.3,25.82-14.08-2.59-16.94-19.29-14.12-31.41,1.4-6.03,9.29-11.64,8.76-17.21-.44-4.57-7.44-9.81-8.76-15.53-3.21-13.88.13-28.46,14.87-33.1ZM926.35,689.27c1.41-7.24,8.76-10,10.54-14.07,2.96-6.77-.35-16.56,7.39-21.91,3.2,26.27,23.93,50.41,52.46,39.06,4.84,14.78-17.46,21.32-28.23,21.82-12.44.58-26.59-9.56-42.56.13,5.75-8.49-1.32-16.17.4-25.03Z"/>
    <path class="cls-1" d="M945.34,632.22c-.45-.07-.76-.14-.86-.2-1.72-.99-9.17-17.59-17.41-17.42-1.35-3.2-.91-5.93.18-8.46-.26-.82-.47-1.65-.62-2.51-.71-1.61-1.26-3.29-1.51-5.05-3.01-2.75-4.76-6.6-5.28-10.64-7.87-8.97-17.97-15.84-30.59-14.9-2.67.2-5.89,1.69-8.24,2.44-5.82,3.12-10.86,7.12-16.53,10.34l-8.46,22.09c-.03.05-.1.07-.13.12,1.74,2.31,2.98,4.97,3.44,7.95.3,1.99.83,3.88,1.45,5.74,17.99-5.1,4.17-18.22,16.2-29.48,11.47-10.73,31.4-5.29,35.02,10.37,1.47,6.36-1.13,15.15-.16,17.52,2.26,5.53,17.82,6.84,21.07,17.39,6.65,21.6-12.72,42.06-31.95,28.47-5.03-3.56-6.8-12.13-11.97-12.26-3.84-.1-7.04,3.57-10.98,6.95.6,2.76,1.09,5.53,1.61,8.31,2.77,2.2,5.26,4.76,7.49,7.54l-.48-5.79c3.05,4.35,8.16,6.58,13.07,8.75h29.17c12.92-7.11,17.4-19.25,20.42-34.18.01,0,.02,0,.03-.02-.77-4.63-1.49-9.36-3.96-13.07Z"/>
  </g>
  <path class="cls-1" d="M319.08,549.15c3.76-1.75-1.11.25,1.13-.52.8-.28,1.6-.51,2.42-.72,1-.26,2.02-.48,3.04-.64-.55.08-2.12.11.39,0,1.63-.08,3.25-.04,4.88.09,3.81.29-1.29-.33.93.14,1.21.26,2.41.54,3.59.89,5.45,1.62,11.7,5.64,16.02,9.85,6.11,5.95,9.5,10.79,12.97,19.03.6,1.43.46,1.1,1.12,3.26.58,1.91,1.06,3.86,1.44,5.82.91,4.68,1.21,9.42,1.34,14.18.6,21.05-2.48,42.33,2.68,63.05,4.09,16.45,15.54,30.99,30.43,39.11,16.44,8.97,37.68,9.92,51.2-4.85,4.69-5.12,5.48-12.92.45-18.2-4.54-4.77-13.48-5.61-18.2-.45-.64.7-1.31,1.36-1.99,2.03-.29.28-2.13,1.68-.78.72,1.54-1.1-4.54,2.03-1.11.76-1.29.48-2.63.74-3.96,1.04,2.68-.6-1.86-.13-2.95-.07-3.19.19,1.47.37-.41.01-.72-.14-1.43-.28-2.14-.46-1.64-.4-3.21-.95-4.79-1.52,2.52.91-1.22-.61-2.06-1.07-1.74-.95-3.35-2.09-5.02-3.14-3.17-2,1.09,1.02-.63-.42-.62-.52-1.22-1.05-1.82-1.6-1.34-1.23-2.62-2.53-3.83-3.89-.52-.58-3.09-3.93-1.78-2.06-1.15-1.63-2.19-3.36-3.11-5.13-.46-.88-.88-1.77-1.28-2.68-.81-1.86.55,1.69-.08-.23-.71-2.16-1.27-4.36-1.74-6.57-.95-4.43-1.42-8.83-1.63-13.35-.96-20.7,2.28-41.56-1.94-62.07-3.69-17.92-14.65-33.96-28.92-45.13-16.29-12.74-37.22-16.63-56.23-7.78-6.3,2.93-8.3,11.65-5.12,17.47,3.52,6.44,11.15,8.06,17.47,5.12h0Z"/>
  <path class="cls-1" d="M1458.62,276.8c-4.11.57,1.07-.39-1.23.17-.82.2-1.62.45-2.42.71-.98.33-1.95.69-2.9,1.12.51-.23,1.84-1.06-.33.21-1.41.82-2.75,1.74-4.05,2.72-3.04,2.31.9-.98-.71.63-.88.87-1.72,1.76-2.53,2.7-3.69,4.32-6.75,11.1-8.1,16.98-1.9,8.32-2.11,14.22-.55,23.02.27,1.53.21,1.17.83,3.35.55,1.92,1.21,3.81,1.95,5.67,1.78,4.42,4.1,8.56,6.58,12.63,10.93,17.99,25.09,34.18,32.02,54.38,5.5,16.03,3.8,34.46-4.29,49.37-8.93,16.46-26.23,28.81-45.62,23.76-6.72-1.75-11.62-7.87-10.27-15.03,1.22-6.47,8.27-12.03,15.03-10.27.92.24,1.84.43,2.78.62.39.08,2.71.25,1.05.18-1.89-.08,4.91-.76,1.34.04,1.34-.3,2.61-.8,3.89-1.28-2.58.96,1.49-1.12,2.44-1.66,2.78-1.58-1.03,1.11.35-.22.53-.5,1.04-1.01,1.54-1.55,1.16-1.23,2.18-2.54,3.19-3.88-1.62,2.14.69-1.18,1.14-2.02.95-1.74,1.67-3.57,2.5-5.37,1.57-3.4-.36,1.45.3-.7.24-.77.46-1.55.66-2.33.46-1.76.83-3.55,1.1-5.35.12-.77.46-4.98.38-2.7.08-2,.01-4.01-.18-6-.09-.99-.23-1.97-.38-2.94-.33-2,.46,1.71-.06-.23-.58-2.19-1.3-4.34-2.11-6.47-1.61-4.24-3.61-8.19-5.89-12.09-10.45-17.9-24.5-33.65-32.11-53.16-6.64-17.05-6.16-36.47-.25-53.6,6.75-19.54,22.21-34.19,42.97-37.09,6.89-.96,13.3,5.27,13.79,11.88.55,7.32-4.98,12.82-11.88,13.79h0Z"/>
  <path class="cls-1" d="M396.81,400.13c4.68-2.36.83-.39-.3.4-1.36.96-3.8,3.84-.4.08-1.6,1.77-3.14,3.43-4.45,5.44.69-1.1,1.39-2.2,2.08-3.29-1.69,2.7-2.98,5.57-3.92,8.61.38-1.24.76-2.48,1.14-3.73-.85,2.93-1.2,5.81-1.51,8.83.54-5.35.07-.58.2,1.01.12,1.39.4,2.74.6,4.11-.65-4.61-.56-2.3-.19-1.04.19.66.41,1.31.64,1.96.27.74.57,1.46.89,2.17.52,1.14,1.81,2.58-.67-1.2.76,1.15,1.41,2.34,2.26,3.43s2.93,2.61-.61-.54c.6.53,1.14,1.12,1.74,1.65,5.69,5.03,7.17,14.59,1.77,20.47-5.22,5.68-14.38,7.16-20.47,1.77-11.76-10.4-16.56-26.08-14.57-41.45,1.01-7.82,4.08-14.96,8.39-21.48,4.31-6.52,10.41-10.98,17.29-14.46,3.1-1.57,8.1-.96,11.11.42,3.24,1.49,6.45,4.7,7.56,8.15,1.16,3.58,1.35,7.67-.42,11.11-1.87,3.64-4.52,5.73-8.15,7.56h0Z"/>
  <path class="cls-1" d="M1537.48,318.94c1.66,4.97.31.87.07-.5-.29-1.64.01-5.41-.23-.33.11-2.38.19-4.65.67-7-.28,1.27-.56,2.54-.84,3.8.7-3.11,1.81-6.05,3.28-8.87-.61,1.15-1.21,2.3-1.82,3.45,1.46-2.68,3.24-4.97,5.15-7.33-3.38,4.17-.36.46.86-.57,1.06-.9,2.21-1.66,3.32-2.5-3.71,2.82-2.02,1.24-.87.6.6-.33,1.21-.65,1.84-.94.71-.33,1.43-.64,2.16-.91,1.18-.44,3.1-.55-1.32.38,1.35-.28,2.65-.66,4.02-.85,1.43-.19,3.92.21-.81-.05.8.04,1.6.01,2.4.06,7.58.44,15.37-5.3,15.68-13.28.3-7.7-5.16-15.21-13.28-15.68-15.68-.9-30.13,6.84-39.55,19.15-4.79,6.26-7.64,13.49-9.18,21.15-1.54,7.66-.36,15.13,2.08,22.44,1.1,3.3,5.07,6.39,8.18,7.53,3.35,1.23,7.89,1.21,11.11-.46,3.34-1.72,6.36-4.49,7.53-8.18,1.24-3.9.83-7.25-.46-11.11h0Z"/>
  <g>
    <path class="cls-1" d="M114.73,1428.18h1593.19c18.7,0,18.73-29.06,0-29.06H114.73c-18.7,0-18.73,29.06,0,29.06h0Z"/>
    <g>
      <g>
        <path class="cls-1" d="M102.31,1486.42c11.88-21.99,23.76-43.97,35.64-65.96,1.71-3.17-5.31-4.54-7-1.4-11.88,21.99-23.76,43.97-35.64,65.96-1.71,3.17,5.31,4.54,7,1.4h0Z"/>
        <path class="cls-1" d="M137.34,1486.42c11.88-21.99,23.76-43.97,35.64-65.96,1.71-3.17-5.31-4.54-7-1.4-11.88,21.99-23.76,43.97-35.64,65.96-1.71,3.17,5.31,4.54,7,1.4h0Z"/>
        <path class="cls-1" d="M172.36,1486.42c11.88-21.99,23.76-43.97,35.64-65.96,1.71-3.17-5.31-4.54-7-1.4-11.88,21.99-23.76,43.97-35.64,65.96-1.71,3.17,5.31,4.54,7,1.4h0Z"/>
        <path class="cls-1" d="M207.38,1486.42c11.88-21.99,23.76-43.97,35.64-65.96,1.71-3.17-5.31-4.54-7-1.4-11.88,21.99-23.76,43.97-35.64,65.96-1.71,3.17,5.31,4.54,7,1.4h0Z"/>
        <path class="cls-1" d="M242.4,1486.42c11.88-21.99,23.76-43.97,35.64-65.96,1.71-3.17-5.31-4.54-7-1.4-11.88,21.99-23.76,43.97-35.64,65.96-1.71,3.17,5.31,4.54,7,1.4h0Z"/>
        <path class="cls-1" d="M277.43,1486.42c11.88-21.99,23.76-43.97,35.64-65.96,1.71-3.17-5.31-4.54-7-1.4-11.88,21.99-23.76,43.97-35.64,65.96-1.71,3.17,5.31,4.54,7,1.4h0Z"/>
        <path class="cls-1" d="M312.45,1486.42c11.88-21.99,23.76-43.97,35.64-65.96,1.71-3.17-5.31-4.54-7-1.4-11.88,21.99-23.76,43.97-35.64,65.96-1.71,3.17,5.31,4.54,7,1.4h0Z"/>
        <path class="cls-1" d="M347.47,1486.42c11.88-21.99,23.76-43.97,35.64-65.96,1.71-3.17-5.31-4.54-7-1.4-11.88,21.99-23.76,43.97-35.64,65.96-1.71,3.17,5.31,4.54,7,1.4h0Z"/>
        <path class="cls-1" d="M382.49,1486.42c11.88-21.99,23.76-43.97,35.64-65.96,1.71-3.17-5.31-4.54-7-1.4-11.88,21.99-23.76,43.97-35.64,65.96-1.71,3.17,5.31,4.54,7,1.4h0Z"/>
        <path class="cls-1" d="M417.52,1486.42c11.88-21.99,23.76-43.97,35.64-65.96,1.71-3.17-5.31-4.54-7-1.4-11.88,21.99-23.76,43.97-35.64,65.96-1.71,3.17,5.31,4.54,7,1.4h0Z"/>
        <path class="cls-1" d="M452.54,1486.42c11.88-21.99,23.76-43.97,35.64-65.96,1.71-3.17-5.31-4.54-7-1.4-11.88,21.99-23.76,43.97-35.64,65.96-1.71,3.17,5.31,4.54,7,1.4h0Z"/>
        <path class="cls-1" d="M487.56,1486.42c11.88-21.99,23.76-43.97,35.64-65.96,1.71-3.17-5.31-4.54-7-1.4-11.88,21.99-23.76,43.97-35.64,65.96-1.71,3.17,5.31,4.54,7,1.4h0Z"/>
        <path class="cls-1" d="M522.58,1486.42c11.88-21.99,23.76-43.97,35.64-65.96,1.71-3.17-5.31-4.54-7-1.4-11.88,21.99-23.76,43.97-35.64,65.96-1.71,3.17,5.31,4.54,7,1.4h0Z"/>
        <path class="cls-1" d="M557.61,1486.42c11.88-21.99,23.76-43.97,35.64-65.96,1.71-3.17-5.31-4.54-7-1.4-11.88,21.99-23.76,43.97-35.64,65.96-1.71,3.17,5.31,4.54,7,1.4h0Z"/>
        <path class="cls-1" d="M592.63,1486.42c11.88-21.99,23.76-43.97,35.64-65.96,1.71-3.17-5.31-4.54-7-1.4-11.88,21.99-23.76,43.97-35.64,65.96-1.71,3.17,5.31,4.54,7,1.4h0Z"/>
        <path class="cls-1" d="M627.65,1486.42c11.88-21.99,23.76-43.97,35.64-65.96,1.71-3.17-5.31-4.54-7-1.4-11.88,21.99-23.76,43.97-35.64,65.96-1.71,3.17,5.31,4.54,7,1.4h0Z"/>
        <path class="cls-1" d="M662.68,1486.42c11.88-21.99,23.76-43.97,35.64-65.96,1.71-3.17-5.31-4.54-7-1.4-11.88,21.99-23.76,43.97-35.64,65.96-1.71,3.17,5.31,4.54,7,1.4h0Z"/>
        <path class="cls-1" d="M697.7,1486.42c11.88-21.99,23.76-43.97,35.64-65.96,1.71-3.17-5.31-4.54-7-1.4-11.88,21.99-23.76,43.97-35.64,65.96-1.71,3.17,5.31,4.54,7,1.4h0Z"/>
        <path class="cls-1" d="M732.72,1486.42c11.88-21.99,23.76-43.97,35.64-65.96,1.71-3.17-5.31-4.54-7-1.4-11.88,21.99-23.76,43.97-35.64,65.96-1.71,3.17,5.31,4.54,7,1.4h0Z"/>
        <path class="cls-1" d="M767.74,1486.42c11.88-21.99,23.76-43.97,35.64-65.96,1.71-3.17-5.31-4.54-7-1.4-11.88,21.99-23.76,43.97-35.64,65.96-1.71,3.17,5.31,4.54,7,1.4h0Z"/>
        <path class="cls-1" d="M802.77,1486.42c11.88-21.99,23.76-43.97,35.64-65.96,1.71-3.17-5.31-4.54-7-1.4-11.88,21.99-23.76,43.97-35.64,65.96-1.71,3.17,5.31,4.54,7,1.4h0Z"/>
        <path class="cls-1" d="M837.79,1486.42c11.88-21.99,23.76-43.97,35.64-65.96,1.71-3.17-5.31-4.54-7-1.4-11.88,21.99-23.76,43.97-35.64,65.96-1.71,3.17,5.31,4.54,7,1.4h0Z"/>
        <path class="cls-1" d="M872.81,1486.42c11.88-21.99,23.76-43.97,35.64-65.96,1.71-3.17-5.31-4.54-7-1.4-11.88,21.99-23.76,43.97-35.64,65.96-1.71,3.17,5.31,4.54,7,1.4h0Z"/>
      </g>
      <g>
        <path class="cls-1" d="M905.9,1486.42c11.88-21.99,23.76-43.97,35.64-65.96,1.71-3.17-5.31-4.54-7-1.4-11.88,21.99-23.76,43.97-35.64,65.96-1.71,3.17,5.31,4.54,7,1.4h0Z"/>
        <path class="cls-1" d="M940.93,1486.42c11.88-21.99,23.76-43.97,35.64-65.96,1.71-3.17-5.31-4.54-7-1.4-11.88,21.99-23.76,43.97-35.64,65.96-1.71,3.17,5.31,4.54,7,1.4h0Z"/>
        <path class="cls-1" d="M975.95,1486.42c11.88-21.99,23.76-43.97,35.64-65.96,1.71-3.17-5.31-4.54-7-1.4-11.88,21.99-23.76,43.97-35.64,65.96-1.71,3.17,5.31,4.54,7,1.4h0Z"/>
        <path class="cls-1" d="M1010.97,1486.42c11.88-21.99,23.76-43.97,35.64-65.96,1.71-3.17-5.31-4.54-7-1.4-11.88,21.99-23.76,43.97-35.64,65.96-1.71,3.17,5.31,4.54,7,1.4h0Z"/>
        <path class="cls-1" d="M1045.99,1486.42c11.88-21.99,23.76-43.97,35.64-65.96,1.71-3.17-5.31-4.54-7-1.4-11.88,21.99-23.76,43.97-35.64,65.96-1.71,3.17,5.31,4.54,7,1.4h0Z"/>
        <path class="cls-1" d="M1081.02,1486.42c11.88-21.99,23.76-43.97,35.64-65.96,1.71-3.17-5.31-4.54-7-1.4-11.88,21.99-23.76,43.97-35.64,65.96-1.71,3.17,5.31,4.54,7,1.4h0Z"/>
        <path class="cls-1" d="M1116.04,1486.42c11.88-21.99,23.76-43.97,35.64-65.96,1.71-3.17-5.31-4.54-7-1.4-11.88,21.99-23.76,43.97-35.64,65.96-1.71,3.17,5.31,4.54,7,1.4h0Z"/>
        <path class="cls-1" d="M1151.06,1486.42c11.88-21.99,23.76-43.97,35.64-65.96,1.71-3.17-5.31-4.54-7-1.4-11.88,21.99-23.76,43.97-35.64,65.96-1.71,3.17,5.31,4.54,7,1.4h0Z"/>
        <path class="cls-1" d="M1186.08,1486.42c11.88-21.99,23.76-43.97,35.64-65.96,1.71-3.17-5.31-4.54-7-1.4-11.88,21.99-23.76,43.97-35.64,65.96-1.71,3.17,5.31,4.54,7,1.4h0Z"/>
        <path class="cls-1" d="M1221.11,1486.42c11.88-21.99,23.76-43.97,35.64-65.96,1.71-3.17-5.31-4.54-7-1.4-11.88,21.99-23.76,43.97-35.64,65.96-1.71,3.17,5.31,4.54,7,1.4h0Z"/>
        <path class="cls-1" d="M1256.13,1486.42c11.88-21.99,23.76-43.97,35.64-65.96,1.71-3.17-5.31-4.54-7-1.4-11.88,21.99-23.76,43.97-35.64,65.96-1.71,3.17,5.31,4.54,7,1.4h0Z"/>
        <path class="cls-1" d="M1291.15,1486.42c11.88-21.99,23.76-43.97,35.64-65.96,1.71-3.17-5.31-4.54-7-1.4-11.88,21.99-23.76,43.97-35.64,65.96-1.71,3.17,5.31,4.54,7,1.4h0Z"/>
        <path class="cls-1" d="M1326.17,1486.42c11.88-21.99,23.76-43.97,35.64-65.96,1.71-3.17-5.31-4.54-7-1.4-11.88,21.99-23.76,43.97-35.64,65.96-1.71,3.17,5.31,4.54,7,1.4h0Z"/>
        <path class="cls-1" d="M1361.2,1486.42c11.88-21.99,23.76-43.97,35.64-65.96,1.71-3.17-5.31-4.54-7-1.4-11.88,21.99-23.76,43.97-35.64,65.96-1.71,3.17,5.31,4.54,7,1.4h0Z"/>
        <path class="cls-1" d="M1396.22,1486.42c11.88-21.99,23.76-43.97,35.64-65.96,1.71-3.17-5.31-4.54-7-1.4-11.88,21.99-23.76,43.97-35.64,65.96-1.71,3.17,5.31,4.54,7,1.4h0Z"/>
        <path class="cls-1" d="M1431.24,1486.42c11.88-21.99,23.76-43.97,35.64-65.96,1.71-3.17-5.31-4.54-7-1.4-11.88,21.99-23.76,43.97-35.64,65.96-1.71,3.17,5.31,4.54,7,1.4h0Z"/>
        <path class="cls-1" d="M1466.27,1486.42c11.88-21.99,23.76-43.97,35.64-65.96,1.71-3.17-5.31-4.54-7-1.4-11.88,21.99-23.76,43.97-35.64,65.96-1.71,3.17,5.31,4.54,7,1.4h0Z"/>
        <path class="cls-1" d="M1501.29,1486.42c11.88-21.99,23.76-43.97,35.64-65.96,1.71-3.17-5.31-4.54-7-1.4-11.88,21.99-23.76,43.97-35.64,65.96-1.71,3.17,5.31,4.54,7,1.4h0Z"/>
        <path class="cls-1" d="M1536.31,1486.42c11.88-21.99,23.76-43.97,35.64-65.96,1.71-3.17-5.31-4.54-7-1.4-11.88,21.99-23.76,43.97-35.64,65.96-1.71,3.17,5.31,4.54,7,1.4h0Z"/>
        <path class="cls-1" d="M1571.33,1486.42c11.88-21.99,23.76-43.97,35.64-65.96,1.71-3.17-5.31-4.54-7-1.4-11.88,21.99-23.76,43.97-35.64,65.96-1.71,3.17,5.31,4.54,7,1.4h0Z"/>
        <path class="cls-1" d="M1606.36,1486.42c11.88-21.99,23.76-43.97,35.64-65.96,1.71-3.17-5.31-4.54-7-1.4-11.88,21.99-23.76,43.97-35.64,65.96-1.71,3.17,5.31,4.54,7,1.4h0Z"/>
        <path class="cls-1" d="M1641.38,1486.42c11.88-21.99,23.76-43.97,35.64-65.96,1.71-3.17-5.31-4.54-7-1.4-11.88,21.99-23.76,43.97-35.64,65.96-1.71,3.17,5.31,4.54,7,1.4h0Z"/>
        <path class="cls-1" d="M1676.4,1486.42c11.88-21.99,23.76-43.97,35.64-65.96,1.71-3.17-5.31-4.54-7-1.4-11.88,21.99-23.76,43.97-35.64,65.96-1.71,3.17,5.31,4.54,7,1.4h0Z"/>
      </g>
    </g>
  </g>
  <path class="cls-1" d="M1442.5,603.71c-2.71,1.5-5.94,4.53-8.8,7.22-.98.92-2.24,2.1-2.98,2.72-1.22-.07-3.78-.77-5.38-1.2-2.62-.71-5.32-1.45-7.69-1.52-21.24-.62-40.03,10-50.27,28.43-9.54,17.16-9.72,37.27-.46,51.22,8.05,12.13,22.21,18.22,40.19,17.39,2.79,17.15,11.37,29.31,24.48,34.52,15.59,6.18,35.4,1.65,50.49-11.55,9.13-7.99,15.19-18.09,17.78-29.1,1.98-8.39,1.95-17.31-.27-26.2-.74-2.95-2.76-6.31-4.72-9.56-.59-.99-1.41-2.34-1.9-3.26.56-1.13,1.6-2.92,2.34-4.21,1.63-2.83,3.17-5.5,3.9-7.58,6.15-17.66,2.36-35-9.82-45.25-12.39-10.42-30.35-11.22-46.88-2.06ZM1427.06,698.09c.15-4.66.28-8.68-2.23-11.56-2.81-3.22-7.21-2.4-13.31-1.26-6.19,1.16-14.67,2.74-20.18-.15-10.31-5.41-12.01-15.41-9.83-24.65.52-2.18,1.25-4.32,2.13-6.35,6.45-14.74,22.11-27.27,38.45-21.47.6.21,1.65.95,2.58,1.61,2.57,1.81,6.1,4.29,10.43,3.41,4.44-.9,7.58-5.08,10.62-9.12,1.2-1.61,2.45-3.27,3.29-3.98,9.29-7.97,19.34-7.77,25.18-4.04,6.49,4.14,8.69,12.48,5.94,22.36-.99,3.5-3.24,6.42-5.63,9.5-2.29,2.96-4.66,6.02-6.26,9.91l-1.24,3,2.3,2.28c9.89,9.81,13.78,16.36,10.24,30.2-2.51,9.92-14.05,22.23-23.3,24.85-5,1.42-14.38,3.04-21.13-2.03-8.58-6.46-8.29-15.36-8.06-22.51Z"/>
  <path class="cls-1" d="M1667.29,866.66c-2.37,1.31-5.21,3.98-7.72,6.33-.86.8-1.97,1.85-2.62,2.39-1.07-.06-3.32-.67-4.72-1.06-2.3-.63-4.67-1.27-6.75-1.33-18.64-.55-35.13,8.78-44.11,24.95-8.37,15.06-8.53,32.71-.41,44.95,7.06,10.65,19.49,15.99,35.27,15.27,2.45,15.05,9.98,25.73,21.48,30.29,13.68,5.43,31.07,1.45,44.31-10.14,8.01-7.01,13.33-15.88,15.61-25.54,1.74-7.37,1.71-15.19-.24-22.99-.65-2.59-2.43-5.54-4.14-8.39-.52-.86-1.24-2.05-1.66-2.86.5-1,1.4-2.56,2.05-3.69,1.43-2.48,2.79-4.83,3.42-6.66,5.39-15.5,2.07-30.71-8.62-39.71-10.87-9.15-26.64-9.84-41.15-1.81ZM1653.74,949.49c.13-4.09.25-7.62-1.96-10.15-2.46-2.83-6.33-2.1-11.68-1.11-5.43,1.02-12.87,2.41-17.71-.13-9.05-4.74-10.54-13.52-8.62-21.64.45-1.92,1.09-3.79,1.87-5.57,5.66-12.94,19.41-23.94,33.74-18.84.53.19,1.45.84,2.27,1.41,2.26,1.59,5.35,3.76,9.15,2.99,3.9-.79,6.65-4.46,9.32-8.01,1.06-1.41,2.15-2.87,2.89-3.5,8.15-6.99,16.97-6.82,22.1-3.54,5.7,3.64,7.62,10.95,5.21,19.62-.87,3.07-2.85,5.63-4.94,8.34-2.01,2.6-4.09,5.28-5.49,8.7l-1.08,2.63,2.02,2c8.68,8.61,12.09,14.36,8.99,26.51-2.21,8.7-12.33,19.51-20.45,21.81-4.39,1.25-12.62,2.67-18.54-1.78-7.53-5.67-7.28-13.48-7.07-19.76Z"/>
  <path class="cls-1" d="M253.07,1007.84c-2.91,1.61-6.39,4.88-9.46,7.76-1.05.98-2.41,2.26-3.21,2.93-1.32-.08-4.06-.83-5.79-1.3-2.81-.77-5.72-1.56-8.27-1.63-22.83-.67-43.03,10.76-54.04,30.57-10.26,18.45-10.45,40.07-.5,55.06,8.65,13.04,23.88,19.59,43.2,18.7,3,18.43,12.22,31.52,26.31,37.11,16.76,6.65,38.06,1.78,54.28-12.42,9.82-8.59,16.33-19.45,19.12-31.28,2.13-9.03,2.1-18.61-.29-28.17-.79-3.18-2.97-6.79-5.08-10.28-.64-1.06-1.51-2.51-2.04-3.5.61-1.22,1.72-3.14,2.51-4.52,1.75-3.04,3.41-5.91,4.19-8.15,6.61-18.98,2.54-37.62-10.56-48.64-13.32-11.21-32.63-12.06-50.4-2.22ZM236.47,1109.31c.16-5.01.3-9.33-2.4-12.43-3.02-3.46-7.75-2.58-14.31-1.35-6.66,1.24-15.77,2.95-21.69-.16-11.08-5.81-12.91-16.57-10.57-26.5.55-2.35,1.34-4.65,2.29-6.83,6.93-15.85,23.77-29.32,41.34-23.08.64.23,1.78,1.03,2.78,1.73,2.77,1.95,6.55,4.61,11.21,3.67,4.78-.97,8.15-5.46,11.41-9.81,1.29-1.73,2.63-3.51,3.53-4.28,9.99-8.57,20.79-8.35,27.07-4.34,6.98,4.46,9.34,13.41,6.38,24.04-1.06,3.76-3.49,6.9-6.06,10.22-2.46,3.18-5.01,6.47-6.73,10.65l-1.33,3.22,2.47,2.45c10.63,10.55,14.81,17.59,11.01,32.47-2.7,10.66-15.11,23.9-25.05,26.72-5.37,1.53-15.46,3.27-22.72-2.19-9.23-6.95-8.91-16.51-8.66-24.2Z"/>
  <path class="cls-1" d="M1695.7,591.45c-.7-2.14-2.43-4.87-3.95-7.28-.52-.82-1.2-1.89-1.54-2.5.22-.87,1.07-2.6,1.6-3.68.87-1.77,1.77-3.6,2.14-5.29,3.35-15.09-1.67-29.98-13.44-39.82-10.96-9.17-25.3-12.05-36.54-7.34-9.77,4.09-16.06,13.38-17.93,26.34-12.64-.36-22.51,4.11-28.02,12.77-6.55,10.29-6.03,25.08,1.34,37.66,4.46,7.62,10.85,13.33,18.36,16.69,5.73,2.57,12.1,3.76,18.76,3.39,2.21-.12,4.89-1.11,7.48-2.06.79-.29,1.86-.69,2.59-.91.73.56,1.87,1.54,2.69,2.25,1.8,1.55,3.5,3.02,4.89,3.82,11.78,6.81,24.69,6.48,33.68-.82,9.15-7.43,12.17-20.16,7.89-33.22ZM1630.36,567.49c3.31.75,6.16,1.39,8.57-.01,2.69-1.56,2.7-4.83,2.72-9.34.02-4.58.05-10.86,2.87-14.4,5.27-6.63,12.66-6.47,18.96-3.65,1.49.67,2.92,1.48,4.25,2.39,9.65,6.63,16.46,19.54,10.08,30.42-.23.4-.91,1.05-1.5,1.63-1.65,1.59-3.9,3.77-3.87,6.99.03,3.3,2.59,6.11,5.07,8.84.98,1.08,2,2.2,2.4,2.89,4.42,7.73,2.9,14.89-.56,18.55-3.85,4.07-10.11,4.5-16.79,1.18-2.37-1.18-4.14-3.2-6.02-5.33-1.8-2.04-3.66-4.15-6.22-5.83l-1.97-1.29-1.95,1.33c-8.37,5.72-13.58,7.61-22.99,3.18-6.74-3.15-13.96-13.09-14.57-20.05-.33-3.77-.2-10.7,4.35-14.82,5.79-5.25,12.11-3.82,17.19-2.68Z"/>
  <path class="cls-1" d="M238.11,1303.3c-.7-2.14-2.43-4.87-3.95-7.28-.52-.82-1.2-1.89-1.54-2.5.22-.87,1.07-2.6,1.6-3.68.87-1.77,1.77-3.6,2.14-5.29,3.35-15.09-1.67-29.98-13.44-39.82-10.96-9.17-25.3-12.05-36.54-7.34-9.77,4.09-16.06,13.38-17.93,26.34-12.64-.36-22.51,4.11-28.02,12.77-6.55,10.29-6.03,25.08,1.34,37.66,4.46,7.62,10.85,13.33,18.36,16.69,5.73,2.57,12.1,3.76,18.76,3.39,2.21-.12,4.89-1.11,7.48-2.06.79-.29,1.86-.69,2.59-.91.73.56,1.87,1.54,2.69,2.25,1.8,1.55,3.5,3.02,4.89,3.82,11.78,6.81,24.69,6.48,33.68-.82,9.15-7.43,12.17-20.16,7.89-33.22ZM172.77,1279.34c3.31.75,6.16,1.39,8.57-.01,2.69-1.56,2.7-4.83,2.72-9.34.02-4.58.05-10.86,2.87-14.4,5.27-6.63,12.66-6.47,18.96-3.65,1.49.67,2.92,1.48,4.25,2.39,9.65,6.63,16.46,19.54,10.08,30.42-.23.4-.91,1.05-1.5,1.63-1.65,1.59-3.9,3.77-3.87,6.99.03,3.3,2.59,6.11,5.07,8.84.98,1.08,2,2.2,2.4,2.89,4.42,7.73,2.9,14.89-.56,18.55-3.85,4.07-10.11,4.5-16.79,1.18-2.37-1.18-4.14-3.2-6.02-5.33-1.8-2.04-3.66-4.15-6.22-5.83l-1.97-1.29-1.95,1.33c-8.37,5.72-13.58,7.61-22.99,3.18-6.74-3.15-13.96-13.09-14.57-20.05-.33-3.77-.2-10.7,4.35-14.82,5.79-5.25,12.11-3.82,17.19-2.68Z"/>
</svg>