<?xml version="1.0" encoding="UTF-8"?>
<svg id="Camada_1" data-name="Camada 1" xmlns="http://www.w3.org/2000/svg" viewBox="0 0 1817 1707">
  <defs>
    <style>
      .cls-1 {
        fill: #1e1e1e;
      }
    </style>
  </defs>
  <g>
    <path class="cls-1" d="M1385.21,878.55c-22.33-.98-85.95,37.05-89.2,33.53-8.96-9.7,23.27-27.98,29.02-36.31,14.98-21.72,13.72-53.16-4.74-72.72-10.44-11.06-25-12.63-36.41-18.58h-52.74c.64.57,1.28,1.14,1.9,1.73h-653.74c.56-.59,1.15-1.15,1.72-1.73h-52.17c-8.11,4.69-19.75,4.94-29.52,11.36-26.09,17.15-31.27,52.88-16.24,79.31,7.38,12.98,43.68,25.66,33.22,36.94-3.25,3.5-68.51-34.48-89.13-33.62-49.4,2.08-78.84,59.98-49.04,101.62,21.62,30.2,132.58,61.54,137.42,75.65,9.12,86.16-10.11,189.99,2.04,273.98,10.41,71.95,82.43,118.25,151.09,120.09,155.48-9.87,325.84,12.6,479.52-.26,78.24-6.55,140.38-57.43,147.69-138.02,7.42-81.81-6-172.96.85-255.8,4.11-11.93,107.24-49.07,127.61-66.09,42.46-35.48,13.52-108.79-39.16-111.09ZM513.95,1013.77c-25.98-21.25-77.03-29.37-101.17-48.91-20.16-16.32-10.08-49.58,18.7-48.28,4.55.21,81.74,31.1,84.21,34.93,3.57,5.54.61,51.63-1.73,62.26ZM1257.25,1330.99c0,28.59-59.35,79.01-90.01,79.48-165.08-10.5-350.41,15.42-513.09.63-32.72-2.97-65.42-19.34-83.73-47.02-4.92-7.44-20.18-40.99-20.18-47.61v-414.04h707.01v428.56ZM1288.72,863.68h-765.12c-20.85-5.9-13.28-49.1,14.45-43.58l743.65,2.18c30.26,9.29,14.56,41.4,7.02,41.4ZM1296.03,1013.8c2.66-12.97-4.23-54.24.75-62.18,2.19-3.5,70.84-32.9,75.47-33.79,8.45-1.63,23.03-.97,29.11,5.13,42.31,42.4-85.75,73.96-105.32,90.84Z"/>
    <path class="cls-1" d="M513.7,657.08l789.45,70.43c8.61-7.07,21.22-14,24.92-18.46,16.85-20.3,18.39-51.73,1.74-72.85-10.83-13.74-28.3-15.38-39.31-25.15-8.67-7.69-11.17-20.79-18.99-28.75-50.94-51.82-121.22-83.4-190.03-104.45-11.99-3.67-64.43-12.91-67.2-15.22-5.16-4.29-4.56-26.94-1.08-31.4,1.72-2.21,40.21-5.23,52.8-16.85,38.24-35.28-19.35-68.47-49.57-78.53-45.67-15.2-189.78-31.85-218.09,17.35-24.46,42.51,45.97,56.38,49.57,63.31,1.25,2.41-1,32.13-2.28,33.2-1.19.99-23.37-2.55-30.83-2.15-75.6,4.07-172.4,21.48-234.86,66.08-12.01,8.58-27.49,28.51-34.99,32.88-8.6,5.01-21.18,3.62-32.2,9.54-27.51,14.76-35.85,49.89-23.22,77.56,3.45,7.57,15.85,15.84,24.18,23.47ZM833.42,368.35c65.07-21.33,140.85-11.94,202.75,15.74-13.86,14.61-51.54,13.71-71.46,13.21-41.61-1.05-95.45-8.01-131.29-28.95ZM978.4,432.36l-2.15,24.12-91.64-8.18,2.15-24.12,91.64,8.18ZM888.62,482.46c116.28,4.64,277.17,39.08,355.77,129.21l-651.15-58.09c71.92-63.51,201.84-74.85,295.39-71.12ZM549.14,583.67l740.51,68.25c29.31,11.95,10.83,42.53,3.32,41.86l-762.09-67.99c-20.25-7.73-8.86-50.09,18.26-42.13Z"/>
    <g>
      <path class="cls-1" d="M673.7,1398.34c-27.06-4.3-54.12-8.6-81.18-12.9-3.9-.62-4.23,5.42-.38,6.04,27.06,4.3,54.12,8.6,81.18,12.9,3.9.62,4.23-5.42.38-6.04h0Z"/>
      <path class="cls-1" d="M667.6,1369.87c-27.06-4.3-54.12-8.6-81.18-12.9-3.9-.62-4.23,5.42-.38,6.04,27.06,4.3,54.12,8.6,81.18,12.9,3.9.62,4.23-5.42.38-6.04h0Z"/>
      <path class="cls-1" d="M661.49,1341.4c-27.06-4.3-54.12-8.6-81.18-12.9-3.9-.62-4.23,5.42-.38,6.04,27.06,4.3,54.12,8.6,81.18,12.9,3.9.62,4.23-5.42.38-6.04h0Z"/>
      <path class="cls-1" d="M655.39,1312.93c-27.06-4.3-54.12-8.6-81.18-12.9-3.9-.62-4.23,5.42-.38,6.04,27.06,4.3,54.12,8.6,81.18,12.9,3.9.62,4.23-5.42.38-6.04h0Z"/>
      <path class="cls-1" d="M649.28,1284.45c-27.06-4.3-54.12-8.6-81.18-12.9-3.9-.62-4.23,5.42-.38,6.04,27.06,4.3,54.12,8.6,81.18,12.9,3.9.62,4.23-5.42.38-6.04h0Z"/>
      <path class="cls-1" d="M643.18,1255.98c-27.06-4.3-54.12-8.6-81.18-12.9-3.9-.62-4.23,5.42-.38,6.04,27.06,4.3,54.12,8.6,81.18,12.9,3.9.62,4.23-5.42.38-6.04h0Z"/>
      <path class="cls-1" d="M643.18,1255.98c-27.06-4.3-54.12-8.6-81.18-12.9-3.9-.62-4.23,5.42-.38,6.04,27.06,4.3,54.12,8.6,81.18,12.9,3.9.62,4.23-5.42.38-6.04h0Z"/>
      <path class="cls-1" d="M580.22,1246.3c-20.48-3.25-40.95-6.51-61.43-9.76.3,2.08.59,4.15.87,6.23,20.06,3.19,40.13,6.38,60.19,9.56,3.9.62,4.23-5.42.38-6.04Z"/>
      <path class="cls-1" d="M589.91,1275.35c-22.68-3.6-45.37-7.21-68.05-10.81.14,2.05.27,4.1.37,6.16,22.43,3.56,44.87,7.13,67.3,10.69,3.9.62,4.23-5.42.38-6.04Z"/>
      <path class="cls-1" d="M599.59,1304.41c-25.61-4.07-51.22-8.14-76.84-12.21.08,2.06.2,4.11.36,6.15,25.37,4.03,50.73,8.06,76.1,12.09,3.9.62,4.23-5.42.38-6.04Z"/>
      <path class="cls-1" d="M609.28,1333.46c-27.06-4.3-54.12-8.6-81.18-12.9-1.3-.21-2.16.35-2.64,1.18.12,1.25.25,2.5.34,3.75.45.54,1.07.97,1.92,1.11,27.06,4.3,54.12,8.6,81.18,12.9,3.9.62,4.23-5.42.38-6.04Z"/>
      <path class="cls-1" d="M623.81,1362.52c-27.06-4.3-54.12-8.6-81.18-12.9-3.9-.62-4.23,5.42-.38,6.04,27.06,4.3,54.12,8.6,81.18,12.9,3.9.62,4.23-5.42.38-6.04h0Z"/>
      <path class="cls-1" d="M633.49,1391.57c-27.06-4.3-54.12-8.6-81.18-12.9-3.9-.62-4.23,5.42-.38,6.04,27.06,4.3,54.12,8.6,81.18,12.9,3.9.62,4.23-5.42.38-6.04h0Z"/>
      <path class="cls-1" d="M637.07,1227.51c-27.06-4.3-54.12-8.6-81.18-12.9-3.9-.62-4.23,5.42-.38,6.04,27.06,4.3,54.12,8.6,81.18,12.9,3.9.62,4.23-5.42.38-6.04h0Z"/>
      <path class="cls-1" d="M637.07,1227.51c-27.06-4.3-54.12-8.6-81.18-12.9-3.9-.62-4.23,5.42-.38,6.04,27.06,4.3,54.12,8.6,81.18,12.9,3.9.62,4.23-5.42.38-6.04h0Z"/>
      <path class="cls-1" d="M574.12,1217.83c-18.52-2.94-37.03-5.88-55.55-8.83-.03,2.03-.15,4.04-.25,6.06,18.47,2.94,36.95,5.87,55.43,8.81,3.9.62,4.23-5.42.38-6.04Z"/>
      <path class="cls-1" d="M630.97,1199.04c-27.06-4.3-54.12-8.6-81.18-12.9-3.9-.62-4.23,5.42-.38,6.04,27.06,4.3,54.12,8.6,81.18,12.9,3.9.62,4.23-5.42.38-6.04h0Z"/>
      <path class="cls-1" d="M624.86,1170.57c-27.06-4.3-54.12-8.6-81.18-12.9-3.9-.62-4.23,5.42-.38,6.04,27.06,4.3,54.12,8.6,81.18,12.9,3.9.62,4.23-5.42.38-6.04h0Z"/>
      <path class="cls-1" d="M618.76,1142.1c-27.06-4.3-54.12-8.6-81.18-12.9-3.9-.62-4.23,5.42-.38,6.04,27.06,4.3,54.12,8.6,81.18,12.9,3.9.62,4.23-5.42.38-6.04h0Z"/>
      <path class="cls-1" d="M612.65,1113.62c-27.06-4.3-54.12-8.6-81.18-12.9-3.9-.62-4.23,5.42-.38,6.04,27.06,4.3,54.12,8.6,81.18,12.9,3.9.62,4.23-5.42.38-6.04h0Z"/>
      <path class="cls-1" d="M606.55,1085.15c-27.06-4.3-54.12-8.6-81.18-12.9-.06,0-.1.01-.16,0-.87.83-1.84,1.56-2.86,2.22-.26,1.59.57,3.48,2.64,3.81,27.06,4.3,54.12,8.6,81.18,12.9,3.9.62,4.23-5.42.38-6.04Z"/>
      <path class="cls-1" d="M600.44,1056.68c-23.62-3.75-47.24-7.51-70.86-11.26.21,2.07.39,4.13.63,6.2,23.29,3.7,46.57,7.4,69.86,11.1,3.9.62,4.23-5.42.38-6.04Z"/>
      <path class="cls-1" d="M594.34,1028.21c-22.32-3.55-44.64-7.09-66.97-10.64.12,2.06.28,4.11.42,6.16,22.06,3.5,44.12,7.01,66.17,10.51,3.9.62,4.23-5.42.38-6.04Z"/>
      <path class="cls-1" d="M588.23,999.74c-20.72-3.29-41.44-6.58-62.16-9.88.09,2.05.17,4.09.26,6.14,20.51,3.26,41.02,6.52,61.53,9.78,3.9.62,4.23-5.42.37-6.04Z"/>
      <path class="cls-1" d="M582.21,971.25c-19.16-3.31-38.32-6.63-57.47-9.94.11,2.04.21,4.09.32,6.13,18.95,3.28,37.9,6.55,56.84,9.83,3.75.65,4.03-5.38.31-6.02Z"/>
      <path class="cls-1" d="M576.03,942.79c-17.78-2.83-35.57-5.65-53.35-8.48.2,2.06.42,4.13.59,6.19,17.46,2.77,34.92,5.55,52.38,8.32,3.9.62,4.23-5.42.38-6.04Z"/>
      <path class="cls-1" d="M570.13,914.28c-17.22-3.44-34.44-6.87-51.66-10.31.34,1.1.63,2.25.84,3.5.15.93.24,1.86.39,2.79,16.74,3.34,33.49,6.68,50.23,10.02,3.51.7,3.68-5.31.21-6Z"/>
    </g>
    <g>
      <path class="cls-1" d="M695.95,813.07c1.86-3.78,5.1-7.32,10.55-10.31,4.72-2.59,11.6-6.27,13.05.91.65,3.19.89,6.25,1.27,9.4h18.9c-1.05-7.2-.12-14.51-.56-19.91.31-.11.52-.28.52-.59,0-12.21,10.43-15.06,14.18-15.61,36.83-5.46,12.08-25.78,30.42-42.94,16.07-15.03,43.97-7.41,49.05,14.52,2.06,8.91-1.59,21.21-.23,24.54,3.17,7.75,24.96,9.58,29.51,24.35,1.65,5.36,2.12,10.65,1.68,15.65h20.17c.36-1.58.74-3.11,1.07-4.74,4.55-3.46,11.55,1.96,16.77,4.74h9.03c4.88-2.68,10.48-7.88,21.89-5.68,3.4.66,6.19,2.81,8.36,5.68h20.73c-3.52-12.56-12.9-17.25-22.69-24.42,11.43-19.32-12.34-37.3-14.49-46.53-1-4.31,3.19-15.2,1.89-23.77-5.18-34.19-51.13-46.54-75.52-23.35,2.96-6.82,1.31-29.3-4.84-42.19-20.15-.66-40.3-1.48-60.44-2.39-4.14,3.14-7.55,6.17-9.14,8.08-2.14,2.57-3.06,8.51-4.17,9.21-2.04,1.3-8,.12-11.82,1.57-10.22,3.87-17.6,8.89-23.18,18.39-8.43-5.82-12.07-13.98-23.85-17.62-9.85-3.05-20.56.41-23.87-.81-4.8-1.77-8.28-12.04-19.24-14.7-31.18-7.57-55.92,20.96-50.86,50.86,1.17,6.93,6.08,12.1,6.74,18.88-11.21-.41-21.87,5.74-27.37,15.38-13.8,24.18-15.37,46.9-22.86,72.38-.09.32-.16.68-.23,1.03h119.59ZM863.12,737.17c2.62-12.82-5.51-30.35,12.06-34.31,13.35-3.01,26.01.51,31.85,13.6,6.17,13.82-6.39,24.68-3.98,32.98,1.53,5.25,12.86,8.54,16.48,15.46,6.51,12.49,3.77,25.65-11.33,27.34-2.8.31-28.11-1.77-29.39-2.51-2.41-1.39-12.84-24.64-24.38-24.4-4.92-11.66,6.8-18.89,8.69-28.16ZM786.85,682.88c2.42-2.48,3.14-9.45,5.99-13.54,4.39-6.3,8.64-9.55,15.19-13.51,3.21-.93-1.46-2.73,13.07-2.73.39,0,1.62.69,3.32,1.74,1.44,7,9.33,15.83,9.93,22.1.82,8.54-6.08,13.7-4.96,21.59,1.15,8.04,23.51,15.11,15.97,30.64-11.16-13.14-25.67-23.4-43.91-22.04-5.17.38-11.86,4.26-14.71,4.02-4.82-.42-21.44-17.19-32.96-11.28.6-17.36,28.1-11.93,33.04-16.99ZM732.63,739.09c2.24-.55,14.76-33.56,35.83-18.46l-13.53,35.33c-2.19,3.57-7.98,3.31-10.3,5.57-1.51,1.47-21.72,1.72-22.23,19.85-11.16-.22-24.29,4.84-32.09,8.83,9.87-15.49-12.15-26.4,2.4-45.19,13.23-17.08,27.63-2.89,39.93-5.93ZM654.42,672.39c20.8-6.54,21.27,15.3,27.76,17.45,5.33,1.76,13.03-2.16,19.11-2.36,18.32-.59,22.28,13.53,20.77,29.51-20.1-2.51-42.79,6.81-50.09,26.83-5.03,13.78,2.52,29.65-18.3,25.82-14.08-2.59-16.94-19.29-14.12-31.41,1.4-6.03,9.29-11.64,8.76-17.21-.44-4.57-7.44-9.81-8.76-15.53-3.21-13.88.13-28.46,14.87-33.1ZM600.35,782.27c1.41-7.24,8.76-10,10.54-14.07,2.96-6.77-.35-16.56,7.39-21.91,3.2,26.27,23.93,50.41,52.46,39.06,4.84,14.78-17.46,21.32-28.23,21.82-12.44.58-26.59-9.56-42.56.13,5.75-8.49-1.32-16.17.4-25.03Z"/>
      <path class="cls-1" d="M966.14,790.19c2.3,7.02-1.56,12.16-7.36,15.7,3,2.13,5.48,4.58,7.82,7.18h28.14c1.81-1.95,4.11-3.8,7.15-5.47,4.72-2.59,11.6-6.27,13.05.91.31,1.54.53,3.05.72,4.56h19.01c-.25-5.54.21-10.88-.13-15.07.31-.11.52-.28.52-.59,0-12.21,10.43-15.06,14.18-15.61,36.83-5.46,12.08-25.78,30.42-42.94,16.07-15.03,43.97-7.41,49.05,14.52,2.06,8.91-1.59,21.21-.23,24.54,3.17,7.75,24.96,9.58,29.51,24.35,1.13,3.66,1.65,7.28,1.77,10.8h21.34c2.15-1.51,4.82-1.13,7.59,0h27.01c3.35-1.24,7.46-1.89,12.9-.84.89.17,1.73.47,2.54.84h24.74c-4.36-9.06-12.46-13.41-20.88-19.58,11.43-19.32-12.34-37.3-14.49-46.53-1-4.31,3.19-15.2,1.89-23.77-5.18-34.19-51.13-46.54-75.52-23.35,1.1-2.54,1.56-7.26,1.38-12.85h-18.97c-1.42,5.72-5.38,10.23-4.5,16.38,1.15,8.04,23.51,15.11,15.97,30.64-11.16-13.14-25.67-23.4-43.91-22.04-5.17.38-11.86,4.26-14.71,4.02-4.82-.42-21.44-17.19-32.96-11.28.6-17.36,28.1-11.93,33.04-16.99,1.38-1.41,2.21-4.27,3.2-7.23-1.3-1.33-2.43-2.8-3.36-4.39h-30.28c-7.84,3.63-13.83,8.43-18.51,16.42-7.62-5.26-11.38-12.4-20.73-16.42h-54.74c13.02.74,14.24,16.76,19.76,18.58,5.33,1.76,13.03-2.16,19.11-2.36,18.32-.59,22.28,13.53,20.77,29.51-20.1-2.51-42.79,6.81-50.09,26.83-5.03,13.78,2.52,29.65-18.3,25.82-14.08-2.59-16.94-19.29-14.12-31.41,1.4-6.03,9.29-11.64,8.76-17.21-.44-4.57-7.44-9.81-8.76-15.53-3.21-13.88.13-28.46,14.87-33.1,2.25-.71,4.22-1.03,6.03-1.13h-32.78c-6.57,9.48-9.7,21.67-7.59,34.15,1.17,6.93,6.08,12.1,6.74,18.88-1.38-.05-2.76,0-4.11.14,3.28,8.52,2.04,18.97-3.74,26.02,4.77,24.57,24.76,45.64,51.78,34.9ZM1158.51,742.02c2.62-12.82-5.51-30.35,12.06-34.31,13.35-3.01,26.01.51,31.85,13.6,6.17,13.82-6.39,24.68-3.98,32.98,1.53,5.25,12.86,8.54,16.48,15.46,6.51,12.49,3.77,25.65-11.33,27.34-2.8.31-28.11-1.77-29.39-2.51-2.41-1.39-12.84-24.64-24.38-24.4-4.92-11.66,6.8-18.89,8.69-28.16ZM988.1,749.87c13.23-17.08,27.63-2.89,39.93-5.93,2.24-.55,14.76-33.56,35.83-18.46l-13.53,35.33c-2.19,3.57-7.98,3.31-10.3,5.57-1.51,1.47-21.72,1.72-22.23,19.85-11.16-.22-24.29,4.84-32.09,8.83,9.87-15.49-12.15-26.4,2.4-45.19Z"/>
    </g>
  </g>
  <path class="cls-1" d="M480.86,394.06c-19.92-5.02-31.48-20.98-34.94-40.65-3.39-19.28,3.36-37.56,14.71-52.89,5.74-7.75,12.41-14.76,18.29-22.4,2.69-3.5,5.05-6.85,7-10.79.31-.62,2.47-6.21,1.73-3.62.5-1.75.79-3.55,1-5.35.14-1.7.16-1.83.05-.37,0-.92-.03-1.85-.1-2.77-.12-1.83-.34-3.69-.75-5.48.69,3.04-.86-2.19-1.07-2.73-.32-.83-.68-1.64-1.06-2.44.83,1.49.81,1.5-.06.02-.42-.57-3.72-4.47-1.31-2.13-.47-.46-4.48-3.63-1.6-1.58-.69-.37-1.4-.7-2.12-.98,1.69.49,1.74.55.14.18-1.62-.19-1.59-.21.1-.05-.86.04-1.72.14-2.57.29-7.77,1.13-15.08-5.74-15.73-13.23-.72-8.21,5.44-14.59,13.23-15.73,30.31-4.42,47.13,32.02,40.47,57.35-4.26,16.2-15.68,28.93-26.18,41.46-4.47,5.33-9.17,10.81-12.25,17.03-2.39,4.82-3.66,9.87-3.76,15.03-.03,1.71.36,6.54.93,9.39.35,1.73.06.1-.02-.2.27.94.55,1.87.87,2.79s1.76,4.28,1.37,3.53,1.51,2.28,2.03,3.03c.05.08,1.47,1.88.48.73-.9-1.05.9.85,1.12,1.04.63.53,3.83,2.56,1.91,1.53.61.33,1.25.64,1.89.9,2.33.93-3.18-.66,1.23.45,7.6,1.91,13.23,8.7,11.8,16.82-1.28,7.3-9.18,13.73-16.82,11.8h0Z"/>
  <path class="cls-1" d="M411.69,540.17c-4.15.01,1.11.24-1.25,0-.84-.08-1.67-.21-2.5-.36-1.02-.19-2.03-.41-3.03-.69.53.15,1.97.79-.36-.16-1.51-.61-2.97-1.33-4.39-2.12-3.34-1.86,1.03.84-.79-.52-.99-.74-1.96-1.5-2.89-2.32-4.27-3.76-8.26-10.03-10.42-15.66-3.06-7.96-4.1-13.78-3.8-22.71.05-1.55.04-1.19.35-3.43.27-1.98.66-3.95,1.13-5.89,1.14-4.63,2.85-9.05,4.72-13.43,8.28-19.36,20-37.39,24-58.37,3.18-16.65-1.12-34.65-11.23-48.27-11.17-15.03-30.05-24.81-48.52-17.06-6.4,2.69-10.39,9.44-8.04,16.33,2.13,6.23,9.89,10.74,16.33,8.04.88-.37,1.76-.69,2.66-1.01.38-.14,2.64-.63,1.01-.33-1.86.35,4.97.06,1.32-.23,1.37.11,2.7.43,4.04.72-2.69-.58,1.63.9,2.65,1.3,2.98,1.17-1.18-.96.38.16.59.42,1.18.86,1.75,1.31,1.32,1.05,2.52,2.21,3.71,3.39-1.91-1.89.85,1.07,1.42,1.84,1.18,1.59,2.16,3.3,3.24,4.96,2.03,3.14-.56-1.39.4.65.35.73.67,1.47.98,2.21.7,1.68,1.32,3.4,1.85,5.14.23.75,1.16,4.86.75,2.62.36,1.97.58,3.97.67,5.96.05.99.05,1.98.04,2.97-.04,2.03.21-1.76-.03.24-.26,2.25-.68,4.49-1.17,6.7-.99,4.42-2.41,8.61-4.12,12.8-7.81,19.19-19.49,36.78-24.26,57.17-4.16,17.81-.94,36.98,7.34,53.1,9.44,18.39,26.82,30.7,47.79,30.63,6.95-.02,12.42-7.1,11.97-13.72-.5-7.33-6.75-11.99-13.72-11.97h0Z"/>
  <path class="cls-1" d="M1507.92,589.33c2.98,2.88-.63-.95.89.87.54.65,1.05,1.32,1.54,2,.6.84,1.17,1.71,1.69,2.61-.28-.48-.86-1.94.14.36.65,1.49,1.2,3.02,1.67,4.58,1.1,3.66-.15-1.32.2.92.19,1.22.36,2.44.45,3.67.44,5.67-1.08,12.95-3.46,18.49-3.36,7.84-6.67,12.74-13.12,18.93-1.12,1.08-.86.82-2.65,2.22-1.58,1.23-3.22,2.37-4.92,3.43-4.04,2.53-8.36,4.5-12.76,6.33-19.43,8.1-40.41,12.84-57.91,25.08-13.89,9.72-23.37,25.61-25.62,42.42-2.48,18.56,4.23,38.73,22.87,46.07,6.46,2.54,14.03.49,17.15-6.09,2.82-5.95.4-14.6-6.09-17.15-.89-.35-1.74-.74-2.61-1.14-.36-.17-2.34-1.39-.95-.47,1.57,1.05-3.52-3.51-1.11-.76-.91-1.03-1.63-2.19-2.39-3.33,1.52,2.29-.54-1.78-1-2.78-1.32-2.91.18,1.51-.16-.38-.13-.72-.25-1.43-.34-2.16-.21-1.67-.26-3.34-.29-5.02.05,2.68.14-1.35.26-2.3.26-1.97.75-3.87,1.14-5.81.74-3.67-.56,1.39.17-.74.26-.76.54-1.52.84-2.27.67-1.69,1.42-3.36,2.26-4.97.36-.69,2.56-4.29,1.29-2.4,1.11-1.66,2.35-3.24,3.68-4.74.66-.74,1.34-1.46,2.05-2.15,1.44-1.43-1.38,1.12.19-.15,1.76-1.43,3.61-2.74,5.51-3.98,3.79-2.48,7.74-4.49,11.88-6.3,18.98-8.31,39.62-12.76,57.26-24.05,15.41-9.86,26.46-25.84,31.78-43.17,6.06-19.77,2.19-40.71-12.87-55.28-5-4.83-13.85-3.57-18.14,1.48-4.75,5.6-3.53,13.3,1.48,18.14h0Z"/>
  <path class="cls-1" d="M371.92,212.46c2.68-4.5.49-.78-.04.5-.63,1.54-1.14,5.28-.29.28-.4,2.35-.81,4.58-.84,6.98,0-1.3,0-2.6-.01-3.9.02,3.18.47,6.3,1.31,9.37-.35-1.25-.69-2.5-1.04-3.76.85,2.93,2.1,5.54,3.47,8.26-2.41-4.8-.26-.53.71.74.85,1.11,1.81,2.09,2.71,3.15-3.02-3.54-1.71-1.64-.72-.77.52.45,1.05.89,1.59,1.31.62.48,1.26.93,1.92,1.36,1.05.68,2.91,1.2-1.21-.65,1.25.56,2.45,1.21,3.75,1.69,1.35.49,3.88.63-.8-.12.79.13,1.56.33,2.35.46,7.5,1.19,13.89,8.46,12.48,16.32-1.35,7.59-8.29,13.76-16.32,12.48-15.51-2.46-27.97-13.12-34.55-27.15-3.35-7.14-4.59-14.81-4.45-22.62.14-7.81,2.88-14.85,6.82-21.48,1.78-2.99,6.32-5.16,9.6-5.61,3.53-.48,7.96.5,10.76,2.82s5.26,5.74,5.61,9.6c.37,4.08-.74,7.26-2.82,10.76h0Z"/>
  <path class="cls-1" d="M1431.95,591.39c-5,1.56-.89.25.36-.35,1.5-.72,4.38-3.17.4,0,1.87-1.48,3.66-2.87,5.29-4.63-.87.97-1.73,1.94-2.6,2.91,2.11-2.38,3.86-5,5.29-7.85l-1.74,3.49c1.32-2.75,2.14-5.53,2.94-8.46-1.41,5.18-.16.56-.03-1.03.11-1.39.05-2.77.09-4.16-.12,4.65.18,2.36.02,1.06-.08-.68-.19-1.36-.31-2.04-.14-.77-.32-1.53-.52-2.29-.33-1.21-1.36-2.84.46,1.29-.56-1.26-1.01-2.54-1.66-3.76s-2.46-3.06.52.63c-.5-.62-.94-1.29-1.45-1.91-4.78-5.9-4.67-15.57,1.62-20.49,6.08-4.74,15.36-4.7,20.49,1.62,9.89,12.2,12.04,28.45,7.56,43.29-2.28,7.55-6.48,14.08-11.81,19.81-5.32,5.72-12.07,9.12-19.43,11.42-3.32,1.03-8.15-.38-10.89-2.24-2.95-2-5.59-5.7-6.12-9.28-.55-3.72-.07-7.79,2.24-10.89,2.44-3.28,5.4-4.91,9.28-6.12h0Z"/>
  <g>
    <path class="cls-1" d="M114.73,1457.82h1593.19c18.7,0,18.73-29.06,0-29.06H114.73c-18.7,0-18.73,29.06,0,29.06h0Z"/>
    <g>
      <g>
        <path class="cls-1" d="M102.31,1516.06c11.88-21.99,23.76-43.97,35.64-65.96,1.71-3.17-5.31-4.54-7-1.4-11.88,21.99-23.76,43.97-35.64,65.96-1.71,3.17,5.31,4.54,7,1.4h0Z"/>
        <path class="cls-1" d="M137.34,1516.06c11.88-21.99,23.76-43.97,35.64-65.96,1.71-3.17-5.31-4.54-7-1.4-11.88,21.99-23.76,43.97-35.64,65.96-1.71,3.17,5.31,4.54,7,1.4h0Z"/>
        <path class="cls-1" d="M172.36,1516.06c11.88-21.99,23.76-43.97,35.64-65.96,1.71-3.17-5.31-4.54-7-1.4-11.88,21.99-23.76,43.97-35.64,65.96-1.71,3.17,5.31,4.54,7,1.4h0Z"/>
        <path class="cls-1" d="M207.38,1516.06c11.88-21.99,23.76-43.97,35.64-65.96,1.71-3.17-5.31-4.54-7-1.4-11.88,21.99-23.76,43.97-35.64,65.96-1.71,3.17,5.31,4.54,7,1.4h0Z"/>
        <path class="cls-1" d="M242.4,1516.06c11.88-21.99,23.76-43.97,35.64-65.96,1.71-3.17-5.31-4.54-7-1.4-11.88,21.99-23.76,43.97-35.64,65.96-1.71,3.17,5.31,4.54,7,1.4h0Z"/>
        <path class="cls-1" d="M277.43,1516.06c11.88-21.99,23.76-43.97,35.64-65.96,1.71-3.17-5.31-4.54-7-1.4-11.88,21.99-23.76,43.97-35.64,65.96-1.71,3.17,5.31,4.54,7,1.4h0Z"/>
        <path class="cls-1" d="M312.45,1516.06c11.88-21.99,23.76-43.97,35.64-65.96,1.71-3.17-5.31-4.54-7-1.4-11.88,21.99-23.76,43.97-35.64,65.96-1.71,3.17,5.31,4.54,7,1.4h0Z"/>
        <path class="cls-1" d="M347.47,1516.06c11.88-21.99,23.76-43.97,35.64-65.96,1.71-3.17-5.31-4.54-7-1.4-11.88,21.99-23.76,43.97-35.64,65.96-1.71,3.17,5.31,4.54,7,1.4h0Z"/>
        <path class="cls-1" d="M382.49,1516.06c11.88-21.99,23.76-43.97,35.64-65.96,1.71-3.17-5.31-4.54-7-1.4-11.88,21.99-23.76,43.97-35.64,65.96-1.71,3.17,5.31,4.54,7,1.4h0Z"/>
        <path class="cls-1" d="M417.52,1516.06c11.88-21.99,23.76-43.97,35.64-65.96,1.71-3.17-5.31-4.54-7-1.4-11.88,21.99-23.76,43.97-35.64,65.96-1.71,3.17,5.31,4.54,7,1.4h0Z"/>
        <path class="cls-1" d="M452.54,1516.06c11.88-21.99,23.76-43.97,35.64-65.96,1.71-3.17-5.31-4.54-7-1.4-11.88,21.99-23.76,43.97-35.64,65.96-1.71,3.17,5.31,4.54,7,1.4h0Z"/>
        <path class="cls-1" d="M487.56,1516.06c11.88-21.99,23.76-43.97,35.64-65.96,1.71-3.17-5.31-4.54-7-1.4-11.88,21.99-23.76,43.97-35.64,65.96-1.71,3.17,5.31,4.54,7,1.4h0Z"/>
        <path class="cls-1" d="M522.58,1516.06c11.88-21.99,23.76-43.97,35.64-65.96,1.71-3.17-5.31-4.54-7-1.4-11.88,21.99-23.76,43.97-35.64,65.96-1.71,3.17,5.31,4.54,7,1.4h0Z"/>
        <path class="cls-1" d="M557.61,1516.06c11.88-21.99,23.76-43.97,35.64-65.96,1.71-3.17-5.31-4.54-7-1.4-11.88,21.99-23.76,43.97-35.64,65.96-1.71,3.17,5.31,4.54,7,1.4h0Z"/>
        <path class="cls-1" d="M592.63,1516.06c11.88-21.99,23.76-43.97,35.64-65.96,1.71-3.17-5.31-4.54-7-1.4-11.88,21.99-23.76,43.97-35.64,65.96-1.71,3.17,5.31,4.54,7,1.4h0Z"/>
        <path class="cls-1" d="M627.65,1516.06c11.88-21.99,23.76-43.97,35.64-65.96,1.71-3.17-5.31-4.54-7-1.4-11.88,21.99-23.76,43.97-35.64,65.96-1.71,3.17,5.31,4.54,7,1.4h0Z"/>
        <path class="cls-1" d="M662.68,1516.06c11.88-21.99,23.76-43.97,35.64-65.96,1.71-3.17-5.31-4.54-7-1.4-11.88,21.99-23.76,43.97-35.64,65.96-1.71,3.17,5.31,4.54,7,1.4h0Z"/>
        <path class="cls-1" d="M697.7,1516.06c11.88-21.99,23.76-43.97,35.64-65.96,1.71-3.17-5.31-4.54-7-1.4-11.88,21.99-23.76,43.97-35.64,65.96-1.71,3.17,5.31,4.54,7,1.4h0Z"/>
        <path class="cls-1" d="M732.72,1516.06c11.88-21.99,23.76-43.97,35.64-65.96,1.71-3.17-5.31-4.54-7-1.4-11.88,21.99-23.76,43.97-35.64,65.96-1.71,3.17,5.31,4.54,7,1.4h0Z"/>
        <path class="cls-1" d="M767.74,1516.06c11.88-21.99,23.76-43.97,35.64-65.96,1.71-3.17-5.31-4.54-7-1.4-11.88,21.99-23.76,43.97-35.64,65.96-1.71,3.17,5.31,4.54,7,1.4h0Z"/>
        <path class="cls-1" d="M802.77,1516.06c11.88-21.99,23.76-43.97,35.64-65.96,1.71-3.17-5.31-4.54-7-1.4-11.88,21.99-23.76,43.97-35.64,65.96-1.71,3.17,5.31,4.54,7,1.4h0Z"/>
        <path class="cls-1" d="M837.79,1516.06c11.88-21.99,23.76-43.97,35.64-65.96,1.71-3.17-5.31-4.54-7-1.4-11.88,21.99-23.76,43.97-35.64,65.96-1.71,3.17,5.31,4.54,7,1.4h0Z"/>
        <path class="cls-1" d="M872.81,1516.06c11.88-21.99,23.76-43.97,35.64-65.96,1.71-3.17-5.31-4.54-7-1.4-11.88,21.99-23.76,43.97-35.64,65.96-1.71,3.17,5.31,4.54,7,1.4h0Z"/>
      </g>
      <g>
        <path class="cls-1" d="M905.9,1516.06c11.88-21.99,23.76-43.97,35.64-65.96,1.71-3.17-5.31-4.54-7-1.4-11.88,21.99-23.76,43.97-35.64,65.96-1.71,3.17,5.31,4.54,7,1.4h0Z"/>
        <path class="cls-1" d="M940.93,1516.06c11.88-21.99,23.76-43.97,35.64-65.96,1.71-3.17-5.31-4.54-7-1.4-11.88,21.99-23.76,43.97-35.64,65.96-1.71,3.17,5.31,4.54,7,1.4h0Z"/>
        <path class="cls-1" d="M975.95,1516.06c11.88-21.99,23.76-43.97,35.64-65.96,1.71-3.17-5.31-4.54-7-1.4-11.88,21.99-23.76,43.97-35.64,65.96-1.71,3.17,5.31,4.54,7,1.4h0Z"/>
        <path class="cls-1" d="M1010.97,1516.06c11.88-21.99,23.76-43.97,35.64-65.96,1.71-3.17-5.31-4.54-7-1.4-11.88,21.99-23.76,43.97-35.64,65.96-1.71,3.17,5.31,4.54,7,1.4h0Z"/>
        <path class="cls-1" d="M1045.99,1516.06c11.88-21.99,23.76-43.97,35.64-65.96,1.71-3.17-5.31-4.54-7-1.4-11.88,21.99-23.76,43.97-35.64,65.96-1.71,3.17,5.31,4.54,7,1.4h0Z"/>
        <path class="cls-1" d="M1081.02,1516.06c11.88-21.99,23.76-43.97,35.64-65.96,1.71-3.17-5.31-4.54-7-1.4-11.88,21.99-23.76,43.97-35.64,65.96-1.71,3.17,5.31,4.54,7,1.4h0Z"/>
        <path class="cls-1" d="M1116.04,1516.06c11.88-21.99,23.76-43.97,35.64-65.96,1.71-3.17-5.31-4.54-7-1.4-11.88,21.99-23.76,43.97-35.64,65.96-1.71,3.17,5.31,4.54,7,1.4h0Z"/>
        <path class="cls-1" d="M1151.06,1516.06c11.88-21.99,23.76-43.97,35.64-65.96,1.71-3.17-5.31-4.54-7-1.4-11.88,21.99-23.76,43.97-35.64,65.96-1.71,3.17,5.31,4.54,7,1.4h0Z"/>
        <path class="cls-1" d="M1186.08,1516.06c11.88-21.99,23.76-43.97,35.64-65.96,1.71-3.17-5.31-4.54-7-1.4-11.88,21.99-23.76,43.97-35.64,65.96-1.71,3.17,5.31,4.54,7,1.4h0Z"/>
        <path class="cls-1" d="M1221.11,1516.06c11.88-21.99,23.76-43.97,35.64-65.96,1.71-3.17-5.31-4.54-7-1.4-11.88,21.99-23.76,43.97-35.64,65.96-1.71,3.17,5.31,4.54,7,1.4h0Z"/>
        <path class="cls-1" d="M1256.13,1516.06c11.88-21.99,23.76-43.97,35.64-65.96,1.71-3.17-5.31-4.54-7-1.4-11.88,21.99-23.76,43.97-35.64,65.96-1.71,3.17,5.31,4.54,7,1.4h0Z"/>
        <path class="cls-1" d="M1291.15,1516.06c11.88-21.99,23.76-43.97,35.64-65.96,1.71-3.17-5.31-4.54-7-1.4-11.88,21.99-23.76,43.97-35.64,65.96-1.71,3.17,5.31,4.54,7,1.4h0Z"/>
        <path class="cls-1" d="M1326.17,1516.06c11.88-21.99,23.76-43.97,35.64-65.96,1.71-3.17-5.31-4.54-7-1.4-11.88,21.99-23.76,43.97-35.64,65.96-1.71,3.17,5.31,4.54,7,1.4h0Z"/>
        <path class="cls-1" d="M1361.2,1516.06c11.88-21.99,23.76-43.97,35.64-65.96,1.71-3.17-5.31-4.54-7-1.4-11.88,21.99-23.76,43.97-35.64,65.96-1.71,3.17,5.31,4.54,7,1.4h0Z"/>
        <path class="cls-1" d="M1396.22,1516.06c11.88-21.99,23.76-43.97,35.64-65.96,1.71-3.17-5.31-4.54-7-1.4-11.88,21.99-23.76,43.97-35.64,65.96-1.71,3.17,5.31,4.54,7,1.4h0Z"/>
        <path class="cls-1" d="M1431.24,1516.06c11.88-21.99,23.76-43.97,35.64-65.96,1.71-3.17-5.31-4.54-7-1.4-11.88,21.99-23.76,43.97-35.64,65.96-1.71,3.17,5.31,4.54,7,1.4h0Z"/>
        <path class="cls-1" d="M1466.27,1516.06c11.88-21.99,23.76-43.97,35.64-65.96,1.71-3.17-5.31-4.54-7-1.4-11.88,21.99-23.76,43.97-35.64,65.96-1.71,3.17,5.31,4.54,7,1.4h0Z"/>
        <path class="cls-1" d="M1501.29,1516.06c11.88-21.99,23.76-43.97,35.64-65.96,1.71-3.17-5.31-4.54-7-1.4-11.88,21.99-23.76,43.97-35.64,65.96-1.71,3.17,5.31,4.54,7,1.4h0Z"/>
        <path class="cls-1" d="M1536.31,1516.06c11.88-21.99,23.76-43.97,35.64-65.96,1.71-3.17-5.31-4.54-7-1.4-11.88,21.99-23.76,43.97-35.64,65.96-1.71,3.17,5.31,4.54,7,1.4h0Z"/>
        <path class="cls-1" d="M1571.33,1516.06c11.88-21.99,23.76-43.97,35.64-65.96,1.71-3.17-5.31-4.54-7-1.4-11.88,21.99-23.76,43.97-35.64,65.96-1.71,3.17,5.31,4.54,7,1.4h0Z"/>
        <path class="cls-1" d="M1606.36,1516.06c11.88-21.99,23.76-43.97,35.64-65.96,1.71-3.17-5.31-4.54-7-1.4-11.88,21.99-23.76,43.97-35.64,65.96-1.71,3.17,5.31,4.54,7,1.4h0Z"/>
        <path class="cls-1" d="M1641.38,1516.06c11.88-21.99,23.76-43.97,35.64-65.96,1.71-3.17-5.31-4.54-7-1.4-11.88,21.99-23.76,43.97-35.64,65.96-1.71,3.17,5.31,4.54,7,1.4h0Z"/>
        <path class="cls-1" d="M1676.4,1516.06c11.88-21.99,23.76-43.97,35.64-65.96,1.71-3.17-5.31-4.54-7-1.4-11.88,21.99-23.76,43.97-35.64,65.96-1.71,3.17,5.31,4.54,7,1.4h0Z"/>
      </g>
    </g>
  </g>
  <path class="cls-1" d="M422.05,687.26c-2.08-2.29-5.78-4.74-9.04-6.91-1.12-.74-2.56-1.7-3.33-2.28-.21-1.21-.12-3.86-.06-5.51.09-2.71.19-5.51-.29-7.83-4.27-20.81-18.94-36.66-39.22-42.39-18.9-5.34-38.51-.9-49.96,11.32-9.96,10.62-12.63,25.8-7.69,43.11-16.05,6.65-25.92,17.8-27.97,31.75-2.44,16.59,6.53,34.84,22.84,46.48,9.87,7.05,21.1,10.62,32.41,10.62,8.63,0,17.29-2.08,25.44-6.28,2.71-1.4,5.51-4.14,8.22-6.79.82-.8,1.95-1.91,2.74-2.59,1.23.29,3.21.88,4.63,1.31,3.13.94,6.08,1.83,8.28,2.05,18.6,1.92,34.6-5.74,41.78-19.95,7.3-14.45,3.94-32.12-8.77-46.1ZM326.64,693.93c4.57-.92,8.51-1.72,10.74-4.83,2.49-3.47.68-7.57-1.83-13.24-2.55-5.76-6.04-13.65-4.49-19.67,2.89-11.28,12.24-15.23,21.73-15.23,2.24,0,4.49.22,6.67.62,15.83,2.89,31.63,15.25,29.73,32.49-.07.63-.55,1.83-.97,2.88-1.17,2.92-2.77,6.92-.92,10.93,1.9,4.12,6.69,6.21,11.32,8.24,1.84.8,3.74,1.63,4.63,2.28,9.89,7.21,12,17.04,9.72,23.58-2.54,7.27-10.15,11.32-20.4,10.91-3.63-.16-6.99-1.68-10.54-3.3-3.4-1.55-6.93-3.15-11.08-3.81l-3.2-.51-1.69,2.76c-7.28,11.88-12.76,17.17-27.04,16.91-10.23-.17-24.86-8.57-29.54-16.96-2.53-4.54-6.27-13.3-2.88-21.03,4.32-9.84,13.05-11.6,20.06-13.02Z"/>
  <path class="cls-1" d="M213.45,867.32c1.92-1.17,4.18-3.48,6.17-5.52.68-.7,1.57-1.6,2.08-2.07.89.01,2.77.44,3.95.71,1.92.44,3.91.89,5.64.87,15.46-.2,28.79-8.51,35.66-22.23,6.4-12.77,5.91-27.4-1.25-37.25-6.23-8.57-16.71-12.56-29.75-11.4-2.56-12.38-9.17-20.96-18.86-24.33-11.52-4.01-25.79-.1-36.35,9.96-6.39,6.09-10.48,13.63-12.03,21.7-1.18,6.16-.88,12.64,1.01,19.04.63,2.12,2.2,4.5,3.73,6.81.46.7,1.1,1.66,1.48,2.31-.38.84-1.07,2.17-1.57,3.13-1.1,2.11-2.14,4.1-2.6,5.63-3.92,13.03-.63,25.51,8.54,32.59,9.33,7.2,22.41,7.21,34.15.05ZM221.75,798.22c.03,3.39.06,6.32,1.98,8.34,2.14,2.25,5.32,1.52,9.71.5,4.47-1.03,10.58-2.45,14.67-.52,7.66,3.61,9.21,10.83,7.91,17.62-.31,1.6-.77,3.18-1.35,4.68-4.23,10.92-15.23,20.51-27.29,16.8-.44-.14-1.23-.64-1.93-1.09-1.93-1.24-4.56-2.93-7.69-2.16-3.2.79-5.35,3.93-7.44,6.96-.82,1.2-1.68,2.45-2.27,3-6.51,6.08-13.82,6.25-18.18,3.72-4.85-2.81-6.7-8.8-5.01-16.07.61-2.58,2.16-4.76,3.8-7.08,1.57-2.22,3.2-4.52,4.24-7.4l.81-2.22-1.74-1.59c-7.49-6.83-10.52-11.47-8.38-21.64,1.52-7.29,9.53-16.6,16.17-18.79,3.59-1.19,10.36-2.66,15.42.82,6.44,4.43,6.5,10.91,6.56,16.12Z"/>
</svg>