<?xml version="1.0" encoding="UTF-8"?>
<svg id="Camada_1" data-name="Camada 1" xmlns="http://www.w3.org/2000/svg" viewBox="0 0 1817 1707">
  <defs>
    <style>
      .cls-1 {
        fill: #1e1e1e;
      }
    </style>
  </defs>
  <g>
    <path class="cls-1" d="M1385.21,1007.2c-22.33-.98-85.95,37.05-89.2,33.53-8.96-9.7,23.27-27.98,29.02-36.31,14.98-21.72,13.72-53.16-4.74-72.72-10.44-11.06-25-12.63-36.41-18.58h-52.74c.64.57,1.28,1.14,1.9,1.73h-653.74c.56-.59,1.15-1.15,1.72-1.73h-52.17c-8.11,4.69-19.75,4.94-29.52,11.36-26.09,17.15-31.27,52.88-16.24,79.31,7.38,12.98,43.68,25.66,33.22,36.94-3.25,3.5-68.51-34.48-89.13-33.62-49.4,2.08-78.84,59.98-49.04,101.62,21.62,30.2,132.58,61.54,137.42,75.65,9.12,86.16-10.11,189.99,2.04,273.98,10.41,71.95,82.43,118.25,151.09,120.09,155.48-9.87,325.84,12.6,479.52-.26,78.24-6.55,140.38-57.43,147.69-138.02,7.42-81.81-6-172.96.85-255.8,4.11-11.93,107.24-49.07,127.61-66.09,42.46-35.48,13.52-108.79-39.16-111.09ZM513.95,1142.42c-25.98-21.25-77.03-29.37-101.17-48.91-20.16-16.32-10.08-49.58,18.7-48.28,4.55.21,81.74,31.1,84.21,34.93,3.57,5.54.61,51.63-1.73,62.26ZM1257.25,1459.64c0,28.59-59.35,79.01-90.01,79.48-165.08-10.5-350.41,15.42-513.09.63-32.72-2.97-65.42-19.34-83.73-47.02-4.92-7.44-20.18-40.99-20.18-47.61v-414.04h707.01v428.56ZM1288.72,992.33h-765.12c-20.85-5.9-13.28-49.1,14.45-43.58l743.65,2.18c30.26,9.29,14.56,41.4,7.02,41.4ZM1296.03,1142.45c2.66-12.97-4.23-54.24.75-62.18,2.19-3.5,70.84-32.9,75.47-33.79,8.45-1.63,23.03-.97,29.11,5.13,42.31,42.4-85.75,73.96-105.32,90.84Z"/>
    <path class="cls-1" d="M523.88,947.71l791.6-39.59c7.55-8.2,19.07-16.8,22.12-21.73,13.88-22.44,11.05-53.78-8.36-72.39-12.63-12.11-30.15-11.32-42.42-19.47-9.65-6.41-13.94-19.05-22.79-25.85-57.62-44.27-131.6-65.81-202.66-77.13-12.38-1.97-65.6-3.87-68.66-5.76-5.7-3.53-8.24-26.04-5.42-30.94,1.4-2.42,39.09-10.75,49.96-24,32.98-40.24-28.65-65.13-59.97-70.91-47.33-8.73-192.36-5.26-213.59,47.38-18.34,45.49,53.33,49.47,57.86,55.84,1.58,2.22,3.46,31.96,2.34,33.19-1.04,1.14-23.5.71-30.83,2.14-74.31,14.5-167.76,45.15-223.45,97.97-10.71,10.16-23.28,32.05-30.1,37.41-7.82,6.15-20.47,6.52-30.57,13.9-25.21,18.43-28.59,54.38-12.26,80.02,4.47,7.02,17.89,13.49,27.2,19.89ZM800.54,617.48c61.49-30.14,137.84-31.33,202.98-12.49-11.7,16.39-49.15,20.72-68.94,22.98-41.35,4.73-95.63,5.28-134.04-10.49ZM952.99,660.79l1.21,24.18-91.89,4.6-1.21-24.18,91.89-4.6ZM871.01,722.84c115.8-11.51,279.92.32,370.23,78.69l-652.92,32.65c62.43-72.86,189.53-102.08,282.69-111.34ZM548.82,870.09l742.83-34.96c30.69,7.77,16.61,40.62,9.08,41l-764.16,38.21c-21.12-4.85-15.71-48.38,12.25-44.25Z"/>
    <g>
      <path class="cls-1" d="M673.7,1526.99c-27.06-4.3-54.12-8.6-81.18-12.9-3.9-.62-4.23,5.42-.38,6.04,27.06,4.3,54.12,8.6,81.18,12.9,3.9.62,4.23-5.42.38-6.04h0Z"/>
      <path class="cls-1" d="M667.6,1498.52c-27.06-4.3-54.12-8.6-81.18-12.9-3.9-.62-4.23,5.42-.38,6.04,27.06,4.3,54.12,8.6,81.18,12.9,3.9.62,4.23-5.42.38-6.04h0Z"/>
      <path class="cls-1" d="M661.49,1470.05c-27.06-4.3-54.12-8.6-81.18-12.9-3.9-.62-4.23,5.42-.38,6.04,27.06,4.3,54.12,8.6,81.18,12.9,3.9.62,4.23-5.42.38-6.04h0Z"/>
      <path class="cls-1" d="M655.39,1441.58c-27.06-4.3-54.12-8.6-81.18-12.9-3.9-.62-4.23,5.42-.38,6.04,27.06,4.3,54.12,8.6,81.18,12.9,3.9.62,4.23-5.42.38-6.04h0Z"/>
      <path class="cls-1" d="M649.28,1413.1c-27.06-4.3-54.12-8.6-81.18-12.9-3.9-.62-4.23,5.42-.38,6.04,27.06,4.3,54.12,8.6,81.18,12.9,3.9.62,4.23-5.42.38-6.04h0Z"/>
      <path class="cls-1" d="M643.18,1384.63c-27.06-4.3-54.12-8.6-81.18-12.9-3.9-.62-4.23,5.42-.38,6.04,27.06,4.3,54.12,8.6,81.18,12.9,3.9.62,4.23-5.42.38-6.04h0Z"/>
      <path class="cls-1" d="M643.18,1384.63c-27.06-4.3-54.12-8.6-81.18-12.9-3.9-.62-4.23,5.42-.38,6.04,27.06,4.3,54.12,8.6,81.18,12.9,3.9.62,4.23-5.42.38-6.04h0Z"/>
      <path class="cls-1" d="M580.22,1374.95c-20.48-3.25-40.95-6.51-61.43-9.76.3,2.08.59,4.15.87,6.23,20.06,3.19,40.13,6.38,60.19,9.56,3.9.62,4.23-5.42.38-6.04Z"/>
      <path class="cls-1" d="M589.91,1404c-22.68-3.6-45.37-7.21-68.05-10.81.14,2.05.27,4.1.37,6.16,22.43,3.56,44.87,7.13,67.3,10.69,3.9.62,4.23-5.42.38-6.04Z"/>
      <path class="cls-1" d="M599.59,1433.06c-25.61-4.07-51.22-8.14-76.84-12.21.08,2.06.2,4.11.36,6.15,25.37,4.03,50.73,8.06,76.1,12.09,3.9.62,4.23-5.42.38-6.04Z"/>
      <path class="cls-1" d="M609.28,1462.11c-27.06-4.3-54.12-8.6-81.18-12.9-1.3-.21-2.16.35-2.64,1.18.12,1.25.25,2.5.34,3.75.45.54,1.07.97,1.92,1.11,27.06,4.3,54.12,8.6,81.18,12.9,3.9.62,4.23-5.42.38-6.04Z"/>
      <path class="cls-1" d="M623.81,1491.17c-27.06-4.3-54.12-8.6-81.18-12.9-3.9-.62-4.23,5.42-.38,6.04,27.06,4.3,54.12,8.6,81.18,12.9,3.9.62,4.23-5.42.38-6.04h0Z"/>
      <path class="cls-1" d="M633.49,1520.22c-27.06-4.3-54.12-8.6-81.18-12.9-3.9-.62-4.23,5.42-.38,6.04,27.06,4.3,54.12,8.6,81.18,12.9,3.9.62,4.23-5.42.38-6.04h0Z"/>
      <path class="cls-1" d="M637.07,1356.16c-27.06-4.3-54.12-8.6-81.18-12.9-3.9-.62-4.23,5.42-.38,6.04,27.06,4.3,54.12,8.6,81.18,12.9,3.9.62,4.23-5.42.38-6.04h0Z"/>
      <path class="cls-1" d="M637.07,1356.16c-27.06-4.3-54.12-8.6-81.18-12.9-3.9-.62-4.23,5.42-.38,6.04,27.06,4.3,54.12,8.6,81.18,12.9,3.9.62,4.23-5.42.38-6.04h0Z"/>
      <path class="cls-1" d="M574.12,1346.48c-18.52-2.94-37.03-5.88-55.55-8.83-.03,2.03-.15,4.04-.25,6.06,18.47,2.94,36.95,5.87,55.43,8.81,3.9.62,4.23-5.42.38-6.04Z"/>
      <path class="cls-1" d="M630.97,1327.69c-27.06-4.3-54.12-8.6-81.18-12.9-3.9-.62-4.23,5.42-.38,6.04,27.06,4.3,54.12,8.6,81.18,12.9,3.9.62,4.23-5.42.38-6.04h0Z"/>
      <path class="cls-1" d="M624.86,1299.22c-27.06-4.3-54.12-8.6-81.18-12.9-3.9-.62-4.23,5.42-.38,6.04,27.06,4.3,54.12,8.6,81.18,12.9,3.9.62,4.23-5.42.38-6.04h0Z"/>
      <path class="cls-1" d="M618.76,1270.75c-27.06-4.3-54.12-8.6-81.18-12.9-3.9-.62-4.23,5.42-.38,6.04,27.06,4.3,54.12,8.6,81.18,12.9,3.9.62,4.23-5.42.38-6.04h0Z"/>
      <path class="cls-1" d="M612.65,1242.27c-27.06-4.3-54.12-8.6-81.18-12.9-3.9-.62-4.23,5.42-.38,6.04,27.06,4.3,54.12,8.6,81.18,12.9,3.9.62,4.23-5.42.38-6.04h0Z"/>
      <path class="cls-1" d="M606.55,1213.8c-27.06-4.3-54.12-8.6-81.18-12.9-.06,0-.1.01-.16,0-.87.83-1.84,1.56-2.86,2.22-.26,1.59.57,3.48,2.64,3.81,27.06,4.3,54.12,8.6,81.18,12.9,3.9.62,4.23-5.42.38-6.04Z"/>
      <path class="cls-1" d="M600.44,1185.33c-23.62-3.75-47.24-7.51-70.86-11.26.21,2.07.39,4.13.63,6.2,23.29,3.7,46.57,7.4,69.86,11.1,3.9.62,4.23-5.42.38-6.04Z"/>
      <path class="cls-1" d="M594.34,1156.86c-22.32-3.55-44.64-7.09-66.97-10.64.12,2.06.28,4.11.42,6.16,22.06,3.5,44.12,7.01,66.17,10.51,3.9.62,4.23-5.42.38-6.04Z"/>
      <path class="cls-1" d="M588.23,1128.39c-20.72-3.29-41.44-6.58-62.16-9.88.09,2.05.17,4.09.26,6.14,20.51,3.26,41.02,6.52,61.53,9.78,3.9.62,4.23-5.42.37-6.04Z"/>
      <path class="cls-1" d="M582.21,1099.9c-19.16-3.31-38.32-6.63-57.47-9.94.11,2.04.21,4.09.32,6.13,18.95,3.28,37.9,6.55,56.84,9.83,3.75.65,4.03-5.38.31-6.02Z"/>
      <path class="cls-1" d="M576.03,1071.44c-17.78-2.83-35.57-5.65-53.35-8.48.2,2.06.42,4.13.59,6.19,17.46,2.77,34.92,5.55,52.38,8.32,3.9.62,4.23-5.42.38-6.04Z"/>
      <path class="cls-1" d="M570.13,1042.93c-17.22-3.44-34.44-6.87-51.66-10.31.34,1.1.63,2.25.84,3.5.15.93.24,1.86.39,2.79,16.74,3.34,33.49,6.68,50.23,10.02,3.51.7,3.68-5.31.21-6Z"/>
    </g>
  </g>
  <path class="cls-1" d="M904.36,130.9c19.92,5.02,31.48,20.98,34.94,40.65,3.39,19.28-3.36,37.56-14.71,52.89-5.74,7.75-12.41,14.76-18.29,22.4-2.69,3.5-5.05,6.85-7,10.79-.31.62-2.47,6.21-1.73,3.62-.5,1.75-.79,3.55-1,5.35-.14,1.7-.16,1.83-.05.37,0,.92.03,1.85.1,2.77.12,1.83.34,3.69.75,5.48-.69-3.04.86,2.19,1.07,2.73.32.83.68,1.64,1.06,2.44-.83-1.49-.81-1.5.06-.02.42.57,3.72,4.47,1.31,2.13.47.46,4.48,3.63,1.6,1.58.69.37,1.4.7,2.12.98-1.69-.49-1.74-.55-.14-.18,1.62.19,1.59.21-.1.05.86-.04,1.72-.14,2.57-.29,7.77-1.13,15.08,5.74,15.73,13.23.72,8.21-5.44,14.59-13.23,15.73-30.31,4.42-47.13-32.02-40.47-57.35,4.26-16.2,15.68-28.93,26.18-41.46,4.47-5.33,9.17-10.81,12.25-17.03,2.39-4.82,3.66-9.87,3.76-15.03.03-1.71-.36-6.54-.93-9.39-.35-1.73-.06-.1.02.2-.27-.94-.55-1.87-.87-2.79s-1.76-4.28-1.37-3.53-1.51-2.28-2.03-3.03c-.05-.08-1.47-1.88-.48-.73.9,1.05-.9-.85-1.12-1.04-.63-.53-3.83-2.56-1.91-1.53-.61-.33-1.25-.64-1.89-.9-2.33-.93,3.18.66-1.23-.45-7.6-1.91-13.23-8.7-11.8-16.82,1.28-7.3,9.18-13.73,16.82-11.8h0Z"/>
  <path class="cls-1" d="M961.06,451.56c4.68,0-1.25.27,1.41,0,.95-.1,1.88-.24,2.82-.42,1.15-.21,2.29-.47,3.42-.79-.6.17-2.22.89.4-.18,1.7-.7,3.35-1.51,4.95-2.41,3.76-2.11-1.16.95.89-.59,1.12-.84,2.21-1.7,3.25-2.62,4.81-4.25,9.29-11.35,11.72-17.71,3.43-9,4.59-15.57,4.23-25.65-.06-1.75-.05-1.34-.4-3.87-.31-2.24-.75-4.45-1.29-6.65-1.29-5.22-3.24-10.21-5.37-15.15-9.4-21.83-22.68-42.15-27.25-65.82-3.63-18.79,1.17-39.12,12.55-54.52,12.56-17,33.85-28.09,54.73-19.39,7.24,3.01,11.76,10.62,9.12,18.41-2.38,7.04-11.14,12.15-18.41,9.12-1-.41-1.99-.77-3.01-1.13-.43-.15-2.98-.71-1.14-.37,2.1.39-5.61.08-1.5-.25-1.55.12-3.04.49-4.55.82,3.03-.66-1.84,1.02-2.99,1.47-3.36,1.32,1.33-1.08-.43.19-.67.48-1.33.97-1.97,1.49-1.49,1.19-2.83,2.5-4.18,3.84,2.15-2.13-.95,1.21-1.6,2.08-1.33,1.8-2.43,3.73-3.64,5.61-2.29,3.56.63-1.57-.45.73-.39.82-.75,1.66-1.1,2.5-.79,1.9-1.48,3.84-2.07,5.81-.25.84-1.3,5.49-.84,2.96-.4,2.22-.64,4.48-.74,6.73-.05,1.12-.06,2.23-.03,3.35.05,2.29-.24-1.99.03.27.3,2.54.78,5.06,1.34,7.56,1.13,4.99,2.75,9.72,4.68,14.44,8.87,21.65,22.1,41.46,27.54,64.47,4.75,20.1,1.16,41.74-8.14,59.96-10.61,20.79-30.19,34.73-53.86,34.71-7.85,0-14.04-7.98-13.55-15.45.54-8.27,7.58-13.55,15.45-13.55h0Z"/>
  <path class="cls-1" d="M796.04,262.4c-3.55,2.15.82-.78-1.06.65-.67.51-1.32,1.05-1.94,1.61-.77.69-1.52,1.41-2.22,2.17.38-.41,1.27-1.7-.22.32-.97,1.31-1.84,2.68-2.64,4.1-1.88,3.32.44-1.25-.4.85-.46,1.15-.89,2.3-1.26,3.48-1.69,5.43-1.83,12.86-.74,18.8,1.54,8.39,3.67,13.9,8.58,21.37.85,1.3.65.99,2.09,2.75,1.27,1.55,2.61,3.03,4.03,4.44,3.38,3.36,7.15,6.24,11.03,9.01,17.15,12.22,36.54,21.51,50.88,37.33,11.39,12.56,17.09,30.16,15.54,47.06-1.7,18.65-12.73,36.83-32.54,39.83-6.86,1.04-13.79-2.64-15.37-9.76-1.43-6.43,2.85-14.32,9.76-15.37.94-.14,1.86-.33,2.8-.53.39-.08,2.59-.83,1.03-.25-1.77.67,4.22-2.64,1.25-.5,1.12-.81,2.08-1.77,3.07-2.71-1.99,1.9.93-1.62,1.59-2.49,1.94-2.55-.51,1.43.24-.34.28-.67.56-1.34.81-2.03.58-1.58,1-3.2,1.4-4.83-.64,2.6.17-1.35.25-2.31.18-1.98.13-3.94.18-5.92.1-3.74.24,1.48,0-.76-.09-.8-.19-1.6-.31-2.4-.28-1.8-.64-3.59-1.1-5.35-.2-.76-1.54-4.76-.72-2.63-.72-1.87-1.57-3.69-2.53-5.44-.48-.87-.98-1.72-1.52-2.55-1.09-1.71,1.09,1.39-.15-.19-1.4-1.79-2.91-3.48-4.49-5.11-3.15-3.26-6.55-6.1-10.18-8.79-16.66-12.32-35.79-21.25-50.48-36.17-12.83-13.04-20.06-31.08-21.39-49.15-1.52-20.62,6.91-40.18,24.84-51.04,5.95-3.6,14.3-.4,17.36,5.48,3.39,6.51.48,13.75-5.48,17.36h0Z"/>
  <path class="cls-1" d="M540.04,470.63c3.55,2.15-.82-.78,1.06.65.67.51,1.32,1.05,1.94,1.61.77.69,1.52,1.41,2.22,2.17-.38-.41-1.27-1.7.22.32.97,1.31,1.84,2.68,2.64,4.1,1.88,3.32-.44-1.25.4.85.46,1.15.89,2.3,1.26,3.48,1.69,5.43,1.83,12.86.74,18.8-1.54,8.39-3.67,13.9-8.58,21.37-.85,1.3-.65.99-2.09,2.75-1.27,1.55-2.61,3.03-4.03,4.44-3.38,3.36-7.15,6.24-11.03,9.01-17.15,12.22-36.54,21.51-50.88,37.33-11.39,12.56-17.09,30.16-15.54,47.06,1.7,18.65,12.73,36.83,32.54,39.83,6.86,1.04,13.79-2.64,15.37-9.76,1.43-6.43-2.85-14.32-9.76-15.37-.94-.14-1.86-.33-2.8-.53-.39-.08-2.59-.83-1.03-.25,1.77.67-4.22-2.64-1.25-.5-1.12-.81-2.08-1.77-3.07-2.71,1.99,1.9-.93-1.62-1.59-2.49-1.94-2.55.51,1.43-.24-.34-.28-.67-.56-1.34-.81-2.03-.58-1.58-1-3.2-1.4-4.83.64,2.6-.17-1.35-.25-2.31-.18-1.98-.13-3.94-.18-5.92-.1-3.74-.24,1.48,0-.76.09-.8.19-1.6.31-2.4.28-1.8.64-3.59,1.1-5.35.2-.76,1.54-4.76.72-2.63.72-1.87,1.57-3.69,2.53-5.44.48-.87.98-1.72,1.52-2.55,1.09-1.71-1.09,1.39.15-.19,1.4-1.79,2.91-3.48,4.49-5.11,3.15-3.26,6.55-6.1,10.18-8.79,16.66-12.32,35.79-21.25,50.48-36.17,12.83-13.04,20.06-31.08,21.39-49.15,1.52-20.62-6.91-40.18-24.84-51.04-5.95-3.6-14.3-.4-17.36,5.48-3.39,6.51-.48,13.75,5.48,17.36h0Z"/>
  <path class="cls-1" d="M1507.92,722.82c2.98,2.88-.63-.95.89.87.54.65,1.05,1.32,1.54,2,.6.84,1.17,1.71,1.69,2.61-.28-.48-.86-1.94.14.36.65,1.49,1.2,3.02,1.67,4.58,1.1,3.66-.15-1.32.2.92.19,1.22.36,2.44.45,3.67.44,5.67-1.08,12.95-3.46,18.49-3.36,7.84-6.67,12.74-13.12,18.93-1.12,1.08-.86.82-2.65,2.22-1.58,1.23-3.22,2.37-4.92,3.43-4.04,2.53-8.36,4.5-12.76,6.33-19.43,8.1-40.41,12.84-57.91,25.08-13.89,9.72-23.37,25.61-25.62,42.42-2.48,18.56,4.23,38.73,22.87,46.07,6.46,2.54,14.03.49,17.15-6.09,2.82-5.95.4-14.6-6.09-17.15-.89-.35-1.74-.74-2.61-1.14-.36-.17-2.34-1.39-.95-.47,1.57,1.05-3.52-3.51-1.11-.76-.91-1.03-1.63-2.19-2.39-3.33,1.52,2.29-.54-1.78-1-2.78-1.32-2.91.18,1.51-.16-.38-.13-.72-.25-1.43-.34-2.16-.21-1.67-.26-3.34-.29-5.02.05,2.68.14-1.35.26-2.3.26-1.97.75-3.87,1.14-5.81.74-3.67-.56,1.39.17-.74.26-.76.54-1.52.84-2.27.67-1.69,1.42-3.36,2.26-4.97.36-.69,2.56-4.29,1.29-2.4,1.11-1.66,2.35-3.24,3.68-4.74.66-.74,1.34-1.46,2.05-2.15,1.44-1.43-1.38,1.12.19-.15,1.76-1.43,3.61-2.74,5.51-3.98,3.79-2.48,7.74-4.49,11.88-6.3,18.98-8.31,39.62-12.76,57.26-24.05,15.41-9.86,26.46-25.84,31.78-43.17,6.06-19.77,2.19-40.71-12.87-55.28-5-4.83-13.85-3.57-18.14,1.48-4.75,5.6-3.53,13.3,1.48,18.14h0Z"/>
  <path class="cls-1" d="M808.42,88.69c4.68-2.36.83-.39-.3.4-1.36.96-3.8,3.84-.4.08-1.6,1.77-3.14,3.43-4.45,5.44.69-1.1,1.39-2.2,2.08-3.29-1.69,2.7-2.98,5.57-3.92,8.61.38-1.24.76-2.48,1.14-3.73-.85,2.93-1.2,5.81-1.51,8.83.54-5.35.07-.58.2,1.01.12,1.39.4,2.74.6,4.11-.65-4.61-.56-2.3-.19-1.04.19.66.41,1.31.64,1.96.27.74.57,1.46.89,2.17.52,1.14,1.81,2.58-.67-1.2.76,1.15,1.41,2.34,2.26,3.43s2.93,2.61-.61-.54c.6.53,1.14,1.12,1.74,1.65,5.69,5.03,7.17,14.59,1.77,20.47-5.22,5.68-14.38,7.16-20.47,1.77-11.76-10.4-16.56-26.08-14.57-41.45,1.01-7.82,4.08-14.96,8.39-21.48,4.31-6.52,10.41-10.98,17.29-14.46,3.1-1.57,8.1-.96,11.11.42,3.24,1.49,6.45,4.7,7.56,8.15,1.16,3.58,1.35,7.67-.42,11.11-1.87,3.64-4.52,5.73-8.15,7.56h0Z"/>
  <path class="cls-1" d="M1431.95,724.88c-5,1.56-.89.25.36-.35,1.5-.72,4.38-3.17.4,0,1.87-1.48,3.66-2.87,5.29-4.63-.87.97-1.73,1.94-2.6,2.91,2.11-2.38,3.86-5,5.29-7.85-.58,1.16-1.16,2.33-1.74,3.49,1.32-2.75,2.14-5.53,2.94-8.46-1.41,5.18-.16.56-.03-1.03.11-1.39.05-2.77.09-4.16-.12,4.65.18,2.36.02,1.06-.08-.68-.19-1.36-.31-2.04-.14-.77-.32-1.53-.52-2.29-.33-1.21-1.36-2.84.46,1.29-.56-1.26-1.01-2.54-1.66-3.76s-2.46-3.06.52.63c-.5-.62-.94-1.29-1.45-1.91-4.78-5.9-4.67-15.57,1.62-20.49,6.08-4.74,15.36-4.7,20.49,1.62,9.89,12.2,12.04,28.45,7.56,43.29-2.28,7.55-6.48,14.08-11.81,19.81-5.32,5.72-12.07,9.12-19.43,11.42-3.32,1.03-8.15-.38-10.89-2.24-2.95-2-5.59-5.7-6.12-9.28-.55-3.72-.07-7.79,2.24-10.89,2.44-3.28,5.4-4.91,9.28-6.12h0Z"/>
  <g>
    <path class="cls-1" d="M114.73,1586.47h1593.19c18.7,0,18.73-29.06,0-29.06H114.73c-18.7,0-18.73,29.06,0,29.06h0Z"/>
    <g>
      <g>
        <path class="cls-1" d="M102.31,1644.71c11.88-21.99,23.76-43.97,35.64-65.96,1.71-3.17-5.31-4.54-7-1.4-11.88,21.99-23.76,43.97-35.64,65.96-1.71,3.17,5.31,4.54,7,1.4h0Z"/>
        <path class="cls-1" d="M137.34,1644.71c11.88-21.99,23.76-43.97,35.64-65.96,1.71-3.17-5.31-4.54-7-1.4-11.88,21.99-23.76,43.97-35.64,65.96-1.71,3.17,5.31,4.54,7,1.4h0Z"/>
        <path class="cls-1" d="M172.36,1644.71c11.88-21.99,23.76-43.97,35.64-65.96,1.71-3.17-5.31-4.54-7-1.4-11.88,21.99-23.76,43.97-35.64,65.96-1.71,3.17,5.31,4.54,7,1.4h0Z"/>
        <path class="cls-1" d="M207.38,1644.71c11.88-21.99,23.76-43.97,35.64-65.96,1.71-3.17-5.31-4.54-7-1.4-11.88,21.99-23.76,43.97-35.64,65.96-1.71,3.17,5.31,4.54,7,1.4h0Z"/>
        <path class="cls-1" d="M242.4,1644.71c11.88-21.99,23.76-43.97,35.64-65.96,1.71-3.17-5.31-4.54-7-1.4-11.88,21.99-23.76,43.97-35.64,65.96-1.71,3.17,5.31,4.54,7,1.4h0Z"/>
        <path class="cls-1" d="M277.43,1644.71c11.88-21.99,23.76-43.97,35.64-65.96,1.71-3.17-5.31-4.54-7-1.4-11.88,21.99-23.76,43.97-35.64,65.96-1.71,3.17,5.31,4.54,7,1.4h0Z"/>
        <path class="cls-1" d="M312.45,1644.71c11.88-21.99,23.76-43.97,35.64-65.96,1.71-3.17-5.31-4.54-7-1.4-11.88,21.99-23.76,43.97-35.64,65.96-1.71,3.17,5.31,4.54,7,1.4h0Z"/>
        <path class="cls-1" d="M347.47,1644.71c11.88-21.99,23.76-43.97,35.64-65.96,1.71-3.17-5.31-4.54-7-1.4-11.88,21.99-23.76,43.97-35.64,65.96-1.71,3.17,5.31,4.54,7,1.4h0Z"/>
        <path class="cls-1" d="M382.49,1644.71c11.88-21.99,23.76-43.97,35.64-65.96,1.71-3.17-5.31-4.54-7-1.4-11.88,21.99-23.76,43.97-35.64,65.96-1.71,3.17,5.31,4.54,7,1.4h0Z"/>
        <path class="cls-1" d="M417.52,1644.71c11.88-21.99,23.76-43.97,35.64-65.96,1.71-3.17-5.31-4.54-7-1.4-11.88,21.99-23.76,43.97-35.64,65.96-1.71,3.17,5.31,4.54,7,1.4h0Z"/>
        <path class="cls-1" d="M452.54,1644.71c11.88-21.99,23.76-43.97,35.64-65.96,1.71-3.17-5.31-4.54-7-1.4-11.88,21.99-23.76,43.97-35.64,65.96-1.71,3.17,5.31,4.54,7,1.4h0Z"/>
        <path class="cls-1" d="M487.56,1644.71c11.88-21.99,23.76-43.97,35.64-65.96,1.71-3.17-5.31-4.54-7-1.4-11.88,21.99-23.76,43.97-35.64,65.96-1.71,3.17,5.31,4.54,7,1.4h0Z"/>
        <path class="cls-1" d="M522.58,1644.71c11.88-21.99,23.76-43.97,35.64-65.96,1.71-3.17-5.31-4.54-7-1.4-11.88,21.99-23.76,43.97-35.64,65.96-1.71,3.17,5.31,4.54,7,1.4h0Z"/>
        <path class="cls-1" d="M557.61,1644.71c11.88-21.99,23.76-43.97,35.64-65.96,1.71-3.17-5.31-4.54-7-1.4-11.88,21.99-23.76,43.97-35.64,65.96-1.71,3.17,5.31,4.54,7,1.4h0Z"/>
        <path class="cls-1" d="M592.63,1644.71c11.88-21.99,23.76-43.97,35.64-65.96,1.71-3.17-5.31-4.54-7-1.4-11.88,21.99-23.76,43.97-35.64,65.96-1.71,3.17,5.31,4.54,7,1.4h0Z"/>
        <path class="cls-1" d="M627.65,1644.71c11.88-21.99,23.76-43.97,35.64-65.96,1.71-3.17-5.31-4.54-7-1.4-11.88,21.99-23.76,43.97-35.64,65.96-1.71,3.17,5.31,4.54,7,1.4h0Z"/>
        <path class="cls-1" d="M662.68,1644.71c11.88-21.99,23.76-43.97,35.64-65.96,1.71-3.17-5.31-4.54-7-1.4-11.88,21.99-23.76,43.97-35.64,65.96-1.71,3.17,5.31,4.54,7,1.4h0Z"/>
        <path class="cls-1" d="M697.7,1644.71c11.88-21.99,23.76-43.97,35.64-65.96,1.71-3.17-5.31-4.54-7-1.4-11.88,21.99-23.76,43.97-35.64,65.96-1.71,3.17,5.31,4.54,7,1.4h0Z"/>
        <path class="cls-1" d="M732.72,1644.71c11.88-21.99,23.76-43.97,35.64-65.96,1.71-3.17-5.31-4.54-7-1.4-11.88,21.99-23.76,43.97-35.64,65.96-1.71,3.17,5.31,4.54,7,1.4h0Z"/>
        <path class="cls-1" d="M767.74,1644.71c11.88-21.99,23.76-43.97,35.64-65.96,1.71-3.17-5.31-4.54-7-1.4-11.88,21.99-23.76,43.97-35.64,65.96-1.71,3.17,5.31,4.54,7,1.4h0Z"/>
        <path class="cls-1" d="M802.77,1644.71c11.88-21.99,23.76-43.97,35.64-65.96,1.71-3.17-5.31-4.54-7-1.4-11.88,21.99-23.76,43.97-35.64,65.96-1.71,3.17,5.31,4.54,7,1.4h0Z"/>
        <path class="cls-1" d="M837.79,1644.71c11.88-21.99,23.76-43.97,35.64-65.96,1.71-3.17-5.31-4.54-7-1.4-11.88,21.99-23.76,43.97-35.64,65.96-1.71,3.17,5.31,4.54,7,1.4h0Z"/>
        <path class="cls-1" d="M872.81,1644.71c11.88-21.99,23.76-43.97,35.64-65.96,1.71-3.17-5.31-4.54-7-1.4-11.88,21.99-23.76,43.97-35.64,65.96-1.71,3.17,5.31,4.54,7,1.4h0Z"/>
      </g>
      <g>
        <path class="cls-1" d="M905.9,1644.71c11.88-21.99,23.76-43.97,35.64-65.96,1.71-3.17-5.31-4.54-7-1.4-11.88,21.99-23.76,43.97-35.64,65.96-1.71,3.17,5.31,4.54,7,1.4h0Z"/>
        <path class="cls-1" d="M940.93,1644.71c11.88-21.99,23.76-43.97,35.64-65.96,1.71-3.17-5.31-4.54-7-1.4-11.88,21.99-23.76,43.97-35.64,65.96-1.71,3.17,5.31,4.54,7,1.4h0Z"/>
        <path class="cls-1" d="M975.95,1644.71c11.88-21.99,23.76-43.97,35.64-65.96,1.71-3.17-5.31-4.54-7-1.4-11.88,21.99-23.76,43.97-35.64,65.96-1.71,3.17,5.31,4.54,7,1.4h0Z"/>
        <path class="cls-1" d="M1010.97,1644.71c11.88-21.99,23.76-43.97,35.64-65.96,1.71-3.17-5.31-4.54-7-1.4-11.88,21.99-23.76,43.97-35.64,65.96-1.71,3.17,5.31,4.54,7,1.4h0Z"/>
        <path class="cls-1" d="M1045.99,1644.71c11.88-21.99,23.76-43.97,35.64-65.96,1.71-3.17-5.31-4.54-7-1.4-11.88,21.99-23.76,43.97-35.64,65.96-1.71,3.17,5.31,4.54,7,1.4h0Z"/>
        <path class="cls-1" d="M1081.02,1644.71c11.88-21.99,23.76-43.97,35.64-65.96,1.71-3.17-5.31-4.54-7-1.4-11.88,21.99-23.76,43.97-35.64,65.96-1.71,3.17,5.31,4.54,7,1.4h0Z"/>
        <path class="cls-1" d="M1116.04,1644.71c11.88-21.99,23.76-43.97,35.64-65.96,1.71-3.17-5.31-4.54-7-1.4-11.88,21.99-23.76,43.97-35.64,65.96-1.71,3.17,5.31,4.54,7,1.4h0Z"/>
        <path class="cls-1" d="M1151.06,1644.71c11.88-21.99,23.76-43.97,35.64-65.96,1.71-3.17-5.31-4.54-7-1.4-11.88,21.99-23.76,43.97-35.64,65.96-1.71,3.17,5.31,4.54,7,1.4h0Z"/>
        <path class="cls-1" d="M1186.08,1644.71c11.88-21.99,23.76-43.97,35.64-65.96,1.71-3.17-5.31-4.54-7-1.4-11.88,21.99-23.76,43.97-35.64,65.96-1.71,3.17,5.31,4.54,7,1.4h0Z"/>
        <path class="cls-1" d="M1221.11,1644.71c11.88-21.99,23.76-43.97,35.64-65.96,1.71-3.17-5.31-4.54-7-1.4-11.88,21.99-23.76,43.97-35.64,65.96-1.71,3.17,5.31,4.54,7,1.4h0Z"/>
        <path class="cls-1" d="M1256.13,1644.71c11.88-21.99,23.76-43.97,35.64-65.96,1.71-3.17-5.31-4.54-7-1.4-11.88,21.99-23.76,43.97-35.64,65.96-1.71,3.17,5.31,4.54,7,1.4h0Z"/>
        <path class="cls-1" d="M1291.15,1644.71c11.88-21.99,23.76-43.97,35.64-65.96,1.71-3.17-5.31-4.54-7-1.4-11.88,21.99-23.76,43.97-35.64,65.96-1.71,3.17,5.31,4.54,7,1.4h0Z"/>
        <path class="cls-1" d="M1326.17,1644.71c11.88-21.99,23.76-43.97,35.64-65.96,1.71-3.17-5.31-4.54-7-1.4-11.88,21.99-23.76,43.97-35.64,65.96-1.71,3.17,5.31,4.54,7,1.4h0Z"/>
        <path class="cls-1" d="M1361.2,1644.71c11.88-21.99,23.76-43.97,35.64-65.96,1.71-3.17-5.31-4.54-7-1.4-11.88,21.99-23.76,43.97-35.64,65.96-1.71,3.17,5.31,4.54,7,1.4h0Z"/>
        <path class="cls-1" d="M1396.22,1644.71c11.88-21.99,23.76-43.97,35.64-65.96,1.71-3.17-5.31-4.54-7-1.4-11.88,21.99-23.76,43.97-35.64,65.96-1.71,3.17,5.31,4.54,7,1.4h0Z"/>
        <path class="cls-1" d="M1431.24,1644.71c11.88-21.99,23.76-43.97,35.64-65.96,1.71-3.17-5.31-4.54-7-1.4-11.88,21.99-23.76,43.97-35.64,65.96-1.71,3.17,5.31,4.54,7,1.4h0Z"/>
        <path class="cls-1" d="M1466.27,1644.71c11.88-21.99,23.76-43.97,35.64-65.96,1.71-3.17-5.31-4.54-7-1.4-11.88,21.99-23.76,43.97-35.64,65.96-1.71,3.17,5.31,4.54,7,1.4h0Z"/>
        <path class="cls-1" d="M1501.29,1644.71c11.88-21.99,23.76-43.97,35.64-65.96,1.71-3.17-5.31-4.54-7-1.4-11.88,21.99-23.76,43.97-35.64,65.96-1.71,3.17,5.31,4.54,7,1.4h0Z"/>
        <path class="cls-1" d="M1536.31,1644.71c11.88-21.99,23.76-43.97,35.64-65.96,1.71-3.17-5.31-4.54-7-1.4-11.88,21.99-23.76,43.97-35.64,65.96-1.71,3.17,5.31,4.54,7,1.4h0Z"/>
        <path class="cls-1" d="M1571.33,1644.71c11.88-21.99,23.76-43.97,35.64-65.96,1.71-3.17-5.31-4.54-7-1.4-11.88,21.99-23.76,43.97-35.64,65.96-1.71,3.17,5.31,4.54,7,1.4h0Z"/>
        <path class="cls-1" d="M1606.36,1644.71c11.88-21.99,23.76-43.97,35.64-65.96,1.71-3.17-5.31-4.54-7-1.4-11.88,21.99-23.76,43.97-35.64,65.96-1.71,3.17,5.31,4.54,7,1.4h0Z"/>
        <path class="cls-1" d="M1641.38,1644.71c11.88-21.99,23.76-43.97,35.64-65.96,1.71-3.17-5.31-4.54-7-1.4-11.88,21.99-23.76,43.97-35.64,65.96-1.71,3.17,5.31,4.54,7,1.4h0Z"/>
        <path class="cls-1" d="M1676.4,1644.71c11.88-21.99,23.76-43.97,35.64-65.96,1.71-3.17-5.31-4.54-7-1.4-11.88,21.99-23.76,43.97-35.64,65.96-1.71,3.17,5.31,4.54,7,1.4h0Z"/>
      </g>
    </g>
  </g>
</svg>