<svg width="46" height="42" viewBox="0 0 46 42" fill="none" xmlns="http://www.w3.org/2000/svg">
<path d="M43.8331 4.3332V16.8332M43.8331 16.8332H31.3331M43.8331 16.8332L34.1873 7.74987C31.3135 4.87432 27.5831 3.01067 23.558 2.43975C19.5329 1.86883 15.4314 2.62156 11.8713 4.58453C8.31129 6.5475 5.48568 9.61435 3.8203 13.3229C2.15491 17.0315 1.73997 21.1809 2.63801 25.1458C3.53605 29.1107 5.69841 32.6764 8.79924 35.3054C11.9001 37.9345 15.7714 39.4845 19.8298 39.7219C23.8882 39.9593 27.9138 38.8713 31.3001 36.6218C34.6863 34.3722 37.2497 31.083 38.6039 27.2499" stroke="#FEF9FF" stroke-width="4" stroke-linecap="round" stroke-linejoin="round"/>
</svg>
