<svg width="55" height="55" viewBox="0 0 55 55" fill="none" xmlns="http://www.w3.org/2000/svg">
<path d="M27.5002 4.58325C14.8433 4.58325 4.5835 14.843 4.5835 27.4999C4.5835 40.1568 14.8433 50.4166 27.5002 50.4166C40.157 50.4166 50.4168 40.1568 50.4168 27.4999H45.8335C45.8322 31.8896 44.2559 36.133 41.3912 39.459C38.5264 42.785 34.5634 44.9728 30.2224 45.6246C25.8814 46.2764 21.4507 45.349 17.7355 43.011C14.0203 40.673 11.2673 37.0795 9.97687 32.8838C8.68647 28.6882 8.94431 24.1687 10.7035 20.147C12.4628 16.1253 15.6066 12.8683 19.5636 10.968C23.5206 9.06776 28.0281 8.65032 32.2668 9.79162C36.5055 10.9329 40.194 13.5572 42.6618 17.1874H36.6668V20.052C35.8156 19.4136 34.8035 19.0249 33.7438 18.9293C32.6842 18.8338 31.6188 19.0352 30.6672 19.511C29.7155 19.9868 28.9152 20.7183 28.3558 21.6233C27.7964 22.5284 27.5002 23.5714 27.5002 24.6353V30.3645C27.5002 31.884 28.1038 33.3412 29.1782 34.4156C30.2526 35.4901 31.7099 36.0937 33.2293 36.0937C34.7488 36.0937 36.206 35.4901 37.2805 34.4156C38.3549 33.3412 38.9585 31.884 38.9585 30.3645V24.6353C38.9585 23.5926 38.6789 22.6141 38.1931 21.7708H50.4168V8.02076H45.8335V13.7499C43.7001 10.9024 40.9324 8.5914 37.75 7.00021C34.5676 5.40902 31.0582 4.58147 27.5002 4.58325ZM35.521 24.6353V30.3645C35.521 30.9723 35.2796 31.5552 34.8498 31.985C34.42 32.4147 33.8371 32.6562 33.2293 32.6562C32.6215 32.6562 32.0386 32.4147 31.6089 31.985C31.1791 31.5552 30.9377 30.9723 30.9377 30.3645V24.6353C30.9377 24.0275 31.1791 23.4447 31.6089 23.0149C32.0386 22.5851 32.6215 22.3437 33.2293 22.3437C33.8371 22.3437 34.42 22.5851 34.8498 23.0149C35.2796 23.4447 35.521 24.0275 35.521 24.6353ZM22.9168 19.4791H19.4793V35.5208H22.9168V19.4791Z" fill="white"/>
</svg>
