<svg width="50" height="48" viewBox="0 0 50 48" fill="none" xmlns="http://www.w3.org/2000/svg">
<path d="M14.5832 22L22.9165 4C24.5741 4 26.1638 4.63214 27.3359 5.75736C28.508 6.88258 29.1665 8.4087 29.1665 10V18H40.9582C41.5621 17.9934 42.1604 18.113 42.7114 18.3504C43.2625 18.5879 43.7532 18.9375 44.1495 19.375C44.5459 19.8126 44.8384 20.3276 45.0068 20.8845C45.1752 21.4414 45.2155 22.0267 45.1248 22.6L42.2498 40.6C42.0992 41.5538 41.5945 42.4232 40.8288 43.048C40.0631 43.6728 39.088 44.0109 38.0832 44H14.5832M14.5832 22V44M14.5832 22H8.33317C7.2281 22 6.16829 22.4214 5.38689 23.1716C4.60549 23.9217 4.1665 24.9391 4.1665 26V40C4.1665 41.0609 4.60549 42.0783 5.38689 42.8284C6.16829 43.5786 7.2281 44 8.33317 44H14.5832" stroke="#1E1E1E" stroke-width="4" stroke-linecap="round" stroke-linejoin="round"/>
</svg>
