<svg width="60" height="60" viewBox="0 0 60 60" fill="none" xmlns="http://www.w3.org/2000/svg">
<path d="M6 20.25C6 18.062 6.86919 15.9635 8.41637 14.4164C9.96354 12.8692 12.062 12 14.25 12H45.75C47.938 12 50.0365 12.8692 51.5836 14.4164C53.1308 15.9635 54 18.062 54 20.25V39.75C54 41.938 53.1308 44.0365 51.5836 45.5836C50.0365 47.1308 47.938 48 45.75 48H14.25C12.062 48 9.96354 47.1308 8.41637 45.5836C6.86919 44.0365 6 41.938 6 39.75V20.25ZM14.25 15C12.8576 15 11.5223 15.5531 10.5377 16.5377C9.55312 17.5223 9 18.8576 9 20.25V39.75C9 42.648 11.352 45 14.25 45H45.75C47.1424 45 48.4777 44.4469 49.4623 43.4623C50.4469 42.4777 51 41.1424 51 39.75V20.25C51 18.8576 50.4469 17.5223 49.4623 16.5377C48.4777 15.5531 47.1424 15 45.75 15H14.25ZM12 34.5C12 34.1022 12.158 33.7206 12.4393 33.4393C12.7206 33.158 13.1022 33 13.5 33H34.5C34.8978 33 35.2794 33.158 35.5607 33.4393C35.842 33.7206 36 34.1022 36 34.5C36 34.8978 35.842 35.2794 35.5607 35.5607C35.2794 35.842 34.8978 36 34.5 36H13.5C13.1022 36 12.7206 35.842 12.4393 35.5607C12.158 35.2794 12 34.8978 12 34.5ZM13.5 39C13.1022 39 12.7206 39.158 12.4393 39.4393C12.158 39.7206 12 40.1022 12 40.5C12 40.8978 12.158 41.2794 12.4393 41.5607C12.7206 41.842 13.1022 42 13.5 42H22.5C22.8978 42 23.2794 41.842 23.5607 41.5607C23.842 41.2794 24 40.8978 24 40.5C24 40.1022 23.842 39.7206 23.5607 39.4393C23.2794 39.158 22.8978 39 22.5 39H13.5ZM39 34.5C39 34.1022 39.158 33.7206 39.4393 33.4393C39.7206 33.158 40.1022 33 40.5 33H46.5C46.8978 33 47.2794 33.158 47.5607 33.4393C47.842 33.7206 48 34.1022 48 34.5C48 34.8978 47.842 35.2794 47.5607 35.5607C47.2794 35.842 46.8978 36 46.5 36H40.5C40.1022 36 39.7206 35.842 39.4393 35.5607C39.158 35.2794 39 34.8978 39 34.5ZM28.5 39C28.1022 39 27.7206 39.158 27.4393 39.4393C27.158 39.7206 27 40.1022 27 40.5C27 40.8978 27.158 41.2794 27.4393 41.5607C27.7206 41.842 28.1022 42 28.5 42H46.5C46.8978 42 47.2794 41.842 47.5607 41.5607C47.842 41.2794 48 40.8978 48 40.5C48 40.1022 47.842 39.7206 47.5607 39.4393C47.2794 39.158 46.8978 39 46.5 39H28.5Z" fill="white"/>
</svg>
