<svg width="46" height="42" viewBox="0 0 46 42" fill="none" xmlns="http://www.w3.org/2000/svg">
<path d="M2 4.33343V16.8334M2 16.8334H14.5M2 16.8334L11.6667 7.7501C14.5436 4.87806 18.2759 3.01878 22.3014 2.45242C26.3269 1.88606 30.4274 2.64329 33.9851 4.61002C37.5428 6.57675 40.3649 9.64644 42.0263 13.3566C43.6877 17.0667 44.0983 21.2162 43.1963 25.18C42.2943 29.1438 40.1285 32.7071 37.0253 35.3329C33.922 37.9588 30.0495 39.505 25.9911 39.7386C21.9327 39.9722 17.9083 38.8805 14.5243 36.628C11.1403 34.3755 8.57999 31.0842 7.22917 27.2501" stroke="#FEF9FF" stroke-width="4" stroke-linecap="round" stroke-linejoin="round"/>
</svg>
