<svg width="50" height="50" viewBox="0 0 50 50" fill="none" xmlns="http://www.w3.org/2000/svg">
<path d="M7.81251 43.7501C7.39811 43.7501 7.00068 43.5855 6.70766 43.2925C6.41463 42.9994 6.25001 42.602 6.25001 42.1876V7.81261C6.24892 7.53728 6.3206 7.26655 6.45779 7.02784C6.59498 6.78912 6.79282 6.5909 7.03126 6.45323C7.26879 6.31609 7.53824 6.2439 7.81251 6.2439C8.08679 6.2439 8.35623 6.31609 8.59376 6.45323L38.2813 23.6407C38.5217 23.777 38.7217 23.9746 38.8609 24.2134C39.0001 24.4523 39.0734 24.7237 39.0734 25.0001C39.0734 25.2765 39.0001 25.548 38.8609 25.7868C38.7217 26.0256 38.5217 26.2232 38.2813 26.3595L8.59376 43.547C8.35563 43.682 8.08623 43.752 7.81251 43.7501ZM9.37501 10.5157V39.4845L34.375 25.0001L9.37501 10.5157Z" fill="white"/>
<path d="M43.75 6.25H46.875V43.75H43.75V6.25Z" fill="white"/>
</svg>
