<svg width="50" height="50" viewBox="0 0 50 50" fill="none" xmlns="http://www.w3.org/2000/svg">
<path d="M18.6248 26.9584C19.1917 26.3941 19.9534 26.0687 20.753 26.0491C21.5526 26.0296 22.3293 26.3173 22.9231 26.8532C23.5169 27.3891 23.8826 28.1322 23.945 28.9296C24.0073 29.7271 23.7615 30.518 23.2582 31.1397L23.0436 31.3772L14.8332 39.5834H17.7082C18.5107 39.5838 19.2823 39.8929 19.8631 40.4468C20.444 41.0006 20.7894 41.7566 20.828 42.5582C20.8666 43.3598 20.5953 44.1456 20.0703 44.7526C19.5453 45.3596 18.807 45.7414 18.0082 45.8188L17.7082 45.8334H7.2915C6.51466 45.8334 5.76569 45.544 5.19063 45.0217C4.61557 44.4994 4.25566 43.7817 4.18109 43.0084L4.1665 42.7084V32.2917C4.1669 31.4892 4.47604 30.7176 5.02986 30.1368C5.58367 29.556 6.33972 29.2105 7.14133 29.1719C7.94293 29.1333 8.72865 29.4046 9.33567 29.9296C9.94269 30.4546 10.3245 31.193 10.4019 31.9917L10.4165 32.2917V35.1647L18.6248 26.9584ZM42.7082 4.16675C43.485 4.16679 44.234 4.45616 44.809 4.97845C45.3841 5.50074 45.744 6.2185 45.8186 6.99175L45.8332 7.29175V17.7084C45.8328 18.5109 45.5236 19.2826 44.9698 19.8634C44.416 20.4442 43.66 20.7897 42.8583 20.8283C42.0567 20.8668 41.271 20.5955 40.664 20.0705C40.057 19.5456 39.6752 18.8072 39.5978 18.0084L39.5832 17.7084V14.8355L31.3748 23.0438C30.8086 23.6121 30.0456 23.9408 29.2436 23.962C28.4417 23.9832 27.6624 23.6952 27.0669 23.1576C26.4715 22.62 26.1056 21.874 26.0451 21.0741C25.9845 20.2742 26.2338 19.4816 26.7415 18.8605L26.9561 18.623L35.1665 10.4167H32.2915C31.489 10.4164 30.7173 10.1072 30.1365 9.5534C29.5557 8.99958 29.2102 8.24353 29.1717 7.44193C29.1331 6.64032 29.4044 5.8546 29.9294 5.24758C30.4543 4.64056 31.1927 4.25877 31.9915 4.18133L32.2915 4.16675H42.7082Z" fill="white"/>
</svg>
