<svg width="78" height="70" viewBox="0 0 78 70" fill="none" xmlns="http://www.w3.org/2000/svg">
<path d="M30.6248 45.7685V32.6434H26.1267V30.0651H33.501V45.7685H30.6248ZM38.0022 45.7685V30.0651H50.2515V45.7685H38.0022ZM40.8752 43.1901H47.3752V32.6434H40.8752V43.1901ZM39 61.2501C35.3947 61.2501 32.0168 60.6415 28.8665 59.4243C25.7162 58.2071 22.9623 56.5407 20.605 54.4251C18.2477 52.3096 16.3908 49.8382 15.0345 47.0109C13.6782 44.1837 13 41.1523 13 37.9168C13 34.6812 13.6782 31.6498 15.0345 28.8226C16.3908 25.9954 18.2477 23.524 20.605 21.4084C22.9623 19.2929 25.7162 17.6265 28.8665 16.4093C32.0168 15.1921 35.3947 14.5834 39 14.5834H40.235L34.827 9.72428L37.1248 7.6272L46.501 15.9864L37.2515 24.3426L34.9505 22.2455L40.235 17.5001H39C32.6625 17.5001 27.287 19.4815 22.8735 23.4443C18.46 27.4071 16.2522 32.2312 16.25 37.9168C16.2478 43.6023 18.4557 48.4275 22.8735 52.3922C27.2913 56.3569 32.6668 58.3373 39 58.3334C45.3332 58.3296 50.7097 56.3491 55.1297 52.3922C59.5497 48.4353 61.7565 43.6101 61.75 37.9168H65C65 41.1523 64.3218 44.1837 62.9655 47.0109C61.6092 49.8382 59.7523 52.3105 57.395 54.428C55.0377 56.5455 52.2838 58.211 49.1335 59.4243C45.9832 60.6376 42.6053 61.2462 39 61.2501Z" fill="white"/>
</svg>
