<?xml version="1.0" encoding="UTF-8"?>
<svg version="1.1" xmlns="http://www.w3.org/2000/svg" width="100" height="100">
<path d="M0 0 C10.06866931 7.25087772 17.72756886 16.79280068 20.3125 29.25 C21.32332921 41.33115185 21.22669717 52.87870425 14.3125 63.25 C9.79171619 64.31371384 6.63371541 61.97841736 2.88671875 59.734375 C2.10748047 58.99960938 2.10748047 58.99960938 1.3125 58.25 C1.3125 56.93 1.3125 55.61 1.3125 54.25 C4.78191546 54.70822468 7.98645049 55.14131683 11.3125 56.25 C13.06984451 51.27638346 14.63834613 46.5084002 15.3125 41.25 C12.3425 41.25 9.3725 41.25 6.3125 41.25 C6.3125 39.93 6.3125 38.61 6.3125 37.25 C9.2825 37.25 12.2525 37.25 15.3125 37.25 C14.86189339 35.14416513 14.40174044 33.04037128 13.9375 30.9375 C13.68226562 29.76574219 13.42703125 28.59398437 13.1640625 27.38671875 C12.45554469 24.12079555 12.45554469 24.12079555 10.3125 21.25 C9.57 21.745 8.8275 22.24 8.0625 22.75 C5.3125 24.25 5.3125 24.25 1.3125 24.25 C0.9375 22 0.9375 22 1.3125 19.25 C4.3125 16.9375 4.3125 16.9375 7.3125 15.25 C6.23742371 13.95145279 5.15206264 12.66141639 4.0625 11.375 C3.45921875 10.65570312 2.8559375 9.93640625 2.234375 9.1953125 C0.34162366 7.27947882 -1.22407727 6.28550955 -3.6875 5.25 C-4.265 6.24 -4.8425 7.23 -5.4375 8.25 C-6.18 9.24 -6.9225 10.23 -7.6875 11.25 C-9.0075 11.25 -10.3275 11.25 -11.6875 11.25 C-11.15349103 7.33393425 -10.49080533 4.85661066 -8.6875 1.25 C-13.6375 0.26 -18.5875 -0.73 -23.6875 -1.75 C-23.6875 1.22 -23.6875 4.19 -23.6875 7.25 C-25.0075 7.25 -26.3275 7.25 -27.6875 7.25 C-27.6875 4.28 -27.6875 1.31 -27.6875 -1.75 C-29.79333487 -1.29939339 -31.89712872 -0.83924044 -34 -0.375 C-35.17175781 -0.11976562 -36.34351563 0.13546875 -37.55078125 0.3984375 C-40.81670445 1.10695531 -40.81670445 1.10695531 -43.6875 3.25 C-43.1925 3.9925 -42.6975 4.735 -42.1875 5.5 C-40.6875 8.25 -40.6875 8.25 -40.6875 12.25 C-42.9375 12.625 -42.9375 12.625 -45.6875 12.25 C-48 9.25 -48 9.25 -49.6875 6.25 C-53.82687592 9.55015998 -57.27412205 12.42324411 -59.6875 17.25 C-58.2025 18.11625 -58.2025 18.11625 -56.6875 19 C-55.6975 19.7425 -54.7075 20.485 -53.6875 21.25 C-53.6875 22.57 -53.6875 23.89 -53.6875 25.25 C-57.60356575 24.71599103 -60.08088934 24.05330533 -63.6875 22.25 C-64.6775 27.2 -65.6675 32.15 -66.6875 37.25 C-63.7175 37.25 -60.7475 37.25 -57.6875 37.25 C-57.6875 38.57 -57.6875 39.89 -57.6875 41.25 C-60.6575 41.25 -63.6275 41.25 -66.6875 41.25 C-66.21146226 43.37570312 -65.73157402 45.50054427 -65.25 47.625 C-64.98316406 48.80835938 -64.71632813 49.99171875 -64.44140625 51.2109375 C-63.83115305 54.14494581 -63.83115305 54.14494581 -62.6875 56.25 C-61.965625 55.92 -61.24375 55.59 -60.5 55.25 C-57.67052573 54.24396471 -55.65854534 54.08022598 -52.6875 54.25 C-52.75 56.5 -52.75 56.5 -53.6875 59.25 C-57.99750127 62.31673167 -60.36832755 63.49761665 -65.6875 63.25 C-66.50502303 61.66925436 -67.31631997 60.08528777 -68.125 58.5 C-68.57746094 57.61828125 -69.02992187 56.7365625 -69.49609375 55.828125 C-73.73107802 46.66389675 -73.28716734 32.4555144 -70.0625 23.0625 C-63.62277711 8.65193129 -53.96495909 0.31616181 -39.6875 -5.75 C-26.40240328 -9.68008316 -11.53936342 -7.13413347 0 0 Z " fill="#000000" transform="translate(75.6875,20.75)"/>
<path d="M0 0 C0.33 0.99 0.66 1.98 1 3 C-1.01594689 5.13812549 -2.98895817 6.74707633 -5.50390625 8.26171875 C-6.49100586 8.85629883 -6.49100586 8.85629883 -7.49804688 9.46289062 C-8.17931641 9.86701172 -8.86058594 10.27113281 -9.5625 10.6875 C-10.24763672 11.10322266 -10.93277344 11.51894531 -11.63867188 11.94726562 C-16.7466133 15 -16.7466133 15 -19 15 C-18.95875 15.78375 -18.9175 16.5675 -18.875 17.375 C-19 20 -19 20 -21 22 C-22.875 22.265625 -22.875 22.265625 -25 22.25 C-26.051875 22.25773437 -26.051875 22.25773437 -27.125 22.265625 C-29 22 -29 22 -31 20 C-31.265625 18.125 -31.265625 18.125 -31.25 16 C-31.25515625 15.29875 -31.2603125 14.5975 -31.265625 13.875 C-31 12 -31 12 -29 10 C-27.6059407 9.92662846 -26.20833019 9.91645733 -24.8125 9.9375 C-18.60676521 9.50264559 -14.24004037 6.49817091 -9.17895508 3.15014648 C-5.72663467 0.89047059 -4.24658851 0 0 0 Z M-26 15 C-26 15.66 -26 16.32 -26 17 C-25.34 17 -24.68 17 -24 17 C-24 16.34 -24 15.68 -24 15 C-24.66 15 -25.32 15 -26 15 Z " fill="#000000" transform="translate(75,44)"/>
<path d="M0 0 C9.24 0 18.48 0 28 0 C28 1.32 28 2.64 28 4 C18.76 4 9.52 4 0 4 C0 2.68 0 1.36 0 0 Z " fill="#000000" transform="translate(36,76)"/>
</svg>
