<svg width="80" height="80" viewBox="0 0 80 80" fill="none" xmlns="http://www.w3.org/2000/svg">
<path d="M76.6664 13.3332V33.3332M76.6664 33.3332H56.6664M76.6664 33.3332L61.2331 18.7999C56.6351 14.199 50.6664 11.2172 44.2263 10.3037C37.7862 9.39022 31.2237 10.5946 25.5276 13.7353C19.8316 16.8761 15.3106 21.7831 12.646 27.7168C9.98135 33.6505 9.31745 40.2895 10.7543 46.6334C12.1912 52.9773 15.6509 58.6823 20.6123 62.8888C25.5736 67.0953 31.7677 69.5753 38.2612 69.9552C44.7546 70.3351 51.1956 68.5942 56.6136 64.9949C62.0316 61.3956 66.133 56.1329 68.2998 49.9999" stroke="#FEF9FF" stroke-width="4" stroke-linecap="round" stroke-linejoin="round"/>
</svg>
