<svg width="50" height="50" viewBox="0 0 50 50" fill="none" xmlns="http://www.w3.org/2000/svg">
<path d="M6.48109 15.7418C9.72901 8.88967 16.8123 4.16675 24.9998 4.16675C36.5061 4.16675 45.8332 13.4938 45.8332 25.0001C45.8332 36.5063 36.5061 45.8334 24.9998 45.8334C13.4936 45.8334 4.1665 36.5063 4.1665 25.0001M4.1665 8.33342V16.6668H12.4998M18.7498 33.3334V18.7501L14.5832 19.8605M35.4165 25.0001C35.4165 20.8334 33.3332 17.7084 30.2082 17.7084M35.4165 25.0001C35.4165 29.1668 33.3332 32.2918 30.2082 32.2918M35.4165 25.0001C35.4165 22.9168 35.2603 17.7084 30.2082 17.7084M35.4165 25.0001C35.4165 27.0834 35.4165 32.2918 30.2082 32.2918M30.2082 17.7084C27.0832 17.7084 24.9998 20.8334 24.9998 25.0001M30.2082 17.7084C25.1228 17.7084 24.9998 22.9168 24.9998 25.0001M24.9998 25.0001C24.9998 29.1668 27.0832 32.2918 30.2082 32.2918M24.9998 25.0001C24.9998 27.0834 24.9998 32.2918 30.2082 32.2918" stroke="white" stroke-width="4"/>
</svg>
