<svg width="50" height="50" viewBox="0 0 50 50" fill="none" xmlns="http://www.w3.org/2000/svg">
<path d="M40.8447 2.90527C42.3096 4.37012 43.6117 5.95703 44.751 7.66602C45.8903 9.375 46.8424 11.1654 47.6074 13.0371C48.3724 14.9089 48.9665 16.8538 49.3896 18.8721C49.8128 20.8903 50.0163 22.9329 50 25C50 27.0833 49.7965 29.126 49.3896 31.1279C48.9827 33.1299 48.3968 35.0749 47.6318 36.9629C46.8669 38.8509 45.9066 40.6413 44.751 42.334C43.5954 44.0267 42.2933 45.6136 40.8447 47.0947L38.623 44.873C39.9414 43.5547 41.1133 42.1305 42.1387 40.6006C43.1641 39.0706 44.0267 37.4593 44.7266 35.7666C45.4264 34.0739 45.9554 32.3242 46.3135 30.5176C46.6715 28.7109 46.8506 26.8717 46.8506 25C46.8506 23.1283 46.6715 21.2891 46.3135 19.4824C45.9554 17.6758 45.4264 15.9342 44.7266 14.2578C44.0267 12.5814 43.1641 10.9701 42.1387 9.42383C41.1133 7.8776 39.9414 6.44531 38.623 5.12695L40.8447 2.90527ZM40.625 25C40.625 27.9297 40.0716 30.721 38.9648 33.374C37.8581 36.027 36.2793 38.3952 34.2285 40.4785L32.0068 38.2568C33.7809 36.4827 35.14 34.4564 36.084 32.1777C37.028 29.8991 37.5 27.5065 37.5 25C37.5 22.4935 37.028 20.1009 36.084 17.8223C35.14 15.5436 33.7809 13.5173 32.0068 11.7432L34.2285 9.52148C36.2793 11.6048 37.8581 13.973 38.9648 16.626C40.0716 19.279 40.625 22.0703 40.625 25ZM27.5879 16.1621C28.776 17.3503 29.6794 18.7012 30.2979 20.2148C30.9163 21.7285 31.2337 23.3236 31.25 25C31.25 26.6764 30.9408 28.2715 30.3223 29.7852C29.7038 31.2988 28.7923 32.6497 27.5879 33.8379L25.3906 31.6406C26.2695 30.7617 26.945 29.7526 27.417 28.6133C27.889 27.474 28.125 26.2695 28.125 25C28.125 23.7467 27.889 22.5505 27.417 21.4111C26.945 20.2718 26.2695 19.2546 25.3906 18.3594L27.5879 16.1621ZM16.5283 6.25H18.75V43.75H16.5527L7.15332 34.375H0V15.625H7.15332L16.5283 6.25ZM15.625 11.5967L8.47168 18.75H3.125V31.25H8.47168L15.625 38.4033V11.5967Z" fill="white"/>
</svg>
